*
G04 Mass Parameters ***
*
G04 Image ***
*
%INE:\00.LAVORI IN CORSO\METALTRONICA\25-335-0 ( CONTROLLO GENERATORE MAMMOGRAFICO)\25-335-0.SMB*%
%ICAS*%
%MOIN*%
%IPPOS*%
%ASAXBY*%
G74*%FSLAN2X34Y34*%
*
G04 Aperture Definitions ***
*
%AMTHERMAL53*
1,1,0.1172,0,0,*
1,0,0.0933,0,0,*
21,0,0.1173,0.0100,0,0,225.0*
21,0,0.1173,0.0100,0,0,315.0*%
%AMTHERMAL58*
1,1,0.1133,0,0,*
1,0,0.0894,0,0,*
21,0,0.1134,0.0100,0,0,45.0*
21,0,0.1134,0.0100,0,0,135.0*%
%AMTHERMAL63*
1,1,0.1054,0,0,*
1,0,0.0815,0,0,*
21,0,0.1055,0.0100,0,0,45.0*
21,0,0.1055,0.0100,0,0,135.0*%
%ADD10C,0.1260*%
%ADD11R,0.0380X0.0320*%
%ADD12R,0.0510X0.1024*%
%ADD13R,0.0320X0.0380*%
%ADD14R,0.0905X0.0886*%
%ADD15R,0.0501X0.0404*%
%ADD16R,0.0400X0.0710*%
%ADD17R,0.0500X0.0400*%
%ADD18R,0.0197X0.0315*%
%ADD19R,0.0550X0.0350*%
%ADD20O,0.0620X0.0800*%
%ADD21R,0.0620X0.0800*%
%ADD22R,0.0236X0.0512*%
%ADD23R,0.0413X0.0236*%
%ADD24R,0.0400X0.0500*%
%ADD25R,0.0710X0.0400*%
%ADD26C,0.0866*%
%ADD27O,0.0650X0.0256*%
%ADD28R,0.0354X0.0512*%
%ADD29R,0.0680X0.1580*%
%ADD30R,0.0680X0.0550*%
%ADD31R,0.0270X0.0500*%
%ADD32R,0.0400X0.0138*%
%ADD33C,0.0610*%
%ADD34R,0.0610X0.0610*%
%ADD35R,0.0669X0.0315*%
%ADD36C,0.0620*%
%ADD37R,0.0620X0.0620*%
%ADD38O,0.0700X0.0110*%
%ADD39R,0.0700X0.0110*%
%ADD40O,0.0110X0.0700*%
%ADD41R,0.0110X0.0700*%
%ADD42C,0.0100*%
%ADD43C,0.0236*%
%ADD44C,0.0080*%
%ADD45C,0.0236*%
%ADD46C,0.0120*%
%ADD47C,0.0150*%
%ADD48C,0.0250*%
%ADD49C,0.0060*%
%ADD50C,0.0236*%
%ADD51C,0.1575*%
%ADD52C,0.1100*%
%ADD53THERMAL53*%
%ADD54C,0.1100*%
%ADD55R,0.1100X0.1100*%
%ADD56C,0.0984*%
%ADD57R,0.0984X0.0984*%
%ADD58THERMAL58*%
%ADD59C,0.0984*%
%ADD60C,0.0910*%
%ADD61R,0.0910X0.0910*%
%ADD62C,0.0709*%
%ADD63THERMAL63*%
%ADD64R,0.0709X0.0709*%
%ADD65C,0.0394*%
%ADD66C,0.0050*%
%ADD67C,0.0394*%
%ADD68C,0.0050*%
%ADD69C,0.0800*%
%ADD70R,0.0800X0.0800*%
*
G04 Plot Data ***
*
G54D20*
X0004500Y0001000D03*
X0003500D03*
Y0000000D03*
X0004500D03*
X0005500D03*
X0038165Y0012008D03*
X0039165Y0011008D03*
Y0012008D03*
X0040165Y0011008D03*
Y0012008D03*
X0041165Y0011008D03*
Y0012008D03*
X0042165Y0011008D03*
Y0012008D03*
X0043165Y0011008D03*
Y0012008D03*
X0044165Y0011008D03*
Y0012008D03*
X0045165Y0011008D03*
Y0012008D03*
X0046165Y0011008D03*
Y0012008D03*
X0047165Y0011008D03*
Y0012008D03*
X0048165Y0011008D03*
Y0012008D03*
X0049165Y0011008D03*
Y0012008D03*
X0050165Y0011008D03*
Y0012008D03*
X0051165Y0011008D03*
Y0012008D03*
X0052165Y0011008D03*
Y0012008D03*
G54D21*
X0005500Y0001000D03*
X0038165Y0011008D03*
G54D26*
X0023500Y0011000D03*
X0026500Y-0000500D03*
X0000000Y0008750D03*
X0024000Y0010000D03*
X0019250Y0011250D03*
X0051000Y0009500D03*
X0049000Y-0000500D03*
X0030500Y0001000D03*
X0037750Y0008500D03*
X0005000Y0010750D03*
X-0000750Y0010500D03*
G54D33*
X0022000Y0004000D03*
X0023000D03*
X0024000D03*
Y0007000D03*
X0023000D03*
X0022000D03*
X0021000D03*
G54D34*
Y0004000D03*
G54D36*
X0017250Y0010000D03*
X0019250D03*
X0021250D03*
G54D37*
X0016250D03*
M02*
