*
G04 Mass Parameters ***
*
G04 Image ***
*
%INE:\00.LAVORI IN CORSO\METALTRONICA\25-335-0 ( CONTROLLO GENERATORE MAMMOGRAFICO)\25-335-0.SSB*%
%ICAS*%
%MOIN*%
%IPPOS*%
%ASAXBY*%
G74*%FSLAN2X34Y34*%
*
G04 Aperture Definitions ***
*
%AMTHERMAL53*
1,1,0.1172,0,0,*
1,0,0.0933,0,0,*
21,0,0.1173,0.0100,0,0,225.0*
21,0,0.1173,0.0100,0,0,315.0*%
%AMTHERMAL58*
1,1,0.1133,0,0,*
1,0,0.0894,0,0,*
21,0,0.1134,0.0100,0,0,45.0*
21,0,0.1134,0.0100,0,0,135.0*%
%AMTHERMAL63*
1,1,0.1054,0,0,*
1,0,0.0815,0,0,*
21,0,0.1055,0.0100,0,0,45.0*
21,0,0.1055,0.0100,0,0,135.0*%
%ADD10C,0.1260*%
%ADD11R,0.0380X0.0320*%
%ADD12R,0.0510X0.1024*%
%ADD13R,0.0320X0.0380*%
%ADD14R,0.0905X0.0886*%
%ADD15R,0.0501X0.0404*%
%ADD16R,0.0400X0.0710*%
%ADD17R,0.0500X0.0400*%
%ADD18R,0.0197X0.0315*%
%ADD19R,0.0550X0.0350*%
%ADD20O,0.0620X0.0800*%
%ADD21R,0.0620X0.0800*%
%ADD22R,0.0236X0.0512*%
%ADD23R,0.0413X0.0236*%
%ADD24R,0.0400X0.0500*%
%ADD25R,0.0710X0.0400*%
%ADD26C,0.0866*%
%ADD27O,0.0650X0.0256*%
%ADD28R,0.0354X0.0512*%
%ADD29R,0.0680X0.1580*%
%ADD30R,0.0680X0.0550*%
%ADD31R,0.0270X0.0500*%
%ADD32R,0.0400X0.0138*%
%ADD33C,0.0610*%
%ADD34R,0.0610X0.0610*%
%ADD35R,0.0669X0.0315*%
%ADD36C,0.0620*%
%ADD37R,0.0620X0.0620*%
%ADD38O,0.0700X0.0110*%
%ADD39R,0.0700X0.0110*%
%ADD40O,0.0110X0.0700*%
%ADD41R,0.0110X0.0700*%
%ADD42C,0.0100*%
%ADD43C,0.0236*%
%ADD44C,0.0080*%
%ADD45C,0.0236*%
%ADD46C,0.0120*%
%ADD47C,0.0150*%
%ADD48C,0.0250*%
%ADD49C,0.0060*%
%ADD50C,0.0236*%
%ADD51C,0.1575*%
%ADD52C,0.1100*%
%ADD53THERMAL53*%
%ADD54C,0.1100*%
%ADD55R,0.1100X0.1100*%
%ADD56C,0.0984*%
%ADD57R,0.0984X0.0984*%
%ADD58THERMAL58*%
%ADD59C,0.0984*%
%ADD60C,0.0910*%
%ADD61R,0.0910X0.0910*%
%ADD62C,0.0709*%
%ADD63THERMAL63*%
%ADD64R,0.0709X0.0709*%
%ADD65C,0.0394*%
%ADD66C,0.0050*%
%ADD67C,0.0394*%
%ADD68C,0.0050*%
%ADD69C,0.0800*%
%ADD70R,0.0800X0.0800*%
%ADD71C,0.0079*%
%ADD72C,0.0010*%
*
G04 Plot Data ***
*
G54D49*
G01X0052329Y0010293D02*
X0052223D01*
X0052276D02*
Y0009893D01*
X0052223Y0009960D01*
X0051836Y0010160D02*
Y0010227D01*
X0051863Y0010293D01*
X0051969D01*
X0051996Y0010227D01*
Y0009893D01*
X0052023D02*
X0051916D01*
G54D71*
G01X0037664Y0013555D02*
X0052674D01*
Y0012650D01*
X0037664D01*
Y0013555D01*
X0052548Y0013455D02*
X0051878D01*
X0052548Y0013384D02*
X0051878D01*
X0052548Y0013314D02*
X0051878D01*
X0052548Y0013243D02*
X0051878D01*
X0052548Y0013172D02*
X0051878D01*
X0052548Y0013101D02*
X0051878D01*
X0052548Y0013030D02*
X0051878D01*
X0052548Y0012960D02*
X0051878D01*
X0052548Y0012889D02*
X0051878D01*
X0052548Y0012818D02*
X0051878D01*
X0052548Y0012747D02*
X0051878D01*
X0052511Y0013595D02*
Y0012610D01*
X0052440Y0013595D02*
Y0012610D01*
X0052369Y0013595D02*
Y0012610D01*
X0052298Y0013595D02*
Y0012610D01*
X0052228Y0013595D02*
Y0012610D01*
X0052157Y0013595D02*
Y0012610D01*
X0052086Y0013595D02*
Y0012610D01*
X0052015Y0013595D02*
Y0012610D01*
X0051945Y0013595D02*
Y0012610D01*
X0052548Y0013526D02*
X0051878D01*
X0052548Y0012677D02*
X0051878D01*
Y0013595D02*
Y0012610D01*
X0052548D02*
X0051878D01*
X0052548Y0013595D02*
Y0012610D01*
Y0013595D02*
X0051878D01*
X0051524Y0013455D02*
X0050855D01*
X0051524Y0013384D02*
X0050855D01*
X0051524Y0013314D02*
X0050855D01*
X0051524Y0013243D02*
X0050855D01*
X0051524Y0013172D02*
X0050855D01*
X0051524Y0013101D02*
X0050855D01*
X0051524Y0013030D02*
X0050855D01*
X0051524Y0012960D02*
X0050855D01*
X0051524Y0012889D02*
X0050855D01*
X0051524Y0012818D02*
X0050855D01*
X0051524Y0012747D02*
X0050855D01*
X0051487Y0013595D02*
Y0012610D01*
X0051416Y0013595D02*
Y0012610D01*
X0051346Y0013595D02*
Y0012610D01*
X0051275Y0013595D02*
Y0012610D01*
X0051204Y0013595D02*
Y0012610D01*
X0051133Y0013595D02*
Y0012610D01*
X0051062Y0013595D02*
Y0012610D01*
X0050992Y0013595D02*
Y0012610D01*
X0050921Y0013595D02*
Y0012610D01*
X0051524Y0013526D02*
X0050855D01*
X0051524Y0012677D02*
X0050855D01*
Y0013595D02*
Y0012610D01*
X0051524D02*
X0050855D01*
X0051524Y0013595D02*
Y0012610D01*
Y0013595D02*
X0050855D01*
X0050500Y0013455D02*
X0049831D01*
X0050500Y0013384D02*
X0049831D01*
X0050500Y0013314D02*
X0049831D01*
X0050500Y0013243D02*
X0049831D01*
X0050500Y0013172D02*
X0049831D01*
X0050500Y0013101D02*
X0049831D01*
X0050500Y0013030D02*
X0049831D01*
X0050500Y0012960D02*
X0049831D01*
X0050500Y0012889D02*
X0049831D01*
X0050500Y0012818D02*
X0049831D01*
X0050500Y0012747D02*
X0049831D01*
X0050463Y0013595D02*
Y0012610D01*
X0050392Y0013595D02*
Y0012610D01*
X0050322Y0013595D02*
Y0012610D01*
X0050251Y0013595D02*
Y0012610D01*
X0050180Y0013595D02*
Y0012610D01*
X0050109Y0013595D02*
Y0012610D01*
X0050038Y0013595D02*
Y0012610D01*
X0049968Y0013595D02*
Y0012610D01*
X0049897Y0013595D02*
Y0012610D01*
X0050500Y0013526D02*
X0049831D01*
X0050500Y0012677D02*
X0049831D01*
Y0013595D02*
Y0012610D01*
X0050500D02*
X0049831D01*
X0050500Y0013595D02*
Y0012610D01*
Y0013595D02*
X0049831D01*
X0049516Y0013455D02*
X0048846D01*
X0049516Y0013384D02*
X0048846D01*
X0049516Y0013314D02*
X0048846D01*
X0049516Y0013243D02*
X0048846D01*
X0049516Y0013172D02*
X0048846D01*
X0049516Y0013101D02*
X0048846D01*
X0049516Y0013030D02*
X0048846D01*
X0049516Y0012960D02*
X0048846D01*
X0049516Y0012889D02*
X0048846D01*
X0049516Y0012818D02*
X0048846D01*
X0049516Y0012747D02*
X0048846D01*
X0049479Y0013595D02*
Y0012610D01*
X0049408Y0013595D02*
Y0012610D01*
X0049337Y0013595D02*
Y0012610D01*
X0049266Y0013595D02*
Y0012610D01*
X0049196Y0013595D02*
Y0012610D01*
X0049125Y0013595D02*
Y0012610D01*
X0049054Y0013595D02*
Y0012610D01*
X0048983Y0013595D02*
Y0012610D01*
X0048913Y0013595D02*
Y0012610D01*
X0049516Y0013526D02*
X0048846D01*
X0049516Y0012677D02*
X0048846D01*
Y0013595D02*
Y0012610D01*
X0049516D02*
X0048846D01*
X0049516Y0013595D02*
Y0012610D01*
Y0013595D02*
X0048846D01*
X0048531Y0013455D02*
X0047862D01*
X0048531Y0013384D02*
X0047862D01*
X0048531Y0013314D02*
X0047862D01*
X0048531Y0013243D02*
X0047862D01*
X0048531Y0013172D02*
X0047862D01*
X0048531Y0013101D02*
X0047862D01*
X0048531Y0013030D02*
X0047862D01*
X0048531Y0012960D02*
X0047862D01*
X0048531Y0012889D02*
X0047862D01*
X0048531Y0012818D02*
X0047862D01*
X0048531Y0012747D02*
X0047862D01*
X0048495Y0013595D02*
Y0012610D01*
X0048424Y0013595D02*
Y0012610D01*
X0048353Y0013595D02*
Y0012610D01*
X0048282Y0013595D02*
Y0012610D01*
X0048211Y0013595D02*
Y0012610D01*
X0048141Y0013595D02*
Y0012610D01*
X0048070Y0013595D02*
Y0012610D01*
X0047999Y0013595D02*
Y0012610D01*
X0047928Y0013595D02*
Y0012610D01*
X0048531Y0013526D02*
X0047862D01*
X0048531Y0012677D02*
X0047862D01*
Y0013595D02*
Y0012610D01*
X0048531D02*
X0047862D01*
X0048531Y0013595D02*
Y0012610D01*
Y0013595D02*
X0047862D01*
X0047547Y0013455D02*
X0046878D01*
X0047547Y0013384D02*
X0046878D01*
X0047547Y0013314D02*
X0046878D01*
X0047547Y0013243D02*
X0046878D01*
X0047547Y0013172D02*
X0046878D01*
X0047547Y0013101D02*
X0046878D01*
X0047547Y0013030D02*
X0046878D01*
X0047547Y0012960D02*
X0046878D01*
X0047547Y0012889D02*
X0046878D01*
X0047547Y0012818D02*
X0046878D01*
X0047547Y0012747D02*
X0046878D01*
X0047510Y0013595D02*
Y0012610D01*
X0047439Y0013595D02*
Y0012610D01*
X0047369Y0013595D02*
Y0012610D01*
X0047298Y0013595D02*
Y0012610D01*
X0047227Y0013595D02*
Y0012610D01*
X0047156Y0013595D02*
Y0012610D01*
X0047085Y0013595D02*
Y0012610D01*
X0047015Y0013595D02*
Y0012610D01*
X0046944Y0013595D02*
Y0012610D01*
X0047547Y0013526D02*
X0046878D01*
X0047547Y0012677D02*
X0046878D01*
X0047547Y0013595D02*
X0046878D01*
X0047547D02*
Y0012610D01*
X0046878D01*
Y0013595D02*
Y0012610D01*
X0046523Y0013455D02*
X0045854D01*
X0046523Y0013384D02*
X0045854D01*
X0046523Y0013314D02*
X0045854D01*
X0046523Y0013243D02*
X0045854D01*
X0046523Y0013172D02*
X0045854D01*
X0046523Y0013101D02*
X0045854D01*
X0046523Y0013030D02*
X0045854D01*
X0046523Y0012960D02*
X0045854D01*
X0046523Y0012889D02*
X0045854D01*
X0046523Y0012818D02*
X0045854D01*
X0046523Y0012747D02*
X0045854D01*
X0046487Y0013595D02*
Y0012610D01*
X0046416Y0013595D02*
Y0012610D01*
X0046345Y0013595D02*
Y0012610D01*
X0046274Y0013595D02*
Y0012610D01*
X0046203Y0013595D02*
Y0012610D01*
X0046133Y0013595D02*
Y0012610D01*
X0046062Y0013595D02*
Y0012610D01*
X0045991Y0013595D02*
Y0012610D01*
X0045920Y0013595D02*
Y0012610D01*
X0046523Y0013526D02*
X0045854D01*
X0046523Y0012677D02*
X0045854D01*
X0046523Y0013595D02*
X0045854D01*
X0046523D02*
Y0012610D01*
X0045854D01*
Y0013595D02*
Y0012610D01*
X0045539Y0013455D02*
X0044870D01*
X0045539Y0013384D02*
X0044870D01*
X0045539Y0013314D02*
X0044870D01*
X0045539Y0013243D02*
X0044870D01*
X0045539Y0013172D02*
X0044870D01*
X0045539Y0013101D02*
X0044870D01*
X0045539Y0013030D02*
X0044870D01*
X0045539Y0012960D02*
X0044870D01*
X0045539Y0012889D02*
X0044870D01*
X0045539Y0012818D02*
X0044870D01*
X0045539Y0012747D02*
X0044870D01*
X0045502Y0013595D02*
Y0012610D01*
X0045431Y0013595D02*
Y0012610D01*
X0045361Y0013595D02*
Y0012610D01*
X0045290Y0013595D02*
Y0012610D01*
X0045219Y0013595D02*
Y0012610D01*
X0045148Y0013595D02*
Y0012610D01*
X0045077Y0013595D02*
Y0012610D01*
X0045007Y0013595D02*
Y0012610D01*
X0044936Y0013595D02*
Y0012610D01*
X0045539Y0013526D02*
X0044870D01*
X0045539Y0012677D02*
X0044870D01*
X0045539Y0013595D02*
X0044870D01*
X0045539D02*
Y0012610D01*
X0044870D01*
Y0013595D02*
Y0012610D01*
X0044515Y0013455D02*
X0043846D01*
X0044515Y0013384D02*
X0043846D01*
X0044515Y0013314D02*
X0043846D01*
X0044515Y0013243D02*
X0043846D01*
X0044515Y0013172D02*
X0043846D01*
X0044515Y0013101D02*
X0043846D01*
X0044515Y0013030D02*
X0043846D01*
X0044515Y0012960D02*
X0043846D01*
X0044515Y0012889D02*
X0043846D01*
X0044515Y0012818D02*
X0043846D01*
X0044515Y0012747D02*
X0043846D01*
X0044479Y0013595D02*
Y0012610D01*
X0044408Y0013595D02*
Y0012610D01*
X0044337Y0013595D02*
Y0012610D01*
X0044266Y0013595D02*
Y0012610D01*
X0044195Y0013595D02*
Y0012610D01*
X0044125Y0013595D02*
Y0012610D01*
X0044054Y0013595D02*
Y0012610D01*
X0043983Y0013595D02*
Y0012610D01*
X0043912Y0013595D02*
Y0012610D01*
X0044515Y0013526D02*
X0043846D01*
X0044515Y0012677D02*
X0043846D01*
X0044515Y0013595D02*
X0043846D01*
X0044515D02*
Y0012610D01*
X0043846D01*
Y0013595D02*
Y0012610D01*
X0043492Y0013455D02*
X0042822D01*
X0043492Y0013384D02*
X0042822D01*
X0043492Y0013314D02*
X0042822D01*
X0043492Y0013243D02*
X0042822D01*
X0043492Y0013172D02*
X0042822D01*
X0043492Y0013101D02*
X0042822D01*
X0043492Y0013030D02*
X0042822D01*
X0043492Y0012960D02*
X0042822D01*
X0043492Y0012889D02*
X0042822D01*
X0043492Y0012818D02*
X0042822D01*
X0043492Y0012747D02*
X0042822D01*
X0043455Y0013595D02*
Y0012610D01*
X0043384Y0013595D02*
Y0012610D01*
X0043313Y0013595D02*
Y0012610D01*
X0043242Y0013595D02*
Y0012610D01*
X0043172Y0013595D02*
Y0012610D01*
X0043101Y0013595D02*
Y0012610D01*
X0043030Y0013595D02*
Y0012610D01*
X0042959Y0013595D02*
Y0012610D01*
X0042889Y0013595D02*
Y0012610D01*
X0043492Y0013526D02*
X0042822D01*
X0043492Y0012677D02*
X0042822D01*
X0043492Y0013595D02*
X0042822D01*
X0043492D02*
Y0012610D01*
X0042822D01*
Y0013595D02*
Y0012610D01*
X0042547Y0013455D02*
X0041877D01*
X0042547Y0013384D02*
X0041877D01*
X0042547Y0013314D02*
X0041877D01*
X0042547Y0013243D02*
X0041877D01*
X0042547Y0013172D02*
X0041877D01*
X0042547Y0013101D02*
X0041877D01*
X0042547Y0013030D02*
X0041877D01*
X0042547Y0012960D02*
X0041877D01*
X0042547Y0012889D02*
X0041877D01*
X0042547Y0012818D02*
X0041877D01*
X0042547Y0012747D02*
X0041877D01*
X0042510Y0013595D02*
Y0012610D01*
X0042439Y0013595D02*
Y0012610D01*
X0042368Y0013595D02*
Y0012610D01*
X0042297Y0013595D02*
Y0012610D01*
X0042227Y0013595D02*
Y0012610D01*
X0042156Y0013595D02*
Y0012610D01*
X0042085Y0013595D02*
Y0012610D01*
X0042014Y0013595D02*
Y0012610D01*
X0041944Y0013595D02*
Y0012610D01*
X0042547Y0013526D02*
X0041877D01*
X0042547Y0012677D02*
X0041877D01*
X0042547Y0013595D02*
X0041877D01*
X0042547D02*
Y0012610D01*
X0041877D01*
Y0013595D02*
Y0012610D01*
X0041523Y0013455D02*
X0040853D01*
X0041523Y0013384D02*
X0040853D01*
X0041523Y0013314D02*
X0040853D01*
X0041523Y0013243D02*
X0040853D01*
X0041523Y0013172D02*
X0040853D01*
X0041523Y0013101D02*
X0040853D01*
X0041523Y0013030D02*
X0040853D01*
X0041523Y0012960D02*
X0040853D01*
X0041523Y0012889D02*
X0040853D01*
X0041523Y0012818D02*
X0040853D01*
X0041523Y0012747D02*
X0040853D01*
X0041486Y0013595D02*
Y0012610D01*
X0041415Y0013595D02*
Y0012610D01*
X0041344Y0013595D02*
Y0012610D01*
X0041273Y0013595D02*
Y0012610D01*
X0041203Y0013595D02*
Y0012610D01*
X0041132Y0013595D02*
Y0012610D01*
X0041061Y0013595D02*
Y0012610D01*
X0040990Y0013595D02*
Y0012610D01*
X0040920Y0013595D02*
Y0012610D01*
X0041523Y0013526D02*
X0040853D01*
X0041523Y0012677D02*
X0040853D01*
X0041523Y0013595D02*
X0040853D01*
X0041523D02*
Y0012610D01*
X0040853D01*
Y0013595D02*
Y0012610D01*
X0040538Y0013455D02*
X0039869D01*
X0040538Y0013384D02*
X0039869D01*
X0040538Y0013314D02*
X0039869D01*
X0040538Y0013243D02*
X0039869D01*
X0040538Y0013172D02*
X0039869D01*
X0040538Y0013101D02*
X0039869D01*
X0040538Y0013030D02*
X0039869D01*
X0040538Y0012960D02*
X0039869D01*
X0040538Y0012889D02*
X0039869D01*
X0040538Y0012818D02*
X0039869D01*
X0040538Y0012747D02*
X0039869D01*
X0040502Y0013595D02*
Y0012610D01*
X0040431Y0013595D02*
Y0012610D01*
X0040360Y0013595D02*
Y0012610D01*
X0040289Y0013595D02*
Y0012610D01*
X0040218Y0013595D02*
Y0012610D01*
X0040148Y0013595D02*
Y0012610D01*
X0040077Y0013595D02*
Y0012610D01*
X0040006Y0013595D02*
Y0012610D01*
X0039935Y0013595D02*
Y0012610D01*
X0040538Y0013526D02*
X0039869D01*
X0040538Y0012677D02*
X0039869D01*
X0040538Y0013595D02*
X0039869D01*
X0040538D02*
Y0012610D01*
X0039869D01*
Y0013595D02*
Y0012610D01*
X0039515Y0013455D02*
X0038845D01*
X0039515Y0013384D02*
X0038845D01*
X0039515Y0013314D02*
X0038845D01*
X0039515Y0013243D02*
X0038845D01*
X0039515Y0013172D02*
X0038845D01*
X0039515Y0013101D02*
X0038845D01*
X0039515Y0013030D02*
X0038845D01*
X0039515Y0012960D02*
X0038845D01*
X0039515Y0012889D02*
X0038845D01*
X0039515Y0012818D02*
X0038845D01*
X0039515Y0012747D02*
X0038845D01*
X0039478Y0013595D02*
Y0012610D01*
X0039407Y0013595D02*
Y0012610D01*
X0039336Y0013595D02*
Y0012610D01*
X0039265Y0013595D02*
Y0012610D01*
X0039195Y0013595D02*
Y0012610D01*
X0039124Y0013595D02*
Y0012610D01*
X0039053Y0013595D02*
Y0012610D01*
X0038982Y0013595D02*
Y0012610D01*
X0038912Y0013595D02*
Y0012610D01*
X0039515Y0013526D02*
X0038845D01*
X0039515Y0012677D02*
X0038845D01*
X0039515Y0013595D02*
X0038845D01*
X0039515D02*
Y0012610D01*
X0038845D01*
Y0013595D02*
Y0012610D01*
X0038491Y0013455D02*
X0037822D01*
X0038491Y0013384D02*
X0037822D01*
X0038491Y0013314D02*
X0037822D01*
X0038491Y0013243D02*
X0037822D01*
X0038491Y0013172D02*
X0037822D01*
X0038491Y0013101D02*
X0037822D01*
X0038491Y0013030D02*
X0037822D01*
X0038491Y0012960D02*
X0037822D01*
X0038491Y0012889D02*
X0037822D01*
X0038491Y0012818D02*
X0037822D01*
X0038491Y0012747D02*
X0037822D01*
X0038454Y0013595D02*
Y0012610D01*
X0038383Y0013595D02*
Y0012610D01*
X0038313Y0013595D02*
Y0012610D01*
X0038242Y0013595D02*
Y0012610D01*
X0038171Y0013595D02*
Y0012610D01*
X0038100Y0013595D02*
Y0012610D01*
X0038029Y0013595D02*
Y0012610D01*
X0037959Y0013595D02*
Y0012610D01*
X0037888Y0013595D02*
Y0012610D01*
X0038491Y0013526D02*
X0037822D01*
X0038491Y0012677D02*
X0037822D01*
X0038491Y0013595D02*
X0037822D01*
X0038491D02*
Y0012610D01*
X0037822D01*
Y0013595D02*
Y0012610D01*
X0052193Y0013555D02*
Y0015878D01*
X0052311Y0015760D02*
Y0013595D01*
X0052075D02*
Y0015760D01*
X0052193Y0015878D01*
X0052311Y0015760D01*
Y0015681D02*
X0052075D01*
X0051170Y0013555D02*
Y0015878D01*
X0051288Y0015760D02*
Y0013595D01*
X0051051D02*
Y0015760D01*
X0051170Y0015878D01*
X0051288Y0015760D01*
Y0015681D02*
X0051051D01*
X0050185Y0013555D02*
Y0015878D01*
X0050303Y0015760D02*
Y0013595D01*
X0050067D02*
Y0015760D01*
X0050185Y0015878D01*
X0050303Y0015760D01*
Y0015681D02*
X0050067D01*
X0049201Y0013555D02*
Y0015878D01*
X0049319Y0015760D02*
Y0013595D01*
X0049083D02*
Y0015760D01*
X0049201Y0015878D01*
X0049319Y0015760D01*
Y0015681D02*
X0049083D01*
X0048177Y0013555D02*
Y0015878D01*
X0048295Y0015760D02*
Y0013595D01*
X0048059D02*
Y0015760D01*
X0048177Y0015878D01*
X0048295Y0015760D01*
Y0015681D02*
X0048059D01*
X0047193Y0013555D02*
Y0015878D01*
X0047311Y0015760D02*
Y0013595D01*
X0047075D02*
Y0015760D01*
X0047193Y0015878D01*
X0047311Y0015760D01*
Y0015681D02*
X0047075D01*
X0046208Y0013555D02*
Y0015878D01*
X0046326Y0015760D02*
Y0013595D01*
X0046090D02*
Y0015760D01*
X0046208Y0015878D01*
X0046326Y0015760D01*
Y0015681D02*
X0046090D01*
X0045224Y0013555D02*
Y0015878D01*
X0045342Y0015760D02*
Y0013595D01*
X0045106D02*
Y0015760D01*
X0045224Y0015878D01*
X0045342Y0015760D01*
Y0015681D02*
X0045106D01*
X0044161Y0013555D02*
Y0015878D01*
X0044279Y0015760D02*
Y0013595D01*
X0044043D02*
Y0015760D01*
X0044161Y0015878D01*
X0044279Y0015760D01*
Y0015681D02*
X0044043D01*
X0043137Y0013555D02*
Y0015878D01*
X0043255Y0015760D02*
Y0013595D01*
X0043019D02*
Y0015760D01*
X0043137Y0015878D01*
X0043255Y0015760D01*
Y0015681D02*
X0043019D01*
X0042232Y0013555D02*
Y0015878D01*
X0042350Y0015760D02*
Y0013595D01*
X0042113D02*
Y0015760D01*
X0042232Y0015878D01*
X0042350Y0015760D01*
Y0015681D02*
X0042113D01*
X0041168Y0013555D02*
Y0015878D01*
X0041287Y0015760D02*
Y0013595D01*
X0041050D02*
Y0015760D01*
X0041168Y0015878D01*
X0041287Y0015760D01*
Y0015681D02*
X0041050D01*
X0040184Y0013555D02*
Y0015878D01*
X0040302Y0015760D02*
Y0013595D01*
X0040066D02*
Y0015760D01*
X0040184Y0015878D01*
X0040302Y0015760D01*
Y0015681D02*
X0040066D01*
X0039160Y0013555D02*
Y0015878D01*
X0039278Y0015760D02*
Y0013595D01*
X0039042D02*
Y0015760D01*
X0039160Y0015878D01*
X0039278Y0015760D01*
Y0015681D02*
X0039042D01*
X0038137Y0013555D02*
Y0015878D01*
X0038255Y0015760D02*
Y0013595D01*
X0038018D02*
Y0015760D01*
X0038137Y0015878D01*
X0038255Y0015760D01*
Y0015681D02*
X0038018D01*
X0052154Y0012610D02*
Y0010917D01*
X0052036D01*
Y0012610D01*
X0052154Y0010917D02*
X0052272D01*
Y0012610D01*
X0051170D02*
Y0010917D01*
X0051051D01*
Y0012610D01*
X0051170Y0010917D02*
X0051288D01*
Y0012610D01*
X0050185Y0012650D02*
Y0010957D01*
X0050067D01*
Y0012650D01*
X0050185Y0010957D02*
X0050303D01*
Y0012650D01*
X0049201Y0012610D02*
Y0010917D01*
X0049083D01*
Y0012610D01*
X0049201Y0010917D02*
X0049319D01*
Y0012610D01*
X0048177D02*
Y0010917D01*
X0048059D01*
Y0012610D01*
X0048177Y0010917D02*
X0048295D01*
Y0012610D01*
X0047193D02*
Y0010917D01*
X0047075D01*
Y0012610D01*
X0047193Y0010917D02*
X0047311D01*
Y0012610D01*
X0046208D02*
Y0010917D01*
X0046090D01*
Y0012610D01*
X0046208Y0010917D02*
X0046326D01*
Y0012610D01*
X0045224D02*
Y0010917D01*
X0045106D01*
Y0012610D01*
X0045224Y0010917D02*
X0045342D01*
Y0012610D01*
X0044161D02*
Y0010917D01*
X0044043D01*
Y0012610D01*
X0044161Y0010917D02*
X0044279D01*
Y0012610D01*
X0043137D02*
Y0010917D01*
X0043019D01*
Y0012610D01*
X0043137Y0010917D02*
X0043255D01*
Y0012610D01*
X0042232Y0012650D02*
Y0010957D01*
X0042113D01*
Y0012650D01*
X0042232Y0010957D02*
X0042350D01*
Y0012650D01*
X0041168Y0012610D02*
Y0010917D01*
X0041050D01*
Y0012610D01*
X0041168Y0010917D02*
X0041287D01*
Y0012610D01*
X0040184D02*
Y0010917D01*
X0040066D01*
Y0012610D01*
X0040184Y0010917D02*
X0040302D01*
Y0012610D01*
X0039160D02*
Y0010917D01*
X0039042D01*
Y0012610D01*
X0039160Y0010917D02*
X0039278D01*
Y0012610D01*
X0038137D02*
Y0010917D01*
X0038018D01*
Y0012610D01*
X0038137Y0010917D02*
X0038255D01*
Y0012610D01*
M02*
