*
G04 Mass Parameters ***
*
G04 Image ***
*
%INE:\00.LAVORI IN CORSO\METALTRONICA\25-335-0 ( CONTROLLO GENERATORE MAMMOGRAFICO)\25-335-0.DRD*%
%ICAS*%
%MOIN*%
%IPPOS*%
%ASAXBY*%
G74*%FSLAN2X34Y34*%
*
G04 Aperture Definitions ***
*
%AMTHERMAL53*
1,1,0.1172,0,0,*
1,0,0.0933,0,0,*
21,0,0.1173,0.0100,0,0,225.0*
21,0,0.1173,0.0100,0,0,315.0*%
%AMTHERMAL58*
1,1,0.1133,0,0,*
1,0,0.0894,0,0,*
21,0,0.1134,0.0100,0,0,45.0*
21,0,0.1134,0.0100,0,0,135.0*%
%AMTHERMAL63*
1,1,0.1054,0,0,*
1,0,0.0815,0,0,*
21,0,0.1055,0.0100,0,0,45.0*
21,0,0.1055,0.0100,0,0,135.0*%
%ADD10C,0.1260*%
%ADD11R,0.0380X0.0320*%
%ADD12R,0.0510X0.1024*%
%ADD13R,0.0320X0.0380*%
%ADD14R,0.0905X0.0886*%
%ADD15R,0.0501X0.0404*%
%ADD16R,0.0400X0.0710*%
%ADD17R,0.0500X0.0400*%
%ADD18R,0.0197X0.0315*%
%ADD19R,0.0550X0.0350*%
%ADD20O,0.0620X0.0800*%
%ADD21R,0.0620X0.0800*%
%ADD22R,0.0236X0.0512*%
%ADD23R,0.0413X0.0236*%
%ADD24R,0.0400X0.0500*%
%ADD25R,0.0710X0.0400*%
%ADD26C,0.0866*%
%ADD27O,0.0650X0.0256*%
%ADD28R,0.0354X0.0512*%
%ADD29R,0.0680X0.1580*%
%ADD30R,0.0680X0.0550*%
%ADD31R,0.0270X0.0500*%
%ADD32R,0.0400X0.0138*%
%ADD33C,0.0610*%
%ADD34R,0.0610X0.0610*%
%ADD35R,0.0669X0.0315*%
%ADD36C,0.0620*%
%ADD37R,0.0620X0.0620*%
%ADD38O,0.0700X0.0110*%
%ADD39R,0.0700X0.0110*%
%ADD40O,0.0110X0.0700*%
%ADD41R,0.0110X0.0700*%
%ADD42C,0.0100*%
%ADD43C,0.0236*%
%ADD44C,0.0080*%
%ADD45C,0.0236*%
%ADD46C,0.0120*%
%ADD47C,0.0150*%
%ADD48C,0.0250*%
%ADD49C,0.0060*%
%ADD50C,0.0236*%
%ADD51C,0.1575*%
%ADD52C,0.1100*%
%ADD53THERMAL53*%
%ADD54C,0.1100*%
%ADD55R,0.1100X0.1100*%
%ADD56C,0.0984*%
%ADD57R,0.0984X0.0984*%
%ADD58THERMAL58*%
%ADD59C,0.0984*%
%ADD60C,0.0910*%
%ADD61R,0.0910X0.0910*%
%ADD62C,0.0709*%
%ADD63THERMAL63*%
%ADD64R,0.0709X0.0709*%
%ADD65C,0.0394*%
%ADD66C,0.0050*%
%ADD67C,0.0394*%
%ADD68C,0.0050*%
%ADD69C,0.0800*%
%ADD70R,0.0800X0.0800*%
%ADD71C,0.0079*%
%ADD72C,0.0010*%
*
G04 Plot Data ***
*
G54D42*
G01X0023458Y-0018500D02*
X0022792D01*
X0023125Y-0017833D01*
X0023292D01*
Y-0018833D01*
X0022008D02*
X0022508Y-0017833D01*
X0021842D01*
X0021558Y-0018500D02*
X0020892D01*
X0021225Y-0017833D01*
X0021392D01*
Y-0018833D01*
X0011062D02*
X0010479D01*
Y-0017833D01*
X0010196Y-0018500D02*
X0009529D01*
X0010196Y-0018833D02*
Y-0018333D01*
X0009946Y-0017833D01*
X0009779D01*
X0009529Y-0018333D01*
Y-0018833D01*
X0008912D02*
Y-0017833D01*
X0009246D02*
X0008579D01*
X0007712Y-0018833D02*
X0007629Y-0018667D01*
Y-0018000D01*
X0007712Y-0017833D01*
X0008212D01*
X0008296Y-0018000D01*
Y-0018667D01*
X0008212Y-0018833D01*
X0007712D01*
X0007012D02*
Y-0017833D01*
X0007346D02*
X0006679D01*
X0031314Y-0016972D02*
Y-0016306D01*
X0031258Y-0016972D02*
X0031591D01*
X0031703Y-0016750D01*
Y-0016528D01*
X0031591Y-0016306D01*
X0031258D01*
X0030891Y-0016639D02*
X0030558D01*
X0031003Y-0016972D02*
X0030558D01*
Y-0016306D01*
X0031003D01*
X0030080Y-0016972D02*
Y-0016306D01*
X0030303D02*
X0029858D01*
X0029603Y-0016750D02*
X0029158D01*
X0029603Y-0016972D02*
Y-0016639D01*
X0029436Y-0016306D01*
X0029325D01*
X0029158Y-0016639D01*
Y-0016972D01*
X0028903D02*
X0028514D01*
Y-0016306D01*
X0027814Y-0016639D02*
X0028147D01*
X0028258Y-0016528D01*
Y-0016417D01*
X0028147Y-0016306D01*
X0027814D01*
Y-0016972D01*
X0027558Y-0016639D02*
X0027114D01*
X0026858Y-0016306D02*
Y-0016972D01*
X0026747Y-0016861D01*
X0026525Y-0016417D01*
X0026414Y-0016306D01*
Y-0016972D01*
X0025769D02*
X0025714Y-0016861D01*
Y-0016417D01*
X0025769Y-0016306D01*
X0026103D01*
X0026158Y-0016417D01*
Y-0016861D01*
X0026103Y-0016972D01*
X0025769D01*
X0025458Y-0016306D02*
Y-0016972D01*
X0025347Y-0016861D01*
X0025125Y-0016417D01*
X0025014Y-0016306D01*
Y-0016972D01*
X0023458D02*
X0023014D01*
X0023458Y-0016528D01*
Y-0016417D01*
X0023403Y-0016306D01*
X0023069D01*
X0023014Y-0016417D01*
X0009619Y-0016972D02*
Y-0016639D01*
X0009842Y-0016972D02*
Y-0016639D01*
X0009786Y-0016528D01*
X0009675D01*
X0009619Y-0016639D01*
X0009564Y-0016528D01*
X0009453D01*
X0009397Y-0016639D01*
Y-0016972D01*
X0008919D02*
Y-0016639D01*
X0009142Y-0016972D02*
Y-0016639D01*
X0009086Y-0016528D01*
X0008975D01*
X0008919Y-0016639D01*
X0008864Y-0016528D01*
X0008753D01*
X0008697Y-0016639D01*
Y-0016972D01*
X0007214D02*
X0007103Y-0016861D01*
X0007047Y-0016750D01*
Y-0016528D01*
X0007103Y-0016417D01*
X0007214Y-0016306D01*
X0007325D01*
X0007436Y-0016417D01*
X0007492Y-0016528D01*
Y-0016750D01*
X0007436Y-0016861D01*
X0007325Y-0016972D01*
X0007214D01*
X0006514D02*
X0006403Y-0016861D01*
X0006347Y-0016750D01*
Y-0016528D01*
X0006403Y-0016417D01*
X0006514Y-0016306D01*
X0006625D01*
X0006736Y-0016417D01*
X0006792Y-0016528D01*
Y-0016750D01*
X0006736Y-0016861D01*
X0006625Y-0016972D01*
X0006514D01*
X0006092D02*
X0005647D01*
X0006092Y-0016528D01*
Y-0016417D01*
X0006036Y-0016306D01*
X0005703D01*
X0005647Y-0016417D01*
X0005281Y-0016972D02*
X0005392D01*
Y-0016861D01*
X0005281D01*
Y-0016972D01*
X0004469Y-0016861D02*
X0004581Y-0016972D01*
X0004803D01*
X0004914Y-0016861D01*
Y-0016750D01*
X0004692Y-0016528D01*
X0004914Y-0016306D01*
X0004469D01*
X0023069Y-0015139D02*
X0023403D01*
X0023458Y-0015250D01*
Y-0015361D01*
X0023403Y-0015472D01*
X0023069D01*
X0023014Y-0015361D01*
Y-0015250D01*
X0023236Y-0014806D01*
X0022314Y-0015361D02*
X0022425Y-0015472D01*
X0022647D01*
X0022758Y-0015361D01*
Y-0015250D01*
X0022536Y-0015028D01*
X0022758Y-0014806D01*
X0022314D01*
X0009619Y-0015472D02*
Y-0015139D01*
X0009842Y-0015472D02*
Y-0015139D01*
X0009786Y-0015028D01*
X0009675D01*
X0009619Y-0015139D01*
X0009564Y-0015028D01*
X0009453D01*
X0009397Y-0015139D01*
Y-0015472D01*
X0008919D02*
Y-0015139D01*
X0009142Y-0015472D02*
Y-0015139D01*
X0009086Y-0015028D01*
X0008975D01*
X0008919Y-0015139D01*
X0008864Y-0015028D01*
X0008753D01*
X0008697Y-0015139D01*
Y-0015472D01*
X0007214D02*
X0007103Y-0015361D01*
X0007047Y-0015250D01*
Y-0015028D01*
X0007103Y-0014917D01*
X0007214Y-0014806D01*
X0007325D01*
X0007436Y-0014917D01*
X0007492Y-0015028D01*
Y-0015250D01*
X0007436Y-0015361D01*
X0007325Y-0015472D01*
X0007214D01*
X0006514D02*
X0006403Y-0015361D01*
X0006347Y-0015250D01*
Y-0015028D01*
X0006403Y-0014917D01*
X0006514Y-0014806D01*
X0006625D01*
X0006736Y-0014917D01*
X0006792Y-0015028D01*
Y-0015250D01*
X0006736Y-0015361D01*
X0006625Y-0015472D01*
X0006514D01*
X0006092D02*
X0005869D01*
X0005980D02*
Y-0014806D01*
X0005869Y-0014917D01*
X0005392Y-0015472D02*
X0005503D01*
Y-0015361D01*
X0005392D01*
Y-0015472D01*
X0005025D02*
X0004803D01*
X0004914D02*
Y-0014806D01*
X0004803Y-0014917D01*
X0023458Y-0013972D02*
X0023236D01*
X0023347D02*
Y-0013306D01*
X0023236Y-0013417D01*
X0022869Y-0013972D02*
X0022647D01*
X0022758D02*
Y-0013306D01*
X0022647Y-0013417D01*
X0009619Y-0013972D02*
Y-0013639D01*
X0009842Y-0013972D02*
Y-0013639D01*
X0009786Y-0013528D01*
X0009675D01*
X0009619Y-0013639D01*
X0009564Y-0013528D01*
X0009453D01*
X0009397Y-0013639D01*
Y-0013972D01*
X0008919D02*
Y-0013639D01*
X0009142Y-0013972D02*
Y-0013639D01*
X0009086Y-0013528D01*
X0008975D01*
X0008919Y-0013639D01*
X0008864Y-0013528D01*
X0008753D01*
X0008697Y-0013639D01*
Y-0013972D01*
X0007214D02*
X0007103Y-0013861D01*
X0007047Y-0013750D01*
Y-0013528D01*
X0007103Y-0013417D01*
X0007214Y-0013306D01*
X0007325D01*
X0007436Y-0013417D01*
X0007492Y-0013528D01*
Y-0013750D01*
X0007436Y-0013861D01*
X0007325Y-0013972D01*
X0007214D01*
X0006514D02*
X0006403Y-0013861D01*
X0006347Y-0013750D01*
Y-0013528D01*
X0006403Y-0013417D01*
X0006514Y-0013306D01*
X0006625D01*
X0006736Y-0013417D01*
X0006792Y-0013528D01*
Y-0013750D01*
X0006736Y-0013861D01*
X0006625Y-0013972D01*
X0006514D01*
X0005814D02*
X0005703Y-0013861D01*
X0005647Y-0013750D01*
Y-0013528D01*
X0005703Y-0013417D01*
X0005814Y-0013306D01*
X0005925D01*
X0006036Y-0013417D01*
X0006092Y-0013528D01*
Y-0013750D01*
X0006036Y-0013861D01*
X0005925Y-0013972D01*
X0005814D01*
X0005281D02*
X0005392D01*
Y-0013861D01*
X0005281D01*
Y-0013972D01*
X0004914D02*
X0004692D01*
X0004803D02*
Y-0013306D01*
X0004692Y-0013417D01*
X0023458Y-0012472D02*
X0023014D01*
X0023458Y-0012028D01*
Y-0011917D01*
X0023403Y-0011806D01*
X0023069D01*
X0023014Y-0011917D01*
X0022758Y-0012472D02*
X0022536D01*
X0022647D02*
Y-0011806D01*
X0022536Y-0011917D01*
X0009619Y-0012472D02*
Y-0012139D01*
X0009842Y-0012472D02*
Y-0012139D01*
X0009786Y-0012028D01*
X0009675D01*
X0009619Y-0012139D01*
X0009564Y-0012028D01*
X0009453D01*
X0009397Y-0012139D01*
Y-0012472D01*
X0008919D02*
Y-0012139D01*
X0009142Y-0012472D02*
Y-0012139D01*
X0009086Y-0012028D01*
X0008975D01*
X0008919Y-0012139D01*
X0008864Y-0012028D01*
X0008753D01*
X0008697Y-0012139D01*
Y-0012472D01*
X0007214D02*
X0007103Y-0012361D01*
X0007047Y-0012250D01*
Y-0012028D01*
X0007103Y-0011917D01*
X0007214Y-0011806D01*
X0007325D01*
X0007436Y-0011917D01*
X0007492Y-0012028D01*
Y-0012250D01*
X0007436Y-0012361D01*
X0007325Y-0012472D01*
X0007214D01*
X0006514D02*
X0006403Y-0012361D01*
X0006347Y-0012250D01*
Y-0012028D01*
X0006403Y-0011917D01*
X0006514Y-0011806D01*
X0006625D01*
X0006736Y-0011917D01*
X0006792Y-0012028D01*
Y-0012250D01*
X0006736Y-0012361D01*
X0006625Y-0012472D01*
X0006514D01*
X0006036Y-0012139D02*
X0006092Y-0012028D01*
Y-0011917D01*
X0006036Y-0011806D01*
X0005703D01*
X0005647Y-0011917D01*
Y-0012028D01*
X0005703Y-0012139D01*
X0006036D01*
X0006092Y-0012250D01*
Y-0012361D01*
X0006036Y-0012472D01*
X0005703D01*
X0005647Y-0012361D01*
Y-0012250D01*
X0005703Y-0012139D01*
X0005281Y-0012472D02*
X0005392D01*
Y-0012361D01*
X0005281D01*
Y-0012472D01*
X0004636D02*
X0004525Y-0012361D01*
X0004469Y-0012250D01*
Y-0012028D01*
X0004525Y-0011917D01*
X0004636Y-0011806D01*
X0004747D01*
X0004858Y-0011917D01*
X0004914Y-0012028D01*
Y-0012250D01*
X0004858Y-0012361D01*
X0004747Y-0012472D01*
X0004636D01*
X0023014Y-0010861D02*
X0023125Y-0010972D01*
X0023347D01*
X0023458Y-0010861D01*
Y-0010750D01*
X0023236Y-0010528D01*
X0023458Y-0010306D01*
X0023014D01*
X0022758Y-0010972D02*
X0022536D01*
X0022647D02*
Y-0010306D01*
X0022536Y-0010417D01*
X0022169Y-0010750D02*
X0021725D01*
X0021947Y-0010306D01*
X0022058D01*
Y-0010972D01*
X0009619D02*
Y-0010639D01*
X0009842Y-0010972D02*
Y-0010639D01*
X0009786Y-0010528D01*
X0009675D01*
X0009619Y-0010639D01*
X0009564Y-0010528D01*
X0009453D01*
X0009397Y-0010639D01*
Y-0010972D01*
X0008919D02*
Y-0010639D01*
X0009142Y-0010972D02*
Y-0010639D01*
X0009086Y-0010528D01*
X0008975D01*
X0008919Y-0010639D01*
X0008864Y-0010528D01*
X0008753D01*
X0008697Y-0010639D01*
Y-0010972D01*
X0007214D02*
X0007103Y-0010861D01*
X0007047Y-0010750D01*
Y-0010528D01*
X0007103Y-0010417D01*
X0007214Y-0010306D01*
X0007325D01*
X0007436Y-0010417D01*
X0007492Y-0010528D01*
Y-0010750D01*
X0007436Y-0010861D01*
X0007325Y-0010972D01*
X0007214D01*
X0006514D02*
X0006403Y-0010861D01*
X0006347Y-0010750D01*
Y-0010528D01*
X0006403Y-0010417D01*
X0006514Y-0010306D01*
X0006625D01*
X0006736Y-0010417D01*
X0006792Y-0010528D01*
Y-0010750D01*
X0006736Y-0010861D01*
X0006625Y-0010972D01*
X0006514D01*
X0006092D02*
X0005647D01*
X0006092Y-0010528D01*
Y-0010417D01*
X0006036Y-0010306D01*
X0005703D01*
X0005647Y-0010417D01*
X0005281Y-0010972D02*
X0005392D01*
Y-0010861D01*
X0005281D01*
Y-0010972D01*
X0004636D02*
X0004525Y-0010861D01*
X0004469Y-0010750D01*
Y-0010528D01*
X0004525Y-0010417D01*
X0004636Y-0010306D01*
X0004747D01*
X0004858Y-0010417D01*
X0004914Y-0010528D01*
Y-0010750D01*
X0004858Y-0010861D01*
X0004747Y-0010972D01*
X0004636D01*
X0031862Y-0008833D02*
X0031362D01*
X0032029Y-0009333D02*
X0031362D01*
Y-0008333D01*
X0032029D01*
X0030746Y-0009333D02*
Y-0008333D01*
X0031079D02*
X0030412D01*
X0029546Y-0009333D02*
X0029462Y-0009167D01*
Y-0008500D01*
X0029546Y-0008333D01*
X0030046D01*
X0030129Y-0008500D01*
Y-0009167D01*
X0030046Y-0009333D01*
X0029546D01*
X0029179Y-0008333D02*
Y-0009333D01*
X0029012Y-0009167D01*
X0028679Y-0008500D01*
X0028512Y-0008333D01*
Y-0009333D01*
X0022675D02*
Y-0008833D01*
X0023008Y-0008333D02*
X0022758Y-0008833D01*
X0022592D01*
X0022342Y-0008333D01*
X0021725Y-0009333D02*
Y-0008333D01*
X0022058D02*
X0021392D01*
X0020775Y-0009000D02*
X0021108Y-0009333D01*
X0020442Y-0009167D02*
X0020525Y-0009333D01*
X0020858D01*
X0020942Y-0009167D01*
X0021108Y-0009000D01*
Y-0008500D01*
X0021025Y-0008333D01*
X0020525D01*
X0020442Y-0008500D01*
Y-0009167D01*
X0016158Y-0009333D02*
X0015575D01*
Y-0008333D01*
X0014708Y-0009333D02*
X0014625Y-0009167D01*
Y-0008500D01*
X0014708Y-0008333D01*
X0015208D01*
X0015292Y-0008500D01*
Y-0009167D01*
X0015208Y-0009333D01*
X0014708D01*
X0014008D02*
Y-0008333D01*
X0014342D02*
X0013675D01*
X0008337Y-0009333D02*
Y-0008333D01*
X0008171Y-0008500D01*
X0008004Y-0008833D01*
X0007837Y-0008500D01*
X0007671Y-0008333D01*
Y-0009333D01*
X0007387Y-0009000D02*
X0006721D01*
X0007387Y-0009333D02*
Y-0008833D01*
X0007137Y-0008333D01*
X0006971D01*
X0006721Y-0008833D01*
Y-0009333D01*
X0006437D02*
X0006104D01*
X0006271D02*
Y-0008333D01*
X0006437D02*
X0006104D01*
X0005071Y-0009333D02*
Y-0008333D01*
X0004987Y-0009333D02*
X0005487D01*
X0005654Y-0009000D01*
Y-0008667D01*
X0005487Y-0008333D01*
X0004987D01*
X0001900Y-0009333D02*
Y-0008333D01*
X0001733Y-0008500D01*
X0001567Y-0008833D01*
X0001400Y-0008500D01*
X0001233Y-0008333D01*
Y-0009333D01*
X0000617D02*
Y-0008833D01*
X0000950Y-0008333D02*
X0000700Y-0008833D01*
X0000533D01*
X0000283Y-0008333D01*
X0000000Y-0008500D02*
X-0000083Y-0008333D01*
X-0000583D01*
X-0000667Y-0008500D01*
Y-0008667D01*
X-0000583Y-0008833D01*
X-0000083D01*
X0000000Y-0009000D01*
Y-0009167D01*
X-0000083Y-0009333D01*
X-0000583D01*
X-0000667Y-0009167D01*
X0022187Y-0007333D02*
Y-0006333D01*
X0022521D02*
X0021854D01*
X0021321Y-0006833D02*
X0021571Y-0007333D01*
X0020904Y-0006833D02*
X0021404D01*
X0021571Y-0006667D01*
Y-0006500D01*
X0021404Y-0006333D01*
X0020904D01*
Y-0007333D01*
X0020621Y-0007000D02*
X0019954D01*
X0020621Y-0007333D02*
Y-0006833D01*
X0020371Y-0006333D01*
X0020204D01*
X0019954Y-0006833D01*
Y-0007333D01*
X0019671Y-0006833D02*
X0019004D01*
X0019671Y-0007333D02*
Y-0006333D01*
X0019004Y-0007333D02*
Y-0006333D01*
X0018721Y-0007167D02*
X0018637Y-0007333D01*
X0018137D01*
X0018054Y-0007167D01*
Y-0006500D01*
X0018137Y-0006333D01*
X0018637D01*
X0018721Y-0006500D01*
X0016446Y-0007333D02*
X0015862D01*
Y-0006333D01*
X0015579Y-0007333D02*
X0014996D01*
Y-0006333D01*
X0014712Y-0007333D02*
X0014379D01*
X0014546D02*
Y-0006333D01*
X0014712D02*
X0014379D01*
X0013679Y-0006833D02*
X0013929Y-0007333D01*
X0013262Y-0006833D02*
X0013762D01*
X0013929Y-0006667D01*
Y-0006500D01*
X0013762Y-0006333D01*
X0013262D01*
Y-0007333D01*
X0012396D02*
Y-0006333D01*
X0012312Y-0007333D02*
X0012812D01*
X0012979Y-0007000D01*
Y-0006667D01*
X0012812Y-0006333D01*
X0012312D01*
X0030250Y0010250D02*
Y0009750D01*
X0030750Y0010250D02*
X0030250D01*
X0030750Y0009750D02*
Y0010250D01*
X0030250Y0009750D02*
X0030750D01*
Y0010250D02*
X0030250Y0009750D01*
X0030750D02*
X0030250Y0010250D01*
X0027600Y0010700D02*
Y0010200D01*
X0028100Y0010700D02*
X0027600D01*
X0028100Y0010200D02*
Y0010700D01*
X0027600Y0010200D02*
X0028100D01*
Y0010700D02*
X0027600Y0010200D01*
X0028100D02*
X0027600Y0010700D01*
X0023200Y0006650D02*
Y0006150D01*
X0023700Y0006650D02*
X0023200D01*
X0023700Y0006150D02*
Y0006650D01*
X0023200Y0006150D02*
X0023700D01*
Y0006650D02*
X0023200Y0006150D01*
X0023700D02*
X0023200Y0006650D01*
X0026500Y0010100D02*
Y0009600D01*
X0027000Y0010100D02*
X0026500D01*
X0027000Y0009600D02*
Y0010100D01*
X0026500Y0009600D02*
X0027000D01*
Y0010100D02*
X0026500Y0009600D01*
X0027000D02*
X0026500Y0010100D01*
X0026600Y0010700D02*
Y0010200D01*
X0027100Y0010700D02*
X0026600D01*
X0027100Y0010200D02*
Y0010700D01*
X0026600Y0010200D02*
X0027100D01*
Y0010700D02*
X0026600Y0010200D01*
X0027100D02*
X0026600Y0010700D01*
X0004400Y0006350D02*
Y0005850D01*
X0004900Y0006350D02*
X0004400D01*
X0004900Y0005850D02*
Y0006350D01*
X0004400Y0005850D02*
X0004900D01*
Y0006350D02*
X0004400Y0005850D01*
X0004900D02*
X0004400Y0006350D01*
X0003800Y0003600D02*
Y0003100D01*
X0004300Y0003600D02*
X0003800D01*
X0004300Y0003100D02*
Y0003600D01*
X0003800Y0003100D02*
X0004300D01*
Y0003600D02*
X0003800Y0003100D01*
X0004300D02*
X0003800Y0003600D01*
X0003550Y0007250D02*
Y0006750D01*
X0004050Y0007250D02*
X0003550D01*
X0004050Y0006750D02*
Y0007250D01*
X0003550Y0006750D02*
X0004050D01*
Y0007250D02*
X0003550Y0006750D01*
X0004050D02*
X0003550Y0007250D01*
X0003800Y0003600D02*
Y0003100D01*
X0004300Y0003600D02*
X0003800D01*
X0004300Y0003100D02*
Y0003600D01*
X0003800Y0003100D02*
X0004300D01*
Y0003600D02*
X0003800Y0003100D01*
X0004300D02*
X0003800Y0003600D01*
X0023150Y0002950D02*
Y0002450D01*
X0023650Y0002950D02*
X0023150D01*
X0023650Y0002450D02*
Y0002950D01*
X0023150Y0002450D02*
X0023650D01*
Y0002950D02*
X0023150Y0002450D01*
X0023650D02*
X0023150Y0002950D01*
X0024550Y0011030D02*
Y0010530D01*
X0025050Y0011030D02*
X0024550D01*
X0025050Y0010530D02*
Y0011030D01*
X0024550Y0010530D02*
X0025050D01*
Y0011030D02*
X0024550Y0010530D01*
X0025050D02*
X0024550Y0011030D01*
Y0008500D02*
Y0008000D01*
X0025050Y0008500D02*
X0024550D01*
X0025050Y0008000D02*
Y0008500D01*
X0024550Y0008000D02*
X0025050D01*
Y0008500D02*
X0024550Y0008000D01*
X0025050D02*
X0024550Y0008500D01*
Y0008000D01*
X0025050Y0008500D02*
X0024550D01*
X0025050Y0008000D02*
Y0008500D01*
X0024550Y0008000D02*
X0025050D01*
Y0008500D02*
X0024550Y0008000D01*
X0025050D02*
X0024550Y0008500D01*
X0027600Y0011100D02*
Y0010600D01*
X0028100Y0011100D02*
X0027600D01*
X0028100Y0010600D02*
Y0011100D01*
X0027600Y0010600D02*
X0028100D01*
Y0011100D02*
X0027600Y0010600D01*
X0028100D02*
X0027600Y0011100D01*
Y0011700D02*
Y0011200D01*
X0028100Y0011700D02*
X0027600D01*
X0028100Y0011200D02*
Y0011700D01*
X0027600Y0011200D02*
X0028100D01*
Y0011700D02*
X0027600Y0011200D01*
X0028100D02*
X0027600Y0011700D01*
X0024550Y0011030D02*
Y0010530D01*
X0025050Y0011030D02*
X0024550D01*
X0025050Y0010530D02*
Y0011030D01*
X0024550Y0010530D02*
X0025050D01*
Y0011030D02*
X0024550Y0010530D01*
X0025050D02*
X0024550Y0011030D01*
Y0012000D02*
Y0011500D01*
X0025050Y0012000D02*
X0024550D01*
X0025050Y0011500D02*
Y0012000D01*
X0024550Y0011500D02*
X0025050D01*
Y0012000D02*
X0024550Y0011500D01*
X0025050D02*
X0024550Y0012000D01*
X0043400Y0013350D02*
Y0012850D01*
X0043900Y0013350D02*
X0043400D01*
X0043900Y0012850D02*
Y0013350D01*
X0043400Y0012850D02*
X0043900D01*
Y0013350D02*
X0043400Y0012850D01*
X0043900D02*
X0043400Y0013350D01*
X0043300Y0007750D02*
Y0007250D01*
X0043800Y0007750D02*
X0043300D01*
X0043800Y0007250D02*
Y0007750D01*
X0043300Y0007250D02*
X0043800D01*
Y0007750D02*
X0043300Y0007250D01*
X0043800D02*
X0043300Y0007750D01*
X0051900Y0005100D02*
Y0004600D01*
X0052400Y0005100D02*
X0051900D01*
X0052400Y0004600D02*
Y0005100D01*
X0051900Y0004600D02*
X0052400D01*
Y0005100D02*
X0051900Y0004600D01*
X0052400D02*
X0051900Y0005100D01*
Y0008500D02*
Y0008000D01*
X0052400Y0008500D02*
X0051900D01*
X0052400Y0008000D02*
Y0008500D01*
X0051900Y0008000D02*
X0052400D01*
Y0008500D02*
X0051900Y0008000D01*
X0052400D02*
X0051900Y0008500D01*
X0051500Y0009500D02*
Y0009000D01*
X0052000Y0009500D02*
X0051500D01*
X0052000Y0009000D02*
Y0009500D01*
X0051500Y0009000D02*
X0052000D01*
Y0009500D02*
X0051500Y0009000D01*
X0052000D02*
X0051500Y0009500D01*
X0051900Y0008500D02*
Y0008000D01*
X0052400Y0008500D02*
X0051900D01*
X0052400Y0008000D02*
Y0008500D01*
X0051900Y0008000D02*
X0052400D01*
Y0008500D02*
X0051900Y0008000D01*
X0052400D02*
X0051900Y0008500D01*
X0051500Y0009500D02*
Y0009000D01*
X0052000Y0009500D02*
X0051500D01*
X0052000Y0009000D02*
Y0009500D01*
X0051500Y0009000D02*
X0052000D01*
Y0009500D02*
X0051500Y0009000D01*
X0052000D02*
X0051500Y0009500D01*
X0041250Y0005550D02*
Y0005050D01*
X0041750Y0005550D02*
X0041250D01*
X0041750Y0005050D02*
Y0005550D01*
X0041250Y0005050D02*
X0041750D01*
Y0005550D02*
X0041250Y0005050D01*
X0041750D02*
X0041250Y0005550D01*
X0041700Y0004050D02*
Y0003550D01*
X0042200Y0004050D02*
X0041700D01*
X0042200Y0003550D02*
Y0004050D01*
X0041700Y0003550D02*
X0042200D01*
Y0004050D02*
X0041700Y0003550D01*
X0042200D02*
X0041700Y0004050D01*
X0007500Y0006500D02*
Y0006000D01*
X0008000Y0006500D02*
X0007500D01*
X0008000Y0006000D02*
Y0006500D01*
X0007500Y0006000D02*
X0008000D01*
Y0006500D02*
X0007500Y0006000D01*
X0008000D02*
X0007500Y0006500D01*
X0010730Y0007530D02*
Y0007030D01*
X0011230Y0007530D02*
X0010730D01*
X0011230Y0007030D02*
Y0007530D01*
X0010730Y0007030D02*
X0011230D01*
Y0007530D02*
X0010730Y0007030D01*
X0011230D02*
X0010730Y0007530D01*
X0010500Y0012050D02*
Y0011550D01*
X0011000Y0012050D02*
X0010500D01*
X0011000Y0011550D02*
Y0012050D01*
X0010500Y0011550D02*
X0011000D01*
Y0012050D02*
X0010500Y0011550D01*
X0011000D02*
X0010500Y0012050D01*
X0012250D02*
Y0011550D01*
X0012750Y0012050D02*
X0012250D01*
X0012750Y0011550D02*
Y0012050D01*
X0012250Y0011550D02*
X0012750D01*
Y0012050D02*
X0012250Y0011550D01*
X0012750D02*
X0012250Y0012050D01*
Y0011550D01*
X0012750Y0012050D02*
X0012250D01*
X0012750Y0011550D02*
Y0012050D01*
X0012250Y0011550D02*
X0012750D01*
Y0012050D02*
X0012250Y0011550D01*
X0012750D02*
X0012250Y0012050D01*
X0012900Y0010500D02*
Y0010000D01*
X0013400Y0010500D02*
X0012900D01*
X0013400Y0010000D02*
Y0010500D01*
X0012900Y0010000D02*
X0013400D01*
Y0010500D02*
X0012900Y0010000D01*
X0013400D02*
X0012900Y0010500D01*
X0039500Y0001550D02*
Y0001050D01*
X0040000Y0001550D02*
X0039500D01*
X0040000Y0001050D02*
Y0001550D01*
X0039500Y0001050D02*
X0040000D01*
Y0001550D02*
X0039500Y0001050D01*
X0040000D02*
X0039500Y0001550D01*
X0038650Y0002200D02*
Y0001700D01*
X0039150Y0002200D02*
X0038650D01*
X0039150Y0001700D02*
Y0002200D01*
X0038650Y0001700D02*
X0039150D01*
Y0002200D02*
X0038650Y0001700D01*
X0039150D02*
X0038650Y0002200D01*
X0040400Y0003470D02*
Y0002970D01*
X0040900Y0003470D02*
X0040400D01*
X0040900Y0002970D02*
Y0003470D01*
X0040400Y0002970D02*
X0040900D01*
Y0003470D02*
X0040400Y0002970D01*
X0040900D02*
X0040400Y0003470D01*
X0041700Y0004050D02*
Y0003550D01*
X0042200Y0004050D02*
X0041700D01*
X0042200Y0003550D02*
Y0004050D01*
X0041700Y0003550D02*
X0042200D01*
Y0004050D02*
X0041700Y0003550D01*
X0042200D02*
X0041700Y0004050D01*
X0012900Y0010500D02*
Y0010000D01*
X0013400Y0010500D02*
X0012900D01*
X0013400Y0010000D02*
Y0010500D01*
X0012900Y0010000D02*
X0013400D01*
Y0010500D02*
X0012900Y0010000D01*
X0013400D02*
X0012900Y0010500D01*
X0012250Y0009050D02*
Y0008550D01*
X0012750Y0009050D02*
X0012250D01*
X0012750Y0008550D02*
Y0009050D01*
X0012250Y0008550D02*
X0012750D01*
Y0009050D02*
X0012250Y0008550D01*
X0012750D02*
X0012250Y0009050D01*
X0007000Y0002950D02*
Y0002450D01*
X0007500Y0002950D02*
X0007000D01*
X0007500Y0002450D02*
Y0002950D01*
X0007000Y0002450D02*
X0007500D01*
Y0002950D02*
X0007000Y0002450D01*
X0007500D02*
X0007000Y0002950D01*
X0007650Y0005400D02*
Y0004900D01*
X0008150Y0005400D02*
X0007650D01*
X0008150Y0004900D02*
Y0005400D01*
X0007650Y0004900D02*
X0008150D01*
Y0005400D02*
X0007650Y0004900D01*
X0008150D02*
X0007650Y0005400D01*
X0007500Y0005750D02*
Y0005250D01*
X0008000Y0005750D02*
X0007500D01*
X0008000Y0005250D02*
Y0005750D01*
X0007500Y0005250D02*
X0008000D01*
Y0005750D02*
X0007500Y0005250D01*
X0008000D02*
X0007500Y0005750D01*
Y0005250D01*
X0008000Y0005750D02*
X0007500D01*
X0008000Y0005250D02*
Y0005750D01*
X0007500Y0005250D02*
X0008000D01*
Y0005750D02*
X0007500Y0005250D01*
X0008000D02*
X0007500Y0005750D01*
Y0006500D02*
Y0006000D01*
X0008000Y0006500D02*
X0007500D01*
X0008000Y0006000D02*
Y0006500D01*
X0007500Y0006000D02*
X0008000D01*
Y0006500D02*
X0007500Y0006000D01*
X0008000D02*
X0007500Y0006500D01*
X0010730Y0007530D02*
Y0007030D01*
X0011230Y0007530D02*
X0010730D01*
X0011230Y0007030D02*
Y0007530D01*
X0010730Y0007030D02*
X0011230D01*
Y0007530D02*
X0010730Y0007030D01*
X0011230D02*
X0010730Y0007530D01*
X0014500Y0000800D02*
Y0000300D01*
X0015000Y0000800D02*
X0014500D01*
X0015000Y0000300D02*
Y0000800D01*
X0014500Y0000300D02*
X0015000D01*
Y0000800D02*
X0014500Y0000300D01*
X0015000D02*
X0014500Y0000800D01*
X0013650Y0000720D02*
Y0000220D01*
X0014150Y0000720D02*
X0013650D01*
X0014150Y0000220D02*
Y0000720D01*
X0013650Y0000220D02*
X0014150D01*
Y0000720D02*
X0013650Y0000220D01*
X0014150D02*
X0013650Y0000720D01*
X0013500Y0007900D02*
Y0007400D01*
X0014000Y0007900D02*
X0013500D01*
X0014000Y0007400D02*
Y0007900D01*
X0013500Y0007400D02*
X0014000D01*
Y0007900D02*
X0013500Y0007400D01*
X0014000D02*
X0013500Y0007900D01*
X0017000Y0007550D02*
Y0007050D01*
X0017500Y0007550D02*
X0017000D01*
X0017500Y0007050D02*
Y0007550D01*
X0017000Y0007050D02*
X0017500D01*
Y0007550D02*
X0017000Y0007050D01*
X0017500D02*
X0017000Y0007550D01*
X0017900Y0011500D02*
Y0011000D01*
X0018400Y0011500D02*
X0017900D01*
X0018400Y0011000D02*
Y0011500D01*
X0017900Y0011000D02*
X0018400D01*
Y0011500D02*
X0017900Y0011000D01*
X0018400D02*
X0017900Y0011500D01*
X0012250Y0009050D02*
Y0008550D01*
X0012750Y0009050D02*
X0012250D01*
X0012750Y0008550D02*
Y0009050D01*
X0012250Y0008550D02*
X0012750D01*
Y0009050D02*
X0012250Y0008550D01*
X0012750D02*
X0012250Y0009050D01*
X0013500Y0007900D02*
Y0007400D01*
X0014000Y0007900D02*
X0013500D01*
X0014000Y0007400D02*
Y0007900D01*
X0013500Y0007400D02*
X0014000D01*
Y0007900D02*
X0013500Y0007400D01*
X0014000D02*
X0013500Y0007900D01*
X0017000Y0007550D02*
Y0007050D01*
X0017500Y0007550D02*
X0017000D01*
X0017500Y0007050D02*
Y0007550D01*
X0017000Y0007050D02*
X0017500D01*
Y0007550D02*
X0017000Y0007050D01*
X0017500D02*
X0017000Y0007550D01*
X0012000Y0000800D02*
Y0000300D01*
X0012500Y0000800D02*
X0012000D01*
X0012500Y0000300D02*
Y0000800D01*
X0012000Y0000300D02*
X0012500D01*
Y0000800D02*
X0012000Y0000300D01*
X0012500D02*
X0012000Y0000800D01*
X0011930Y0002470D02*
Y0001970D01*
X0012430Y0002470D02*
X0011930D01*
X0012430Y0001970D02*
Y0002470D01*
X0011930Y0001970D02*
X0012430D01*
Y0002470D02*
X0011930Y0001970D01*
X0012430D02*
X0011930Y0002470D01*
X0013650Y0000720D02*
Y0000220D01*
X0014150Y0000720D02*
X0013650D01*
X0014150Y0000220D02*
Y0000720D01*
X0013650Y0000220D02*
X0014150D01*
Y0000720D02*
X0013650Y0000220D01*
X0014150D02*
X0013650Y0000720D01*
X0012000Y0000800D02*
Y0000300D01*
X0012500Y0000800D02*
X0012000D01*
X0012500Y0000300D02*
Y0000800D01*
X0012000Y0000300D02*
X0012500D01*
Y0000800D02*
X0012000Y0000300D01*
X0012500D02*
X0012000Y0000800D01*
X0030570Y0002720D02*
Y0002220D01*
X0031070Y0002720D02*
X0030570D01*
X0031070Y0002220D02*
Y0002720D01*
X0030570Y0002220D02*
X0031070D01*
Y0002720D02*
X0030570Y0002220D01*
X0031070D02*
X0030570Y0002720D01*
X0027600Y0001050D02*
Y0000550D01*
X0028100Y0001050D02*
X0027600D01*
X0028100Y0000550D02*
Y0001050D01*
X0027600Y0000550D02*
X0028100D01*
Y0001050D02*
X0027600Y0000550D01*
X0028100D02*
X0027600Y0001050D01*
X0028900Y0001600D02*
Y0001100D01*
X0029400Y0001600D02*
X0028900D01*
X0029400Y0001100D02*
Y0001600D01*
X0028900Y0001100D02*
X0029400D01*
Y0001600D02*
X0028900Y0001100D01*
X0029400D02*
X0028900Y0001600D01*
X0028500Y0003300D02*
Y0002800D01*
X0029000Y0003300D02*
X0028500D01*
X0029000Y0002800D02*
Y0003300D01*
X0028500Y0002800D02*
X0029000D01*
Y0003300D02*
X0028500Y0002800D01*
X0029000D02*
X0028500Y0003300D01*
X0028900Y0001600D02*
Y0001100D01*
X0029400Y0001600D02*
X0028900D01*
X0029400Y0001100D02*
Y0001600D01*
X0028900Y0001100D02*
X0029400D01*
Y0001600D02*
X0028900Y0001100D01*
X0029400D02*
X0028900Y0001600D01*
X0028500Y0003300D02*
Y0002800D01*
X0029000Y0003300D02*
X0028500D01*
X0029000Y0002800D02*
Y0003300D01*
X0028500Y0002800D02*
X0029000D01*
Y0003300D02*
X0028500Y0002800D01*
X0029000D02*
X0028500Y0003300D01*
X0030850Y0005000D02*
Y0004500D01*
X0031350Y0005000D02*
X0030850D01*
X0031350Y0004500D02*
Y0005000D01*
X0030850Y0004500D02*
X0031350D01*
Y0005000D02*
X0030850Y0004500D01*
X0031350D02*
X0030850Y0005000D01*
X0032750Y0003970D02*
Y0003470D01*
X0033250Y0003970D02*
X0032750D01*
X0033250Y0003470D02*
Y0003970D01*
X0032750Y0003470D02*
X0033250D01*
Y0003970D02*
X0032750Y0003470D01*
X0033250D02*
X0032750Y0003970D01*
Y0003470D01*
X0033250Y0003970D02*
X0032750D01*
X0033250Y0003470D02*
Y0003970D01*
X0032750Y0003470D02*
X0033250D01*
Y0003970D02*
X0032750Y0003470D01*
X0033250D02*
X0032750Y0003970D01*
X0034000Y0003500D02*
Y0003000D01*
X0034500Y0003500D02*
X0034000D01*
X0034500Y0003000D02*
Y0003500D01*
X0034000Y0003000D02*
X0034500D01*
Y0003500D02*
X0034000Y0003000D01*
X0034500D02*
X0034000Y0003500D01*
X0015300Y0000720D02*
Y0000220D01*
X0015800Y0000720D02*
X0015300D01*
X0015800Y0000220D02*
Y0000720D01*
X0015300Y0000220D02*
X0015800D01*
Y0000720D02*
X0015300Y0000220D01*
X0015800D02*
X0015300Y0000720D01*
X0015480Y0002470D02*
Y0001970D01*
X0015980Y0002470D02*
X0015480D01*
X0015980Y0001970D02*
Y0002470D01*
X0015480Y0001970D02*
X0015980D01*
Y0002470D02*
X0015480Y0001970D01*
X0015980D02*
X0015480Y0002470D01*
X0014500Y0000800D02*
Y0000300D01*
X0015000Y0000800D02*
X0014500D01*
X0015000Y0000300D02*
Y0000800D01*
X0014500Y0000300D02*
X0015000D01*
Y0000800D02*
X0014500Y0000300D01*
X0015000D02*
X0014500Y0000800D01*
X0015300Y0000720D02*
Y0000220D01*
X0015800Y0000720D02*
X0015300D01*
X0015800Y0000220D02*
Y0000720D01*
X0015300Y0000220D02*
X0015800D01*
Y0000720D02*
X0015300Y0000220D01*
X0015800D02*
X0015300Y0000720D01*
X0034500Y0003300D02*
Y0002800D01*
X0035000Y0003300D02*
X0034500D01*
X0035000Y0002800D02*
Y0003300D01*
X0034500Y0002800D02*
X0035000D01*
Y0003300D02*
X0034500Y0002800D01*
X0035000D02*
X0034500Y0003300D01*
X0034000Y0003500D02*
Y0003000D01*
X0034500Y0003500D02*
X0034000D01*
X0034500Y0003000D02*
Y0003500D01*
X0034000Y0003000D02*
X0034500D01*
Y0003500D02*
X0034000Y0003000D01*
X0034500D02*
X0034000Y0003500D01*
Y0003000D01*
X0034500Y0003500D02*
X0034000D01*
X0034500Y0003000D02*
Y0003500D01*
X0034000Y0003000D02*
X0034500D01*
Y0003500D02*
X0034000Y0003000D01*
X0034500D02*
X0034000Y0003500D01*
X0033750Y0002700D02*
Y0002200D01*
X0034250Y0002700D02*
X0033750D01*
X0034250Y0002200D02*
Y0002700D01*
X0033750Y0002200D02*
X0034250D01*
Y0002700D02*
X0033750Y0002200D01*
X0034250D02*
X0033750Y0002700D01*
X0045400Y0003550D02*
Y0003050D01*
X0045900Y0003550D02*
X0045400D01*
X0045900Y0003050D02*
Y0003550D01*
X0045400Y0003050D02*
X0045900D01*
Y0003550D02*
X0045400Y0003050D01*
X0045900D02*
X0045400Y0003550D01*
X0045650Y0005550D02*
Y0005050D01*
X0046150Y0005550D02*
X0045650D01*
X0046150Y0005050D02*
Y0005550D01*
X0045650Y0005050D02*
X0046150D01*
Y0005550D02*
X0045650Y0005050D01*
X0046150D02*
X0045650Y0005550D01*
X0043400Y0005100D02*
Y0004600D01*
X0043900Y0005100D02*
X0043400D01*
X0043900Y0004600D02*
Y0005100D01*
X0043400Y0004600D02*
X0043900D01*
Y0005100D02*
X0043400Y0004600D01*
X0043900D02*
X0043400Y0005100D01*
X0044050Y0004100D02*
Y0003600D01*
X0044550Y0004100D02*
X0044050D01*
X0044550Y0003600D02*
Y0004100D01*
X0044050Y0003600D02*
X0044550D01*
Y0004100D02*
X0044050Y0003600D01*
X0044550D02*
X0044050Y0004100D01*
X0038650Y0002200D02*
Y0001700D01*
X0039150Y0002200D02*
X0038650D01*
X0039150Y0001700D02*
Y0002200D01*
X0038650Y0001700D02*
X0039150D01*
Y0002200D02*
X0038650Y0001700D01*
X0039150D02*
X0038650Y0002200D01*
X0007650Y0005400D02*
Y0004900D01*
X0008150Y0005400D02*
X0007650D01*
X0008150Y0004900D02*
Y0005400D01*
X0007650Y0004900D02*
X0008150D01*
Y0005400D02*
X0007650Y0004900D01*
X0008150D02*
X0007650Y0005400D01*
X0007000Y0002950D02*
Y0002450D01*
X0007500Y0002950D02*
X0007000D01*
X0007500Y0002450D02*
Y0002950D01*
X0007000Y0002450D02*
X0007500D01*
Y0002950D02*
X0007000Y0002450D01*
X0007500D02*
X0007000Y0002950D01*
X0012000Y0000800D02*
Y0000300D01*
X0012500Y0000800D02*
X0012000D01*
X0012500Y0000300D02*
Y0000800D01*
X0012000Y0000300D02*
X0012500D01*
Y0000800D02*
X0012000Y0000300D01*
X0012500D02*
X0012000Y0000800D01*
X0011150Y0000720D02*
Y0000220D01*
X0011650Y0000720D02*
X0011150D01*
X0011650Y0000220D02*
Y0000720D01*
X0011150Y0000220D02*
X0011650D01*
Y0000720D02*
X0011150Y0000220D01*
X0011650D02*
X0011150Y0000720D01*
X0041700Y0004050D02*
Y0003550D01*
X0042200Y0004050D02*
X0041700D01*
X0042200Y0003550D02*
Y0004050D01*
X0041700Y0003550D02*
X0042200D01*
Y0004050D02*
X0041700Y0003550D01*
X0042200D02*
X0041700Y0004050D01*
X0047400Y0005550D02*
Y0005050D01*
X0047900Y0005550D02*
X0047400D01*
X0047900Y0005050D02*
Y0005550D01*
X0047400Y0005050D02*
X0047900D01*
Y0005550D02*
X0047400Y0005050D01*
X0047900D02*
X0047400Y0005550D01*
X0045650D02*
Y0005050D01*
X0046150Y0005550D02*
X0045650D01*
X0046150Y0005050D02*
Y0005550D01*
X0045650Y0005050D02*
X0046150D01*
Y0005550D02*
X0045650Y0005050D01*
X0046150D02*
X0045650Y0005550D01*
X0044050Y0004100D02*
Y0003600D01*
X0044550Y0004100D02*
X0044050D01*
X0044550Y0003600D02*
Y0004100D01*
X0044050Y0003600D02*
X0044550D01*
Y0004100D02*
X0044050Y0003600D01*
X0044550D02*
X0044050Y0004100D01*
X0045400Y0003550D02*
Y0003050D01*
X0045900Y0003550D02*
X0045400D01*
X0045900Y0003050D02*
Y0003550D01*
X0045400Y0003050D02*
X0045900D01*
Y0003550D02*
X0045400Y0003050D01*
X0045900D02*
X0045400Y0003550D01*
X0045750Y0003500D02*
Y0003000D01*
X0046250Y0003500D02*
X0045750D01*
X0046250Y0003000D02*
Y0003500D01*
X0045750Y0003000D02*
X0046250D01*
Y0003500D02*
X0045750Y0003000D01*
X0046250D02*
X0045750Y0003500D01*
X0046500D02*
Y0003000D01*
X0047000Y0003500D02*
X0046500D01*
X0047000Y0003000D02*
Y0003500D01*
X0046500Y0003000D02*
X0047000D01*
Y0003500D02*
X0046500Y0003000D01*
X0047000D02*
X0046500Y0003500D01*
X0039500Y0001550D02*
Y0001050D01*
X0040000Y0001550D02*
X0039500D01*
X0040000Y0001050D02*
Y0001550D01*
X0039500Y0001050D02*
X0040000D01*
Y0001550D02*
X0039500Y0001050D01*
X0040000D02*
X0039500Y0001550D01*
X0041250D02*
Y0001050D01*
X0041750Y0001550D02*
X0041250D01*
X0041750Y0001050D02*
Y0001550D01*
X0041250Y0001050D02*
X0041750D01*
Y0001550D02*
X0041250Y0001050D01*
X0041750D02*
X0041250Y0001550D01*
X0038350Y0005398D02*
Y0004898D01*
X0038850Y0005398D02*
X0038350D01*
X0038850Y0004898D02*
Y0005398D01*
X0038350Y0004898D02*
X0038850D01*
Y0005398D02*
X0038350Y0004898D01*
X0038850D02*
X0038350Y0005398D01*
X0037900Y0007600D02*
Y0007100D01*
X0038400Y0007600D02*
X0037900D01*
X0038400Y0007100D02*
Y0007600D01*
X0037900Y0007100D02*
X0038400D01*
Y0007600D02*
X0037900Y0007100D01*
X0038400D02*
X0037900Y0007600D01*
Y0007100D01*
X0038400Y0007600D02*
X0037900D01*
X0038400Y0007100D02*
Y0007600D01*
X0037900Y0007100D02*
X0038400D01*
Y0007600D02*
X0037900Y0007100D01*
X0038400D02*
X0037900Y0007600D01*
X0036000Y0009050D02*
Y0008550D01*
X0036500Y0009050D02*
X0036000D01*
X0036500Y0008550D02*
Y0009050D01*
X0036000Y0008550D02*
X0036500D01*
Y0009050D02*
X0036000Y0008550D01*
X0036500D02*
X0036000Y0009050D01*
X0041250Y0001550D02*
Y0001050D01*
X0041750Y0001550D02*
X0041250D01*
X0041750Y0001050D02*
Y0001550D01*
X0041250Y0001050D02*
X0041750D01*
Y0001550D02*
X0041250Y0001050D01*
X0041750D02*
X0041250Y0001550D01*
Y-0000450D02*
Y-0000950D01*
X0041750Y-0000450D02*
X0041250D01*
X0041750Y-0000950D02*
Y-0000450D01*
X0041250Y-0000950D02*
X0041750D01*
Y-0000450D02*
X0041250Y-0000950D01*
X0041750D02*
X0041250Y-0000450D01*
Y-0000950D01*
X0041750Y-0000450D02*
X0041250D01*
X0041750Y-0000950D02*
Y-0000450D01*
X0041250Y-0000950D02*
X0041750D01*
Y-0000450D02*
X0041250Y-0000950D01*
X0041750D02*
X0041250Y-0000450D01*
X0039500D02*
Y-0000950D01*
X0040000Y-0000450D02*
X0039500D01*
X0040000Y-0000950D02*
Y-0000450D01*
X0039500Y-0000950D02*
X0040000D01*
Y-0000450D02*
X0039500Y-0000950D01*
X0040000D02*
X0039500Y-0000450D01*
X0049300Y0005550D02*
Y0005050D01*
X0049800Y0005550D02*
X0049300D01*
X0049800Y0005050D02*
Y0005550D01*
X0049300Y0005050D02*
X0049800D01*
Y0005550D02*
X0049300Y0005050D01*
X0049800D02*
X0049300Y0005550D01*
X0051900Y0005100D02*
Y0004600D01*
X0052400Y0005100D02*
X0051900D01*
X0052400Y0004600D02*
Y0005100D01*
X0051900Y0004600D02*
X0052400D01*
Y0005100D02*
X0051900Y0004600D01*
X0052400D02*
X0051900Y0005100D01*
X0046650Y0001000D02*
Y0000500D01*
X0047150Y0001000D02*
X0046650D01*
X0047150Y0000500D02*
Y0001000D01*
X0046650Y0000500D02*
X0047150D01*
Y0001000D02*
X0046650Y0000500D01*
X0047150D02*
X0046650Y0001000D01*
X0046800Y0000050D02*
Y-0000450D01*
X0047300Y0000050D02*
X0046800D01*
X0047300Y-0000450D02*
Y0000050D01*
X0046800Y-0000450D02*
X0047300D01*
Y0000050D02*
X0046800Y-0000450D01*
X0047300D02*
X0046800Y0000050D01*
Y-0000450D01*
X0047300Y0000050D02*
X0046800D01*
X0047300Y-0000450D02*
Y0000050D01*
X0046800Y-0000450D02*
X0047300D01*
Y0000050D02*
X0046800Y-0000450D01*
X0047300D02*
X0046800Y0000050D01*
X0044900Y0000100D02*
Y-0000400D01*
X0045400Y0000100D02*
X0044900D01*
X0045400Y-0000400D02*
Y0000100D01*
X0044900Y-0000400D02*
X0045400D01*
Y0000100D02*
X0044900Y-0000400D01*
X0045400D02*
X0044900Y0000100D01*
X0045750Y0003500D02*
Y0003000D01*
X0046250Y0003500D02*
X0045750D01*
X0046250Y0003000D02*
Y0003500D01*
X0045750Y0003000D02*
X0046250D01*
Y0003500D02*
X0045750Y0003000D01*
X0046250D02*
X0045750Y0003500D01*
X0045400Y0003550D02*
Y0003050D01*
X0045900Y0003550D02*
X0045400D01*
X0045900Y0003050D02*
Y0003550D01*
X0045400Y0003050D02*
X0045900D01*
Y0003550D02*
X0045400Y0003050D01*
X0045900D02*
X0045400Y0003550D01*
X0044900Y0000100D02*
Y-0000400D01*
X0045400Y0000100D02*
X0044900D01*
X0045400Y-0000400D02*
Y0000100D01*
X0044900Y-0000400D02*
X0045400D01*
Y0000100D02*
X0044900Y-0000400D01*
X0045400D02*
X0044900Y0000100D01*
X0044500Y0001550D02*
Y0001050D01*
X0045000Y0001550D02*
X0044500D01*
X0045000Y0001050D02*
Y0001550D01*
X0044500Y0001050D02*
X0045000D01*
Y0001550D02*
X0044500Y0001050D01*
X0045000D02*
X0044500Y0001550D01*
X0030850Y0005000D02*
Y0004500D01*
X0031350Y0005000D02*
X0030850D01*
X0031350Y0004500D02*
Y0005000D01*
X0030850Y0004500D02*
X0031350D01*
Y0005000D02*
X0030850Y0004500D01*
X0031350D02*
X0030850Y0005000D01*
X0028400Y0009400D02*
Y0008900D01*
X0028900Y0009400D02*
X0028400D01*
X0028900Y0008900D02*
Y0009400D01*
X0028400Y0008900D02*
X0028900D01*
Y0009400D02*
X0028400Y0008900D01*
X0028900D02*
X0028400Y0009400D01*
X0005800Y0006450D02*
Y0005950D01*
X0006300Y0006450D02*
X0005800D01*
X0006300Y0005950D02*
Y0006450D01*
X0005800Y0005950D02*
X0006300D01*
Y0006450D02*
X0005800Y0005950D01*
X0006300D02*
X0005800Y0006450D01*
X0003950Y0005100D02*
Y0004600D01*
X0004450Y0005100D02*
X0003950D01*
X0004450Y0004600D02*
Y0005100D01*
X0003950Y0004600D02*
X0004450D01*
Y0005100D02*
X0003950Y0004600D01*
X0004450D02*
X0003950Y0005100D01*
X0003850Y0002970D02*
Y0002470D01*
X0004350Y0002970D02*
X0003850D01*
X0004350Y0002470D02*
Y0002970D01*
X0003850Y0002470D02*
X0004350D01*
Y0002970D02*
X0003850Y0002470D01*
X0004350D02*
X0003850Y0002970D01*
X0007500Y0006500D02*
Y0006000D01*
X0008000Y0006500D02*
X0007500D01*
X0008000Y0006000D02*
Y0006500D01*
X0007500Y0006000D02*
X0008000D01*
Y0006500D02*
X0007500Y0006000D01*
X0008000D02*
X0007500Y0006500D01*
X0005800Y0006450D02*
Y0005950D01*
X0006300Y0006450D02*
X0005800D01*
X0006300Y0005950D02*
Y0006450D01*
X0005800Y0005950D02*
X0006300D01*
Y0006450D02*
X0005800Y0005950D01*
X0006300D02*
X0005800Y0006450D01*
X0034500Y0003300D02*
Y0002800D01*
X0035000Y0003300D02*
X0034500D01*
X0035000Y0002800D02*
Y0003300D01*
X0034500Y0002800D02*
X0035000D01*
Y0003300D02*
X0034500Y0002800D01*
X0035000D02*
X0034500Y0003300D01*
X0036250Y0004510D02*
Y0004010D01*
X0036750Y0004510D02*
X0036250D01*
X0036750Y0004010D02*
Y0004510D01*
X0036250Y0004010D02*
X0036750D01*
Y0004510D02*
X0036250Y0004010D01*
X0036750D02*
X0036250Y0004510D01*
X0040300Y0005550D02*
Y0005050D01*
X0040800Y0005550D02*
X0040300D01*
X0040800Y0005050D02*
Y0005550D01*
X0040300Y0005050D02*
X0040800D01*
Y0005550D02*
X0040300Y0005050D01*
X0040800D02*
X0040300Y0005550D01*
X0038350Y0005398D02*
Y0004898D01*
X0038850Y0005398D02*
X0038350D01*
X0038850Y0004898D02*
Y0005398D01*
X0038350Y0004898D02*
X0038850D01*
Y0005398D02*
X0038350Y0004898D01*
X0038850D02*
X0038350Y0005398D01*
X0041250Y0005550D02*
Y0005050D01*
X0041750Y0005550D02*
X0041250D01*
X0041750Y0005050D02*
Y0005550D01*
X0041250Y0005050D02*
X0041750D01*
Y0005550D02*
X0041250Y0005050D01*
X0041750D02*
X0041250Y0005550D01*
Y0007700D02*
Y0007200D01*
X0041750Y0007700D02*
X0041250D01*
X0041750Y0007200D02*
Y0007700D01*
X0041250Y0007200D02*
X0041750D01*
Y0007700D02*
X0041250Y0007200D01*
X0041750D02*
X0041250Y0007700D01*
Y0007200D01*
X0041750Y0007700D02*
X0041250D01*
X0041750Y0007200D02*
Y0007700D01*
X0041250Y0007200D02*
X0041750D01*
Y0007700D02*
X0041250Y0007200D01*
X0041750D02*
X0041250Y0007700D01*
X0052450Y0003250D02*
Y0002750D01*
X0052950Y0003250D02*
X0052450D01*
X0052950Y0002750D02*
Y0003250D01*
X0052450Y0002750D02*
X0052950D01*
Y0003250D02*
X0052450Y0002750D01*
X0052950D02*
X0052450Y0003250D01*
X0051900Y0005100D02*
Y0004600D01*
X0052400Y0005100D02*
X0051900D01*
X0052400Y0004600D02*
Y0005100D01*
X0051900Y0004600D02*
X0052400D01*
Y0005100D02*
X0051900Y0004600D01*
X0052400D02*
X0051900Y0005100D01*
X0027000Y0009400D02*
Y0008900D01*
X0027500Y0009400D02*
X0027000D01*
X0027500Y0008900D02*
Y0009400D01*
X0027000Y0008900D02*
X0027500D01*
Y0009400D02*
X0027000Y0008900D01*
X0027500D02*
X0027000Y0009400D01*
X0028400D02*
Y0008900D01*
X0028900Y0009400D02*
X0028400D01*
X0028900Y0008900D02*
Y0009400D01*
X0028400Y0008900D02*
X0028900D01*
Y0009400D02*
X0028400Y0008900D01*
X0028900D02*
X0028400Y0009400D01*
X-0000800Y0008000D02*
Y0007500D01*
X-0000300Y0008000D02*
X-0000800D01*
X-0000300Y0007500D02*
Y0008000D01*
X-0000800Y0007500D02*
X-0000300D01*
Y0008000D02*
X-0000800Y0007500D01*
X-0000300D02*
X-0000800Y0008000D01*
X-0000150Y0006950D02*
Y0006450D01*
X0000350Y0006950D02*
X-0000150D01*
X0000350Y0006450D02*
Y0006950D01*
X-0000150Y0006450D02*
X0000350D01*
Y0006950D02*
X-0000150Y0006450D01*
X0000350D02*
X-0000150Y0006950D01*
X0000500Y0003800D02*
Y0003300D01*
X0001000Y0003800D02*
X0000500D01*
X0001000Y0003300D02*
Y0003800D01*
X0000500Y0003300D02*
X0001000D01*
Y0003800D02*
X0000500Y0003300D01*
X0001000D02*
X0000500Y0003800D01*
X0000950Y0004485D02*
Y0003985D01*
X0001450Y0004485D02*
X0000950D01*
X0001450Y0003985D02*
Y0004485D01*
X0000950Y0003985D02*
X0001450D01*
Y0004485D02*
X0000950Y0003985D01*
X0001450D02*
X0000950Y0004485D01*
X0003850Y0002970D02*
Y0002470D01*
X0004350Y0002970D02*
X0003850D01*
X0004350Y0002470D02*
Y0002970D01*
X0003850Y0002470D02*
X0004350D01*
Y0002970D02*
X0003850Y0002470D01*
X0004350D02*
X0003850Y0002970D01*
X0003950Y0005100D02*
Y0004600D01*
X0004450Y0005100D02*
X0003950D01*
X0004450Y0004600D02*
Y0005100D01*
X0003950Y0004600D02*
X0004450D01*
Y0005100D02*
X0003950Y0004600D01*
X0004450D02*
X0003950Y0005100D01*
X0028500Y0003300D02*
Y0002800D01*
X0029000Y0003300D02*
X0028500D01*
X0029000Y0002800D02*
Y0003300D01*
X0028500Y0002800D02*
X0029000D01*
Y0003300D02*
X0028500Y0002800D01*
X0029000D02*
X0028500Y0003300D01*
X0026750Y0002700D02*
Y0002200D01*
X0027250Y0002700D02*
X0026750D01*
X0027250Y0002200D02*
Y0002700D01*
X0026750Y0002200D02*
X0027250D01*
Y0002700D02*
X0026750Y0002200D01*
X0027250D02*
X0026750Y0002700D01*
X0020320Y0000280D02*
Y-0000220D01*
X0020820Y0000280D02*
X0020320D01*
X0020820Y-0000220D02*
Y0000280D01*
X0020320Y-0000220D02*
X0020820D01*
Y0000280D02*
X0020320Y-0000220D01*
X0020820D02*
X0020320Y0000280D01*
X0022150Y0000500D02*
Y0000000D01*
X0022650Y0000500D02*
X0022150D01*
X0022650Y0000000D02*
Y0000500D01*
X0022150Y0000000D02*
X0022650D01*
Y0000500D02*
X0022150Y0000000D01*
X0022650D02*
X0022150Y0000500D01*
X0047400Y0005550D02*
Y0005050D01*
X0047900Y0005550D02*
X0047400D01*
X0047900Y0005050D02*
Y0005550D01*
X0047400Y0005050D02*
X0047900D01*
Y0005550D02*
X0047400Y0005050D01*
X0047900D02*
X0047400Y0005550D01*
X0049300D02*
Y0005050D01*
X0049800Y0005550D02*
X0049300D01*
X0049800Y0005050D02*
Y0005550D01*
X0049300Y0005050D02*
X0049800D01*
Y0005550D02*
X0049300Y0005050D01*
X0049800D02*
X0049300Y0005550D01*
X0017550Y0002500D02*
Y0002000D01*
X0018050Y0002500D02*
X0017550D01*
X0018050Y0002000D02*
Y0002500D01*
X0017550Y0002000D02*
X0018050D01*
Y0002500D02*
X0017550Y0002000D01*
X0018050D02*
X0017550Y0002500D01*
Y0009750D02*
Y0009250D01*
X0018050Y0009750D02*
X0017550D01*
X0018050Y0009250D02*
Y0009750D01*
X0017550Y0009250D02*
X0018050D01*
Y0009750D02*
X0017550Y0009250D01*
X0018050D02*
X0017550Y0009750D01*
X0013600Y0009700D02*
Y0009200D01*
X0014100Y0009700D02*
X0013600D01*
X0014100Y0009200D02*
Y0009700D01*
X0013600Y0009200D02*
X0014100D01*
Y0009700D02*
X0013600Y0009200D01*
X0014100D02*
X0013600Y0009700D01*
Y0012550D02*
Y0012050D01*
X0014100Y0012550D02*
X0013600D01*
X0014100Y0012050D02*
Y0012550D01*
X0013600Y0012050D02*
X0014100D01*
Y0012550D02*
X0013600Y0012050D01*
X0014100D02*
X0013600Y0012550D01*
X0008250Y0012350D02*
Y0011850D01*
X0008750Y0012350D02*
X0008250D01*
X0008750Y0011850D02*
Y0012350D01*
X0008250Y0011850D02*
X0008750D01*
Y0012350D02*
X0008250Y0011850D01*
X0008750D02*
X0008250Y0012350D01*
X0008150Y0010250D02*
Y0009750D01*
X0008650Y0010250D02*
X0008150D01*
X0008650Y0009750D02*
Y0010250D01*
X0008150Y0009750D02*
X0008650D01*
Y0010250D02*
X0008150Y0009750D01*
X0008650D02*
X0008150Y0010250D01*
X0017550Y0002500D02*
Y0002000D01*
X0018050Y0002500D02*
X0017550D01*
X0018050Y0002000D02*
Y0002500D01*
X0017550Y0002000D02*
X0018050D01*
Y0002500D02*
X0017550Y0002000D01*
X0018050D02*
X0017550Y0002500D01*
Y0005050D02*
Y0004550D01*
X0018050Y0005050D02*
X0017550D01*
X0018050Y0004550D02*
Y0005050D01*
X0017550Y0004550D02*
X0018050D01*
Y0005050D02*
X0017550Y0004550D01*
X0018050D02*
X0017550Y0005050D01*
X0040100Y0009000D02*
Y0008500D01*
X0040600Y0009000D02*
X0040100D01*
X0040600Y0008500D02*
Y0009000D01*
X0040100Y0008500D02*
X0040600D01*
Y0009000D02*
X0040100Y0008500D01*
X0040600D02*
X0040100Y0009000D01*
Y0006860D02*
Y0006360D01*
X0040600Y0006860D02*
X0040100D01*
X0040600Y0006360D02*
Y0006860D01*
X0040100Y0006360D02*
X0040600D01*
Y0006860D02*
X0040100Y0006360D01*
X0040600D02*
X0040100Y0006860D01*
X0041750Y0008700D02*
Y0008200D01*
X0042250Y0008700D02*
X0041750D01*
X0042250Y0008200D02*
Y0008700D01*
X0041750Y0008200D02*
X0042250D01*
Y0008700D02*
X0041750Y0008200D01*
X0042250D02*
X0041750Y0008700D01*
X0041180Y0007170D02*
Y0006670D01*
X0041680Y0007170D02*
X0041180D01*
X0041680Y0006670D02*
Y0007170D01*
X0041180Y0006670D02*
X0041680D01*
Y0007170D02*
X0041180Y0006670D01*
X0041680D02*
X0041180Y0007170D01*
X0039180D02*
Y0006670D01*
X0039680Y0007170D02*
X0039180D01*
X0039680Y0006670D02*
Y0007170D01*
X0039180Y0006670D02*
X0039680D01*
Y0007170D02*
X0039180Y0006670D01*
X0039680D02*
X0039180Y0007170D01*
X0039070Y0009620D02*
Y0009120D01*
X0039570Y0009620D02*
X0039070D01*
X0039570Y0009120D02*
Y0009620D01*
X0039070Y0009120D02*
X0039570D01*
Y0009620D02*
X0039070Y0009120D01*
X0039570D02*
X0039070Y0009620D01*
X0036250Y0003850D02*
Y0003350D01*
X0036750Y0003850D02*
X0036250D01*
X0036750Y0003350D02*
Y0003850D01*
X0036250Y0003350D02*
X0036750D01*
Y0003850D02*
X0036250Y0003350D01*
X0036750D02*
X0036250Y0003850D01*
X0036100Y0005650D02*
Y0005150D01*
X0036600Y0005650D02*
X0036100D01*
X0036600Y0005150D02*
Y0005650D01*
X0036100Y0005150D02*
X0036600D01*
Y0005650D02*
X0036100Y0005150D01*
X0036600D02*
X0036100Y0005650D01*
X0017550Y0002500D02*
Y0002000D01*
X0018050Y0002500D02*
X0017550D01*
X0018050Y0002000D02*
Y0002500D01*
X0017550Y0002000D02*
X0018050D01*
Y0002500D02*
X0017550Y0002000D01*
X0018050D02*
X0017550Y0002500D01*
X0018200Y-0000450D02*
Y-0000950D01*
X0018700Y-0000450D02*
X0018200D01*
X0018700Y-0000950D02*
Y-0000450D01*
X0018200Y-0000950D02*
X0018700D01*
Y-0000450D02*
X0018200Y-0000950D01*
X0018700D02*
X0018200Y-0000450D01*
X0041750Y0008700D02*
Y0008200D01*
X0042250Y0008700D02*
X0041750D01*
X0042250Y0008200D02*
Y0008700D01*
X0041750Y0008200D02*
X0042250D01*
Y0008700D02*
X0041750Y0008200D01*
X0042250D02*
X0041750Y0008700D01*
X0048000Y-0000450D02*
Y-0000950D01*
X0048500Y-0000450D02*
X0048000D01*
X0048500Y-0000950D02*
Y-0000450D01*
X0048000Y-0000950D02*
X0048500D01*
Y-0000450D02*
X0048000Y-0000950D01*
X0048500D02*
X0048000Y-0000450D01*
X0036250Y0001350D02*
Y0000850D01*
X0036750Y0001350D02*
X0036250D01*
X0036750Y0000850D02*
Y0001350D01*
X0036250Y0000850D02*
X0036750D01*
Y0001350D02*
X0036250Y0000850D01*
X0036750D02*
X0036250Y0001350D01*
Y0003850D02*
Y0003350D01*
X0036750Y0003850D02*
X0036250D01*
X0036750Y0003350D02*
Y0003850D01*
X0036250Y0003350D02*
X0036750D01*
Y0003850D02*
X0036250Y0003350D01*
X0036750D02*
X0036250Y0003850D01*
X0034550Y0004000D02*
Y0003500D01*
X0035050Y0004000D02*
X0034550D01*
X0035050Y0003500D02*
Y0004000D01*
X0034550Y0003500D02*
X0035050D01*
Y0004000D02*
X0034550Y0003500D01*
X0035050D02*
X0034550Y0004000D01*
X0034330Y0009030D02*
Y0008530D01*
X0034830Y0009030D02*
X0034330D01*
X0034830Y0008530D02*
Y0009030D01*
X0034330Y0008530D02*
X0034830D01*
Y0009030D02*
X0034330Y0008530D01*
X0034830D02*
X0034330Y0009030D01*
X0016700Y0002470D02*
Y0001970D01*
X0017200Y0002470D02*
X0016700D01*
X0017200Y0001970D02*
Y0002470D01*
X0016700Y0001970D02*
X0017200D01*
Y0002470D02*
X0016700Y0001970D01*
X0017200D02*
X0016700Y0002470D01*
X0043700Y0000280D02*
Y-0000220D01*
X0044200Y0000280D02*
X0043700D01*
X0044200Y-0000220D02*
Y0000280D01*
X0043700Y-0000220D02*
X0044200D01*
Y0000280D02*
X0043700Y-0000220D01*
X0044200D02*
X0043700Y0000280D01*
X0044350Y0007400D02*
Y0006900D01*
X0044850Y0007400D02*
X0044350D01*
X0044850Y0006900D02*
Y0007400D01*
X0044350Y0006900D02*
X0044850D01*
Y0007400D02*
X0044350Y0006900D01*
X0044850D02*
X0044350Y0007400D01*
X0036900Y0009600D02*
Y0009100D01*
X0037400Y0009600D02*
X0036900D01*
X0037400Y0009100D02*
Y0009600D01*
X0036900Y0009100D02*
X0037400D01*
Y0009600D02*
X0036900Y0009100D01*
X0037400D02*
X0036900Y0009600D01*
X0027350Y0003970D02*
Y0003470D01*
X0027850Y0003970D02*
X0027350D01*
X0027850Y0003470D02*
Y0003970D01*
X0027350Y0003470D02*
X0027850D01*
Y0003970D02*
X0027350Y0003470D01*
X0027850D02*
X0027350Y0003970D01*
X0027500Y0009750D02*
Y0009250D01*
X0028000Y0009750D02*
X0027500D01*
X0028000Y0009250D02*
Y0009750D01*
X0027500Y0009250D02*
X0028000D01*
Y0009750D02*
X0027500Y0009250D01*
X0028000D02*
X0027500Y0009750D01*
X0037780Y-0000520D02*
Y-0001020D01*
X0038280Y-0000520D02*
X0037780D01*
X0038280Y-0001020D02*
Y-0000520D01*
X0037780Y-0001020D02*
X0038280D01*
Y-0000520D02*
X0037780Y-0001020D01*
X0038280D02*
X0037780Y-0000520D01*
Y0000720D02*
Y0000220D01*
X0038280Y0000720D02*
X0037780D01*
X0038280Y0000220D02*
Y0000720D01*
X0037780Y0000220D02*
X0038280D01*
Y0000720D02*
X0037780Y0000220D01*
X0038280D02*
X0037780Y0000720D01*
X0043700Y0002200D02*
Y0001700D01*
X0044200Y0002200D02*
X0043700D01*
X0044200Y0001700D02*
Y0002200D01*
X0043700Y0001700D02*
X0044200D01*
Y0002200D02*
X0043700Y0001700D01*
X0044200D02*
X0043700Y0002200D01*
Y0000280D02*
Y-0000220D01*
X0044200Y0000280D02*
X0043700D01*
X0044200Y-0000220D02*
Y0000280D01*
X0043700Y-0000220D02*
X0044200D01*
Y0000280D02*
X0043700Y-0000220D01*
X0044200D02*
X0043700Y0000280D01*
X-0000800Y0008000D02*
Y0007500D01*
X-0000300Y0008000D02*
X-0000800D01*
X-0000300Y0007500D02*
Y0008000D01*
X-0000800Y0007500D02*
X-0000300D01*
Y0008000D02*
X-0000800Y0007500D01*
X-0000300D02*
X-0000800Y0008000D01*
X0000650Y0009500D02*
Y0009000D01*
X0001150Y0009500D02*
X0000650D01*
X0001150Y0009000D02*
Y0009500D01*
X0000650Y0009000D02*
X0001150D01*
Y0009500D02*
X0000650Y0009000D01*
X0001150D02*
X0000650Y0009500D01*
X0004200Y0010600D02*
Y0010100D01*
X0004700Y0010600D02*
X0004200D01*
X0004700Y0010100D02*
Y0010600D01*
X0004200Y0010100D02*
X0004700D01*
Y0010600D02*
X0004200Y0010100D01*
X0004700D02*
X0004200Y0010600D01*
X0041250Y0005550D02*
Y0005050D01*
X0041750Y0005550D02*
X0041250D01*
X0041750Y0005050D02*
Y0005550D01*
X0041250Y0005050D02*
X0041750D01*
Y0005550D02*
X0041250Y0005050D01*
X0041750D02*
X0041250Y0005550D01*
X0040300D02*
Y0005050D01*
X0040800Y0005550D02*
X0040300D01*
X0040800Y0005050D02*
Y0005550D01*
X0040300Y0005050D02*
X0040800D01*
Y0005550D02*
X0040300Y0005050D01*
X0040800D02*
X0040300Y0005550D01*
X0019600Y0001150D02*
Y0000650D01*
X0020100Y0001150D02*
X0019600D01*
X0020100Y0000650D02*
Y0001150D01*
X0019600Y0000650D02*
X0020100D01*
Y0001150D02*
X0019600Y0000650D01*
X0020100D02*
X0019600Y0001150D01*
X0017650Y0001300D02*
Y0000800D01*
X0018150Y0001300D02*
X0017650D01*
X0018150Y0000800D02*
Y0001300D01*
X0017650Y0000800D02*
X0018150D01*
Y0001300D02*
X0017650Y0000800D01*
X0018150D02*
X0017650Y0001300D01*
X0021700Y0001100D02*
Y0000600D01*
X0022200Y0001100D02*
X0021700D01*
X0022200Y0000600D02*
Y0001100D01*
X0021700Y0000600D02*
X0022200D01*
Y0001100D02*
X0021700Y0000600D01*
X0022200D02*
X0021700Y0001100D01*
X0015750Y0007900D02*
Y0007400D01*
X0016250Y0007900D02*
X0015750D01*
X0016250Y0007400D02*
Y0007900D01*
X0015750Y0007400D02*
X0016250D01*
Y0007900D02*
X0015750Y0007400D01*
X0016250D02*
X0015750Y0007900D01*
X0002650Y0011050D02*
Y0010550D01*
X0003150Y0011050D02*
X0002650D01*
X0003150Y0010550D02*
Y0011050D01*
X0002650Y0010550D02*
X0003150D01*
Y0011050D02*
X0002650Y0010550D01*
X0003150D02*
X0002650Y0011050D01*
X0004200Y0010600D02*
Y0010100D01*
X0004700Y0010600D02*
X0004200D01*
X0004700Y0010100D02*
Y0010600D01*
X0004200Y0010100D02*
X0004700D01*
Y0010600D02*
X0004200Y0010100D01*
X0004700D02*
X0004200Y0010600D01*
X0006950Y0010750D02*
Y0010250D01*
X0007450Y0010750D02*
X0006950D01*
X0007450Y0010250D02*
Y0010750D01*
X0006950Y0010250D02*
X0007450D01*
Y0010750D02*
X0006950Y0010250D01*
X0007450D02*
X0006950Y0010750D01*
X0006500Y0010250D02*
Y0009750D01*
X0007000Y0010250D02*
X0006500D01*
X0007000Y0009750D02*
Y0010250D01*
X0006500Y0009750D02*
X0007000D01*
Y0010250D02*
X0006500Y0009750D01*
X0007000D02*
X0006500Y0010250D01*
X0020320Y0000280D02*
Y-0000220D01*
X0020820Y0000280D02*
X0020320D01*
X0020820Y-0000220D02*
Y0000280D01*
X0020320Y-0000220D02*
X0020820D01*
Y0000280D02*
X0020320Y-0000220D01*
X0020820D02*
X0020320Y0000280D01*
X0019600Y0001150D02*
Y0000650D01*
X0020100Y0001150D02*
X0019600D01*
X0020100Y0000650D02*
Y0001150D01*
X0019600Y0000650D02*
X0020100D01*
Y0001150D02*
X0019600Y0000650D01*
X0020100D02*
X0019600Y0001150D01*
X0006500Y0010250D02*
Y0009750D01*
X0007000Y0010250D02*
X0006500D01*
X0007000Y0009750D02*
Y0010250D01*
X0006500Y0009750D02*
X0007000D01*
Y0010250D02*
X0006500Y0009750D01*
X0007000D02*
X0006500Y0010250D01*
X0018450Y0007800D02*
Y0007300D01*
X0018950Y0007800D02*
X0018450D01*
X0018950Y0007300D02*
Y0007800D01*
X0018450Y0007300D02*
X0018950D01*
Y0007800D02*
X0018450Y0007300D01*
X0018950D02*
X0018450Y0007800D01*
X0000650Y0009500D02*
Y0009000D01*
X0001150Y0009500D02*
X0000650D01*
X0001150Y0009000D02*
Y0009500D01*
X0000650Y0009000D02*
X0001150D01*
Y0009500D02*
X0000650Y0009000D01*
X0001150D02*
X0000650Y0009500D01*
X0000950Y0004485D02*
Y0003985D01*
X0001450Y0004485D02*
X0000950D01*
X0001450Y0003985D02*
Y0004485D01*
X0000950Y0003985D02*
X0001450D01*
Y0004485D02*
X0000950Y0003985D01*
X0001450D02*
X0000950Y0004485D01*
X-0000150Y0006950D02*
Y0006450D01*
X0000350Y0006950D02*
X-0000150D01*
X0000350Y0006450D02*
Y0006950D01*
X-0000150Y0006450D02*
X0000350D01*
Y0006950D02*
X-0000150Y0006450D01*
X0000350D02*
X-0000150Y0006950D01*
X0037250Y-0001050D02*
Y-0001550D01*
X0037750Y-0001050D02*
X0037250D01*
X0037750Y-0001550D02*
Y-0001050D01*
X0037250Y-0001550D02*
X0037750D01*
Y-0001050D02*
X0037250Y-0001550D01*
X0037750D02*
X0037250Y-0001050D01*
X0020800Y-0000900D02*
Y-0001400D01*
X0021300Y-0000900D02*
X0020800D01*
X0021300Y-0001400D02*
Y-0000900D01*
X0020800Y-0001400D02*
X0021300D01*
Y-0000900D02*
X0020800Y-0001400D01*
X0021300D02*
X0020800Y-0000900D01*
X0010200Y-0000750D02*
Y-0001250D01*
X0010700Y-0000750D02*
X0010200D01*
X0010700Y-0001250D02*
Y-0000750D01*
X0010200Y-0001250D02*
X0010700D01*
Y-0000750D02*
X0010200Y-0001250D01*
X0010700D02*
X0010200Y-0000750D01*
X0008700Y-0000250D02*
Y-0000750D01*
X0009200Y-0000250D02*
X0008700D01*
X0009200Y-0000750D02*
Y-0000250D01*
X0008700Y-0000750D02*
X0009200D01*
Y-0000250D02*
X0008700Y-0000750D01*
X0009200D02*
X0008700Y-0000250D01*
Y0003750D02*
Y0003250D01*
X0009200Y0003750D02*
X0008700D01*
X0009200Y0003250D02*
Y0003750D01*
X0008700Y0003250D02*
X0009200D01*
Y0003750D02*
X0008700Y0003250D01*
X0009200D02*
X0008700Y0003750D01*
Y-0000250D02*
Y-0000750D01*
X0009200Y-0000250D02*
X0008700D01*
X0009200Y-0000750D02*
Y-0000250D01*
X0008700Y-0000750D02*
X0009200D01*
Y-0000250D02*
X0008700Y-0000750D01*
X0009200D02*
X0008700Y-0000250D01*
X0022050Y0002000D02*
Y0001500D01*
X0022550Y0002000D02*
X0022050D01*
X0022550Y0001500D02*
Y0002000D01*
X0022050Y0001500D02*
X0022550D01*
Y0002000D02*
X0022050Y0001500D01*
X0022550D02*
X0022050Y0002000D01*
X0040300Y0008750D02*
Y0008250D01*
X0040800Y0008750D02*
X0040300D01*
X0040800Y0008250D02*
Y0008750D01*
X0040300Y0008250D02*
X0040800D01*
Y0008750D02*
X0040300Y0008250D01*
X0040800D02*
X0040300Y0008750D01*
X0043600Y0010500D02*
Y0010000D01*
X0044100Y0010500D02*
X0043600D01*
X0044100Y0010000D02*
Y0010500D01*
X0043600Y0010000D02*
X0044100D01*
Y0010500D02*
X0043600Y0010000D01*
X0044100D02*
X0043600Y0010500D01*
X0003950Y0005100D02*
Y0004600D01*
X0004450Y0005100D02*
X0003950D01*
X0004450Y0004600D02*
Y0005100D01*
X0003950Y0004600D02*
X0004450D01*
Y0005100D02*
X0003950Y0004600D01*
X0004450D02*
X0003950Y0005100D01*
X0000950Y0004485D02*
Y0003985D01*
X0001450Y0004485D02*
X0000950D01*
X0001450Y0003985D02*
Y0004485D01*
X0000950Y0003985D02*
X0001450D01*
Y0004485D02*
X0000950Y0003985D01*
X0001450D02*
X0000950Y0004485D01*
X0036850Y0001650D02*
Y0001150D01*
X0037350Y0001650D02*
X0036850D01*
X0037350Y0001150D02*
Y0001650D01*
X0036850Y0001150D02*
X0037350D01*
Y0001650D02*
X0036850Y0001150D01*
X0037350D02*
X0036850Y0001650D01*
X0038650Y0002200D02*
Y0001700D01*
X0039150Y0002200D02*
X0038650D01*
X0039150Y0001700D02*
Y0002200D01*
X0038650Y0001700D02*
X0039150D01*
Y0002200D02*
X0038650Y0001700D01*
X0039150D02*
X0038650Y0002200D01*
X0029980Y0000280D02*
Y-0000220D01*
X0030480Y0000280D02*
X0029980D01*
X0030480Y-0000220D02*
Y0000280D01*
X0029980Y-0000220D02*
X0030480D01*
Y0000280D02*
X0029980Y-0000220D01*
X0030480D02*
X0029980Y0000280D01*
X0004300Y0008050D02*
Y0007550D01*
X0004800Y0008050D02*
X0004300D01*
X0004800Y0007550D02*
Y0008050D01*
X0004300Y0007550D02*
X0004800D01*
Y0008050D02*
X0004300Y0007550D01*
X0004800D02*
X0004300Y0008050D01*
X0022450Y-0000250D02*
Y-0000750D01*
X0022950Y-0000250D02*
X0022450D01*
X0022950Y-0000750D02*
Y-0000250D01*
X0022450Y-0000750D02*
X0022950D01*
Y-0000250D02*
X0022450Y-0000750D01*
X0022950D02*
X0022450Y-0000250D01*
X0031250Y0001900D02*
Y0001400D01*
X0031750Y0001900D02*
X0031250D01*
X0031750Y0001400D02*
Y0001900D01*
X0031250Y0001400D02*
X0031750D01*
Y0001900D02*
X0031250Y0001400D01*
X0031750D02*
X0031250Y0001900D01*
X0030570Y0002720D02*
Y0002220D01*
X0031070Y0002720D02*
X0030570D01*
X0031070Y0002220D02*
Y0002720D01*
X0030570Y0002220D02*
X0031070D01*
Y0002720D02*
X0030570Y0002220D01*
X0031070D02*
X0030570Y0002720D01*
X0021750Y0011250D02*
Y0010750D01*
X0022250Y0011250D02*
X0021750D01*
X0022250Y0010750D02*
Y0011250D01*
X0021750Y0010750D02*
X0022250D01*
Y0011250D02*
X0021750Y0010750D01*
X0022250D02*
X0021750Y0011250D01*
X0008250Y0007550D02*
Y0007050D01*
X0008750Y0007550D02*
X0008250D01*
X0008750Y0007050D02*
Y0007550D01*
X0008250Y0007050D02*
X0008750D01*
Y0007550D02*
X0008250Y0007050D01*
X0008750D02*
X0008250Y0007550D01*
X0008400Y0004550D02*
Y0004050D01*
X0008900Y0004550D02*
X0008400D01*
X0008900Y0004050D02*
Y0004550D01*
X0008400Y0004050D02*
X0008900D01*
Y0004550D02*
X0008400Y0004050D01*
X0008900D02*
X0008400Y0004550D01*
X0016150Y0004450D02*
Y0003950D01*
X0016650Y0004450D02*
X0016150D01*
X0016650Y0003950D02*
Y0004450D01*
X0016150Y0003950D02*
X0016650D01*
Y0004450D02*
X0016150Y0003950D01*
X0016650D02*
X0016150Y0004450D01*
X0016300Y0001300D02*
Y0000800D01*
X0016800Y0001300D02*
X0016300D01*
X0016800Y0000800D02*
Y0001300D01*
X0016300Y0000800D02*
X0016800D01*
Y0001300D02*
X0016300Y0000800D01*
X0016800D02*
X0016300Y0001300D01*
X0031250Y0001900D02*
Y0001400D01*
X0031750Y0001900D02*
X0031250D01*
X0031750Y0001400D02*
Y0001900D01*
X0031250Y0001400D02*
X0031750D01*
Y0001900D02*
X0031250Y0001400D01*
X0031750D02*
X0031250Y0001900D01*
X0031750Y-0000300D02*
Y-0000800D01*
X0032250Y-0000300D02*
X0031750D01*
X0032250Y-0000800D02*
Y-0000300D01*
X0031750Y-0000800D02*
X0032250D01*
Y-0000300D02*
X0031750Y-0000800D01*
X0032250D02*
X0031750Y-0000300D01*
X0025000Y0002600D02*
Y0002100D01*
X0025500Y0002600D02*
X0025000D01*
X0025500Y0002100D02*
Y0002600D01*
X0025000Y0002100D02*
X0025500D01*
Y0002600D02*
X0025000Y0002100D01*
X0025500D02*
X0025000Y0002600D01*
X0019600Y0003100D02*
Y0002600D01*
X0020100Y0003100D02*
X0019600D01*
X0020100Y0002600D02*
Y0003100D01*
X0019600Y0002600D02*
X0020100D01*
Y0003100D02*
X0019600Y0002600D01*
X0020100D02*
X0019600Y0003100D01*
X0032850Y0005300D02*
Y0004800D01*
X0033350Y0005300D02*
X0032850D01*
X0033350Y0004800D02*
Y0005300D01*
X0032850Y0004800D02*
X0033350D01*
Y0005300D02*
X0032850Y0004800D01*
X0033350D02*
X0032850Y0005300D01*
X0032800Y0004600D02*
Y0004100D01*
X0033300Y0004600D02*
X0032800D01*
X0033300Y0004100D02*
Y0004600D01*
X0032800Y0004100D02*
X0033300D01*
Y0004600D02*
X0032800Y0004100D01*
X0033300D02*
X0032800Y0004600D01*
X0006250Y0000800D02*
Y0000300D01*
X0006750Y0000800D02*
X0006250D01*
X0006750Y0000300D02*
Y0000800D01*
X0006250Y0000300D02*
X0006750D01*
Y0000800D02*
X0006250Y0000300D01*
X0006750D02*
X0006250Y0000800D01*
X0006150Y0007250D02*
Y0006750D01*
X0006650Y0007250D02*
X0006150D01*
X0006650Y0006750D02*
Y0007250D01*
X0006150Y0006750D02*
X0006650D01*
Y0007250D02*
X0006150Y0006750D01*
X0006650D02*
X0006150Y0007250D01*
X0009570Y0001280D02*
Y0000780D01*
X0010070Y0001280D02*
X0009570D01*
X0010070Y0000780D02*
Y0001280D01*
X0009570Y0000780D02*
X0010070D01*
Y0001280D02*
X0009570Y0000780D01*
X0010070D02*
X0009570Y0001280D01*
X0007450Y0000800D02*
Y0000300D01*
X0007950Y0000800D02*
X0007450D01*
X0007950Y0000300D02*
Y0000800D01*
X0007450Y0000300D02*
X0007950D01*
Y0000800D02*
X0007450Y0000300D01*
X0007950D02*
X0007450Y0000800D01*
X0004500Y0005950D02*
Y0005450D01*
X0005000Y0005950D02*
X0004500D01*
X0005000Y0005450D02*
Y0005950D01*
X0004500Y0005450D02*
X0005000D01*
Y0005950D02*
X0004500Y0005450D01*
X0005000D02*
X0004500Y0005950D01*
X0007550Y0012200D02*
Y0011700D01*
X0008050Y0012200D02*
X0007550D01*
X0008050Y0011700D02*
Y0012200D01*
X0007550Y0011700D02*
X0008050D01*
Y0012200D02*
X0007550Y0011700D01*
X0008050D02*
X0007550Y0012200D01*
X0015250Y0013000D02*
Y0012500D01*
X0015750Y0013000D02*
X0015250D01*
X0015750Y0012500D02*
Y0013000D01*
X0015250Y0012500D02*
X0015750D01*
Y0013000D02*
X0015250Y0012500D01*
X0015750D02*
X0015250Y0013000D01*
X0016100Y0005000D02*
Y0004500D01*
X0016600Y0005000D02*
X0016100D01*
X0016600Y0004500D02*
Y0005000D01*
X0016100Y0004500D02*
X0016600D01*
Y0005000D02*
X0016100Y0004500D01*
X0016600D02*
X0016100Y0005000D01*
X0024450Y0004800D02*
Y0004300D01*
X0024950Y0004800D02*
X0024450D01*
X0024950Y0004300D02*
Y0004800D01*
X0024450Y0004300D02*
X0024950D01*
Y0004800D02*
X0024450Y0004300D01*
X0024950D02*
X0024450Y0004800D01*
Y0003800D02*
Y0003300D01*
X0024950Y0003800D02*
X0024450D01*
X0024950Y0003300D02*
Y0003800D01*
X0024450Y0003300D02*
X0024950D01*
Y0003800D02*
X0024450Y0003300D01*
X0024950D02*
X0024450Y0003800D01*
X0035400Y0001850D02*
Y0001350D01*
X0035900Y0001850D02*
X0035400D01*
X0035900Y0001350D02*
Y0001850D01*
X0035400Y0001350D02*
X0035900D01*
Y0001850D02*
X0035400Y0001350D01*
X0035900D02*
X0035400Y0001850D01*
X0032800Y0004600D02*
Y0004100D01*
X0033300Y0004600D02*
X0032800D01*
X0033300Y0004100D02*
Y0004600D01*
X0032800Y0004100D02*
X0033300D01*
Y0004600D02*
X0032800Y0004100D01*
X0033300D02*
X0032800Y0004600D01*
X0005700Y0005850D02*
Y0005350D01*
X0006200Y0005850D02*
X0005700D01*
X0006200Y0005350D02*
Y0005850D01*
X0005700Y0005350D02*
X0006200D01*
Y0005850D02*
X0005700Y0005350D01*
X0006200D02*
X0005700Y0005850D01*
X0005750Y0003900D02*
Y0003400D01*
X0006250Y0003900D02*
X0005750D01*
X0006250Y0003400D02*
Y0003900D01*
X0005750Y0003400D02*
X0006250D01*
Y0003900D02*
X0005750Y0003400D01*
X0006250D02*
X0005750Y0003900D01*
X0033400Y0001700D02*
Y0001200D01*
X0033900Y0001700D02*
X0033400D01*
X0033900Y0001200D02*
Y0001700D01*
X0033400Y0001200D02*
X0033900D01*
Y0001700D02*
X0033400Y0001200D01*
X0033900D02*
X0033400Y0001700D01*
X0032500Y0004500D02*
Y0004000D01*
X0033000Y0004500D02*
X0032500D01*
X0033000Y0004000D02*
Y0004500D01*
X0032500Y0004000D02*
X0033000D01*
Y0004500D02*
X0032500Y0004000D01*
X0033000D02*
X0032500Y0004500D01*
X0004050Y0007600D02*
Y0007100D01*
X0004550Y0007600D02*
X0004050D01*
X0004550Y0007100D02*
Y0007600D01*
X0004050Y0007100D02*
X0004550D01*
Y0007600D02*
X0004050Y0007100D01*
X0004550D02*
X0004050Y0007600D01*
X0005850Y0008500D02*
Y0008000D01*
X0006350Y0008500D02*
X0005850D01*
X0006350Y0008000D02*
Y0008500D01*
X0005850Y0008000D02*
X0006350D01*
Y0008500D02*
X0005850Y0008000D01*
X0006350D02*
X0005850Y0008500D01*
X0025800Y0007500D02*
Y0007000D01*
X0026300Y0007500D02*
X0025800D01*
X0026300Y0007000D02*
Y0007500D01*
X0025800Y0007000D02*
X0026300D01*
Y0007500D02*
X0025800Y0007000D01*
X0026300D02*
X0025800Y0007500D01*
X0027200D02*
Y0007000D01*
X0027700Y0007500D02*
X0027200D01*
X0027700Y0007000D02*
Y0007500D01*
X0027200Y0007000D02*
X0027700D01*
Y0007500D02*
X0027200Y0007000D01*
X0027700D02*
X0027200Y0007500D01*
X0031900Y0002900D02*
Y0002400D01*
X0032400Y0002900D02*
X0031900D01*
X0032400Y0002400D02*
Y0002900D01*
X0031900Y0002400D02*
X0032400D01*
Y0002900D02*
X0031900Y0002400D01*
X0032400D02*
X0031900Y0002900D01*
X0032600Y0008400D02*
Y0007900D01*
X0033100Y0008400D02*
X0032600D01*
X0033100Y0007900D02*
Y0008400D01*
X0032600Y0007900D02*
X0033100D01*
Y0008400D02*
X0032600Y0007900D01*
X0033100D02*
X0032600Y0008400D01*
Y0009750D02*
Y0009250D01*
X0033100Y0009750D02*
X0032600D01*
X0033100Y0009250D02*
Y0009750D01*
X0032600Y0009250D02*
X0033100D01*
Y0009750D02*
X0032600Y0009250D01*
X0033100D02*
X0032600Y0009750D01*
X0044000Y0010450D02*
Y0009950D01*
X0044500Y0010450D02*
X0044000D01*
X0044500Y0009950D02*
Y0010450D01*
X0044000Y0009950D02*
X0044500D01*
Y0010450D02*
X0044000Y0009950D01*
X0044500D02*
X0044000Y0010450D01*
X0038350Y0005398D02*
Y0004898D01*
X0038850Y0005398D02*
X0038350D01*
X0038850Y0004898D02*
Y0005398D01*
X0038350Y0004898D02*
X0038850D01*
Y0005398D02*
X0038350Y0004898D01*
X0038850D02*
X0038350Y0005398D01*
X0032000Y0003200D02*
Y0002700D01*
X0032500Y0003200D02*
X0032000D01*
X0032500Y0002700D02*
Y0003200D01*
X0032000Y0002700D02*
X0032500D01*
Y0003200D02*
X0032000Y0002700D01*
X0032500D02*
X0032000Y0003200D01*
X0026000Y0002000D02*
Y0001500D01*
X0026500Y0002000D02*
X0026000D01*
X0026500Y0001500D02*
Y0002000D01*
X0026000Y0001500D02*
X0026500D01*
Y0002000D02*
X0026000Y0001500D01*
X0026500D02*
X0026000Y0002000D01*
X0023300Y0001900D02*
Y0001400D01*
X0023800Y0001900D02*
X0023300D01*
X0023800Y0001400D02*
Y0001900D01*
X0023300Y0001400D02*
X0023800D01*
Y0001900D02*
X0023300Y0001400D01*
X0023800D02*
X0023300Y0001900D01*
X0022300Y0002300D02*
Y0001800D01*
X0022800Y0002300D02*
X0022300D01*
X0022800Y0001800D02*
Y0002300D01*
X0022300Y0001800D02*
X0022800D01*
Y0002300D02*
X0022300Y0001800D01*
X0022800D02*
X0022300Y0002300D01*
X0019550Y0000550D02*
Y0000050D01*
X0020050Y0000550D02*
X0019550D01*
X0020050Y0000050D02*
Y0000550D01*
X0019550Y0000050D02*
X0020050D01*
Y0000550D02*
X0019550Y0000050D01*
X0020050D02*
X0019550Y0000550D01*
X0006850Y0000300D02*
Y-0000200D01*
X0007350Y0000300D02*
X0006850D01*
X0007350Y-0000200D02*
Y0000300D01*
X0006850Y-0000200D02*
X0007350D01*
Y0000300D02*
X0006850Y-0000200D01*
X0007350D02*
X0006850Y0000300D01*
X0001200Y-0000700D02*
Y-0001200D01*
X0001700Y-0000700D02*
X0001200D01*
X0001700Y-0001200D02*
Y-0000700D01*
X0001200Y-0001200D02*
X0001700D01*
Y-0000700D02*
X0001200Y-0001200D01*
X0001700D02*
X0001200Y-0000700D01*
Y0005500D02*
Y0005000D01*
X0001700Y0005500D02*
X0001200D01*
X0001700Y0005000D02*
Y0005500D01*
X0001200Y0005000D02*
X0001700D01*
Y0005500D02*
X0001200Y0005000D01*
X0001700D02*
X0001200Y0005500D01*
X0026750Y0003200D02*
Y0002700D01*
X0027250Y0003200D02*
X0026750D01*
X0027250Y0002700D02*
Y0003200D01*
X0026750Y0002700D02*
X0027250D01*
Y0003200D02*
X0026750Y0002700D01*
X0027250D02*
X0026750Y0003200D01*
X0024700Y0004400D02*
Y0003900D01*
X0025200Y0004400D02*
X0024700D01*
X0025200Y0003900D02*
Y0004400D01*
X0024700Y0003900D02*
X0025200D01*
Y0004400D02*
X0024700Y0003900D01*
X0025200D02*
X0024700Y0004400D01*
X0006950Y0004250D02*
Y0003750D01*
X0007450Y0004250D02*
X0006950D01*
X0007450Y0003750D02*
Y0004250D01*
X0006950Y0003750D02*
X0007450D01*
Y0004250D02*
X0006950Y0003750D01*
X0007450D02*
X0006950Y0004250D01*
X0003650Y0007850D02*
Y0007350D01*
X0004150Y0007850D02*
X0003650D01*
X0004150Y0007350D02*
Y0007850D01*
X0003650Y0007350D02*
X0004150D01*
Y0007850D02*
X0003650Y0007350D01*
X0004150D02*
X0003650Y0007850D01*
X0040800Y0002300D02*
Y0001800D01*
X0041300Y0002300D02*
X0040800D01*
X0041300Y0001800D02*
Y0002300D01*
X0040800Y0001800D02*
X0041300D01*
Y0002300D02*
X0040800Y0001800D01*
X0041300D02*
X0040800Y0002300D01*
X0037850Y0001250D02*
Y0000750D01*
X0038350Y0001250D02*
X0037850D01*
X0038350Y0000750D02*
Y0001250D01*
X0037850Y0000750D02*
X0038350D01*
Y0001250D02*
X0037850Y0000750D01*
X0038350D02*
X0037850Y0001250D01*
X0045400Y0003550D02*
Y0003050D01*
X0045900Y0003550D02*
X0045400D01*
X0045900Y0003050D02*
Y0003550D01*
X0045400Y0003050D02*
X0045900D01*
Y0003550D02*
X0045400Y0003050D01*
X0045900D02*
X0045400Y0003550D01*
X0044500Y0001550D02*
Y0001050D01*
X0045000Y0001550D02*
X0044500D01*
X0045000Y0001050D02*
Y0001550D01*
X0044500Y0001050D02*
X0045000D01*
Y0001550D02*
X0044500Y0001050D01*
X0045000D02*
X0044500Y0001550D01*
X0037250Y0004550D02*
Y0004050D01*
X0037750Y0004550D02*
X0037250D01*
X0037750Y0004050D02*
Y0004550D01*
X0037250Y0004050D02*
X0037750D01*
Y0004550D02*
X0037250Y0004050D01*
X0037750D02*
X0037250Y0004550D01*
X0037000Y0005300D02*
Y0004800D01*
X0037500Y0005300D02*
X0037000D01*
X0037500Y0004800D02*
Y0005300D01*
X0037000Y0004800D02*
X0037500D01*
Y0005300D02*
X0037000Y0004800D01*
X0037500D02*
X0037000Y0005300D01*
X0003250Y0005250D02*
Y0004750D01*
X0003750Y0005250D02*
X0003250D01*
X0003750Y0004750D02*
Y0005250D01*
X0003250Y0004750D02*
X0003750D01*
Y0005250D02*
X0003250Y0004750D01*
X0003750D02*
X0003250Y0005250D01*
X0004700Y0010050D02*
Y0009550D01*
X0005200Y0010050D02*
X0004700D01*
X0005200Y0009550D02*
Y0010050D01*
X0004700Y0009550D02*
X0005200D01*
Y0010050D02*
X0004700Y0009550D01*
X0005200D02*
X0004700Y0010050D01*
X0034600Y-0000250D02*
Y-0000750D01*
X0035100Y-0000250D02*
X0034600D01*
X0035100Y-0000750D02*
Y-0000250D01*
X0034600Y-0000750D02*
X0035100D01*
Y-0000250D02*
X0034600Y-0000750D01*
X0035100D02*
X0034600Y-0000250D01*
Y0002800D02*
Y0002300D01*
X0035100Y0002800D02*
X0034600D01*
X0035100Y0002300D02*
Y0002800D01*
X0034600Y0002300D02*
X0035100D01*
Y0002800D02*
X0034600Y0002300D01*
X0035100D02*
X0034600Y0002800D01*
X0048000Y0007100D02*
Y0006600D01*
X0048500Y0007100D02*
X0048000D01*
X0048500Y0006600D02*
Y0007100D01*
X0048000Y0006600D02*
X0048500D01*
Y0007100D02*
X0048000Y0006600D01*
X0048500D02*
X0048000Y0007100D01*
X0041900Y0006700D02*
Y0006200D01*
X0042400Y0006700D02*
X0041900D01*
X0042400Y0006200D02*
Y0006700D01*
X0041900Y0006200D02*
X0042400D01*
Y0006700D02*
X0041900Y0006200D01*
X0042400D02*
X0041900Y0006700D01*
X0041850Y0004450D02*
Y0003950D01*
X0042350Y0004450D02*
X0041850D01*
X0042350Y0003950D02*
Y0004450D01*
X0041850Y0003950D02*
X0042350D01*
Y0004450D02*
X0041850Y0003950D01*
X0042350D02*
X0041850Y0004450D01*
X0015300Y0000720D02*
Y0000220D01*
X0015800Y0000720D02*
X0015300D01*
X0015800Y0000220D02*
Y0000720D01*
X0015300Y0000220D02*
X0015800D01*
Y0000720D02*
X0015300Y0000220D01*
X0015800D02*
X0015300Y0000720D01*
X0017650Y0001300D02*
Y0000800D01*
X0018150Y0001300D02*
X0017650D01*
X0018150Y0000800D02*
Y0001300D01*
X0017650Y0000800D02*
X0018150D01*
Y0001300D02*
X0017650Y0000800D01*
X0018150D02*
X0017650Y0001300D01*
X0038700Y0000200D02*
Y-0000300D01*
X0039200Y0000200D02*
X0038700D01*
X0039200Y-0000300D02*
Y0000200D01*
X0038700Y-0000300D02*
X0039200D01*
Y0000200D02*
X0038700Y-0000300D01*
X0039200D02*
X0038700Y0000200D01*
Y0001600D02*
Y0001100D01*
X0039200Y0001600D02*
X0038700D01*
X0039200Y0001100D02*
Y0001600D01*
X0038700Y0001100D02*
X0039200D01*
Y0001600D02*
X0038700Y0001100D01*
X0039200D02*
X0038700Y0001600D01*
X0049850Y0002450D02*
Y0001950D01*
X0050350Y0002450D02*
X0049850D01*
X0050350Y0001950D02*
Y0002450D01*
X0049850Y0001950D02*
X0050350D01*
Y0002450D02*
X0049850Y0001950D01*
X0050350D02*
X0049850Y0002450D01*
X0004650Y0003950D02*
Y0003450D01*
X0005150Y0003950D02*
X0004650D01*
X0005150Y0003450D02*
Y0003950D01*
X0004650Y0003450D02*
X0005150D01*
Y0003950D02*
X0004650Y0003450D01*
X0005150D02*
X0004650Y0003950D01*
X0003800Y0006150D02*
Y0005650D01*
X0004300Y0006150D02*
X0003800D01*
X0004300Y0005650D02*
Y0006150D01*
X0003800Y0005650D02*
X0004300D01*
Y0006150D02*
X0003800Y0005650D01*
X0004300D02*
X0003800Y0006150D01*
X0049000Y0003250D02*
Y0002750D01*
X0049500Y0003250D02*
X0049000D01*
X0049500Y0002750D02*
Y0003250D01*
X0049000Y0002750D02*
X0049500D01*
Y0003250D02*
X0049000Y0002750D01*
X0049500D02*
X0049000Y0003250D01*
X0048800Y0003900D02*
Y0003400D01*
X0049300Y0003900D02*
X0048800D01*
X0049300Y0003400D02*
Y0003900D01*
X0048800Y0003400D02*
X0049300D01*
Y0003900D02*
X0048800Y0003400D01*
X0049300D02*
X0048800Y0003900D01*
X0032000Y0009700D02*
Y0009200D01*
X0032500Y0009700D02*
X0032000D01*
X0032500Y0009200D02*
Y0009700D01*
X0032000Y0009200D02*
X0032500D01*
Y0009700D02*
X0032000Y0009200D01*
X0032500D02*
X0032000Y0009700D01*
X0029100Y0010000D02*
Y0009500D01*
X0029600Y0010000D02*
X0029100D01*
X0029600Y0009500D02*
Y0010000D01*
X0029100Y0009500D02*
X0029600D01*
Y0010000D02*
X0029100Y0009500D01*
X0029600D02*
X0029100Y0010000D01*
X0023300Y0008700D02*
Y0008200D01*
X0023800Y0008700D02*
X0023300D01*
X0023800Y0008200D02*
Y0008700D01*
X0023300Y0008200D02*
X0023800D01*
Y0008700D02*
X0023300Y0008200D01*
X0023800D02*
X0023300Y0008700D01*
X0047050Y0004850D02*
Y0004350D01*
X0047550Y0004850D02*
X0047050D01*
X0047550Y0004350D02*
Y0004850D01*
X0047050Y0004350D02*
X0047550D01*
Y0004850D02*
X0047050Y0004350D01*
X0047550D02*
X0047050Y0004850D01*
X0002700Y0003900D02*
Y0003400D01*
X0003200Y0003900D02*
X0002700D01*
X0003200Y0003400D02*
Y0003900D01*
X0002700Y0003400D02*
X0003200D01*
Y0003900D02*
X0002700Y0003400D01*
X0003200D02*
X0002700Y0003900D01*
X0012600Y0008900D02*
Y0008400D01*
X0013100Y0008900D02*
X0012600D01*
X0013100Y0008400D02*
Y0008900D01*
X0012600Y0008400D02*
X0013100D01*
Y0008900D02*
X0012600Y0008400D01*
X0013100D02*
X0012600Y0008900D01*
X0025800D02*
Y0008400D01*
X0026300Y0008900D02*
X0025800D01*
X0026300Y0008400D02*
Y0008900D01*
X0025800Y0008400D02*
X0026300D01*
Y0008900D02*
X0025800Y0008400D01*
X0026300D02*
X0025800Y0008900D01*
X0026200Y0006400D02*
Y0005900D01*
X0026700Y0006400D02*
X0026200D01*
X0026700Y0005900D02*
Y0006400D01*
X0026200Y0005900D02*
X0026700D01*
Y0006400D02*
X0026200Y0005900D01*
X0026700D02*
X0026200Y0006400D01*
X0037450Y0006800D02*
Y0006300D01*
X0037950Y0006800D02*
X0037450D01*
X0037950Y0006300D02*
Y0006800D01*
X0037450Y0006300D02*
X0037950D01*
Y0006800D02*
X0037450Y0006300D01*
X0037950D02*
X0037450Y0006800D01*
X0040700Y0003100D02*
Y0002600D01*
X0041200Y0003100D02*
X0040700D01*
X0041200Y0002600D02*
Y0003100D01*
X0040700Y0002600D02*
X0041200D01*
Y0003100D02*
X0040700Y0002600D01*
X0041200D02*
X0040700Y0003100D01*
X0017900Y0000800D02*
Y0000300D01*
X0018400Y0000800D02*
X0017900D01*
X0018400Y0000300D02*
Y0000800D01*
X0017900Y0000300D02*
X0018400D01*
Y0000800D02*
X0017900Y0000300D01*
X0018400D02*
X0017900Y0000800D01*
X0017000Y0002750D02*
Y0002250D01*
X0017500Y0002750D02*
X0017000D01*
X0017500Y0002250D02*
Y0002750D01*
X0017000Y0002250D02*
X0017500D01*
Y0002750D02*
X0017000Y0002250D01*
X0017500D02*
X0017000Y0002750D01*
X0040850Y0005100D02*
Y0004600D01*
X0041350Y0005100D02*
X0040850D01*
X0041350Y0004600D02*
Y0005100D01*
X0040850Y0004600D02*
X0041350D01*
Y0005100D02*
X0040850Y0004600D01*
X0041350D02*
X0040850Y0005100D01*
X0032600Y0005000D02*
Y0004500D01*
X0033100Y0005000D02*
X0032600D01*
X0033100Y0004500D02*
Y0005000D01*
X0032600Y0004500D02*
X0033100D01*
Y0005000D02*
X0032600Y0004500D01*
X0033100D02*
X0032600Y0005000D01*
X0029300D02*
Y0004500D01*
X0029800Y0005000D02*
X0029300D01*
X0029800Y0004500D02*
Y0005000D01*
X0029300Y0004500D02*
X0029800D01*
Y0005000D02*
X0029300Y0004500D01*
X0029800D02*
X0029300Y0005000D01*
X0024100Y0005150D02*
Y0004650D01*
X0024600Y0005150D02*
X0024100D01*
X0024600Y0004650D02*
Y0005150D01*
X0024100Y0004650D02*
X0024600D01*
Y0005150D02*
X0024100Y0004650D01*
X0024600D02*
X0024100Y0005150D01*
X0038700Y0008000D02*
Y0007500D01*
X0039200Y0008000D02*
X0038700D01*
X0039200Y0007500D02*
Y0008000D01*
X0038700Y0007500D02*
X0039200D01*
Y0008000D02*
X0038700Y0007500D01*
X0039200D02*
X0038700Y0008000D01*
X0037000Y0007250D02*
Y0006750D01*
X0037500Y0007250D02*
X0037000D01*
X0037500Y0006750D02*
Y0007250D01*
X0037000Y0006750D02*
X0037500D01*
Y0007250D02*
X0037000Y0006750D01*
X0037500D02*
X0037000Y0007250D01*
X0032500Y0007100D02*
Y0006600D01*
X0033000Y0007100D02*
X0032500D01*
X0033000Y0006600D02*
Y0007100D01*
X0032500Y0006600D02*
X0033000D01*
Y0007100D02*
X0032500Y0006600D01*
X0033000D02*
X0032500Y0007100D01*
X0027800Y0006000D02*
Y0005500D01*
X0028300Y0006000D02*
X0027800D01*
X0028300Y0005500D02*
Y0006000D01*
X0027800Y0005500D02*
X0028300D01*
Y0006000D02*
X0027800Y0005500D01*
X0028300D02*
X0027800Y0006000D01*
X0042300Y0007400D02*
Y0006900D01*
X0042800Y0007400D02*
X0042300D01*
X0042800Y0006900D02*
Y0007400D01*
X0042300Y0006900D02*
X0042800D01*
Y0007400D02*
X0042300Y0006900D01*
X0042800D02*
X0042300Y0007400D01*
X0031400Y0006300D02*
Y0005800D01*
X0031900Y0006300D02*
X0031400D01*
X0031900Y0005800D02*
Y0006300D01*
X0031400Y0005800D02*
X0031900D01*
Y0006300D02*
X0031400Y0005800D01*
X0031900D02*
X0031400Y0006300D01*
X0031100Y0007650D02*
Y0007150D01*
X0031600Y0007650D02*
X0031100D01*
X0031600Y0007150D02*
Y0007650D01*
X0031100Y0007150D02*
X0031600D01*
Y0007650D02*
X0031100Y0007150D01*
X0031600D02*
X0031100Y0007650D01*
X0042200Y0005500D02*
Y0005000D01*
X0042700Y0005500D02*
X0042200D01*
X0042700Y0005000D02*
Y0005500D01*
X0042200Y0005000D02*
X0042700D01*
Y0005500D02*
X0042200Y0005000D01*
X0042700D02*
X0042200Y0005500D01*
X0037500Y0012800D02*
Y0012300D01*
X0038000Y0012800D02*
X0037500D01*
X0038000Y0012300D02*
Y0012800D01*
X0037500Y0012300D02*
X0038000D01*
Y0012800D02*
X0037500Y0012300D01*
X0038000D02*
X0037500Y0012800D01*
X0020400D02*
Y0012300D01*
X0020900Y0012800D02*
X0020400D01*
X0020900Y0012300D02*
Y0012800D01*
X0020400Y0012300D02*
X0020900D01*
Y0012800D02*
X0020400Y0012300D01*
X0020900D02*
X0020400Y0012800D01*
Y0009700D02*
Y0009200D01*
X0020900Y0009700D02*
X0020400D01*
X0020900Y0009200D02*
Y0009700D01*
X0020400Y0009200D02*
X0020900D01*
Y0009700D02*
X0020400Y0009200D01*
X0020900D02*
X0020400Y0009700D01*
X0012400Y0009400D02*
Y0008900D01*
X0012900Y0009400D02*
X0012400D01*
X0012900Y0008900D02*
Y0009400D01*
X0012400Y0008900D02*
X0012900D01*
Y0009400D02*
X0012400Y0008900D01*
X0012900D02*
X0012400Y0009400D01*
X0002200Y0003700D02*
Y0003200D01*
X0002700Y0003700D02*
X0002200D01*
X0002700Y0003200D02*
Y0003700D01*
X0002200Y0003200D02*
X0002700D01*
Y0003700D02*
X0002200Y0003200D01*
X0002700D02*
X0002200Y0003700D01*
X0038450Y0006400D02*
Y0005900D01*
X0038950Y0006400D02*
X0038450D01*
X0038950Y0005900D02*
Y0006400D01*
X0038450Y0005900D02*
X0038950D01*
Y0006400D02*
X0038450Y0005900D01*
X0038950D02*
X0038450Y0006400D01*
X0037350Y0012000D02*
Y0011500D01*
X0037850Y0012000D02*
X0037350D01*
X0037850Y0011500D02*
Y0012000D01*
X0037350Y0011500D02*
X0037850D01*
Y0012000D02*
X0037350Y0011500D01*
X0037850D02*
X0037350Y0012000D01*
X0007200Y0009050D02*
Y0008550D01*
X0007700Y0009050D02*
X0007200D01*
X0007700Y0008550D02*
Y0009050D01*
X0007200Y0008550D02*
X0007700D01*
Y0009050D02*
X0007200Y0008550D01*
X0007700D02*
X0007200Y0009050D01*
X0007000Y0005250D02*
Y0004750D01*
X0007500Y0005250D02*
X0007000D01*
X0007500Y0004750D02*
Y0005250D01*
X0007000Y0004750D02*
X0007500D01*
Y0005250D02*
X0007000Y0004750D01*
X0007500D02*
X0007000Y0005250D01*
X0030550Y0006500D02*
Y0006000D01*
X0031050Y0006500D02*
X0030550D01*
X0031050Y0006000D02*
Y0006500D01*
X0030550Y0006000D02*
X0031050D01*
Y0006500D02*
X0030550Y0006000D01*
X0031050D02*
X0030550Y0006500D01*
X0032000Y0011200D02*
Y0010700D01*
X0032500Y0011200D02*
X0032000D01*
X0032500Y0010700D02*
Y0011200D01*
X0032000Y0010700D02*
X0032500D01*
Y0011200D02*
X0032000Y0010700D01*
X0032500D02*
X0032000Y0011200D01*
X0029300Y0004650D02*
Y0004150D01*
X0029800Y0004650D02*
X0029300D01*
X0029800Y0004150D02*
Y0004650D01*
X0029300Y0004150D02*
X0029800D01*
Y0004650D02*
X0029300Y0004150D01*
X0029800D02*
X0029300Y0004650D01*
Y0003300D02*
Y0002800D01*
X0029800Y0003300D02*
X0029300D01*
X0029800Y0002800D02*
Y0003300D01*
X0029300Y0002800D02*
X0029800D01*
Y0003300D02*
X0029300Y0002800D01*
X0029800D02*
X0029300Y0003300D01*
X0014100Y0006300D02*
Y0005800D01*
X0014600Y0006300D02*
X0014100D01*
X0014600Y0005800D02*
Y0006300D01*
X0014100Y0005800D02*
X0014600D01*
Y0006300D02*
X0014100Y0005800D01*
X0014600D02*
X0014100Y0006300D01*
Y0013350D02*
Y0012850D01*
X0014600Y0013350D02*
X0014100D01*
X0014600Y0012850D02*
Y0013350D01*
X0014100Y0012850D02*
X0014600D01*
Y0013350D02*
X0014100Y0012850D01*
X0014600D02*
X0014100Y0013350D01*
X0039050Y0012850D02*
Y0012350D01*
X0039550Y0012850D02*
X0039050D01*
X0039550Y0012350D02*
Y0012850D01*
X0039050Y0012350D02*
X0039550D01*
Y0012850D02*
X0039050Y0012350D01*
X0039550D02*
X0039050Y0012850D01*
X0008850Y0009350D02*
Y0008850D01*
X0009350Y0009350D02*
X0008850D01*
X0009350Y0008850D02*
Y0009350D01*
X0008850Y0008850D02*
X0009350D01*
Y0009350D02*
X0008850Y0008850D01*
X0009350D02*
X0008850Y0009350D01*
X0011700Y0003000D02*
Y0002500D01*
X0012200Y0003000D02*
X0011700D01*
X0012200Y0002500D02*
Y0003000D01*
X0011700Y0002500D02*
X0012200D01*
Y0003000D02*
X0011700Y0002500D01*
X0012200D02*
X0011700Y0003000D01*
X0035550Y0011700D02*
Y0011200D01*
X0036050Y0011700D02*
X0035550D01*
X0036050Y0011200D02*
Y0011700D01*
X0035550Y0011200D02*
X0036050D01*
Y0011700D02*
X0035550Y0011200D01*
X0036050D02*
X0035550Y0011700D01*
X0038900Y0013350D02*
Y0012850D01*
X0039400Y0013350D02*
X0038900D01*
X0039400Y0012850D02*
Y0013350D01*
X0038900Y0012850D02*
X0039400D01*
Y0013350D02*
X0038900Y0012850D01*
X0039400D02*
X0038900Y0013350D01*
X0043400D02*
Y0012850D01*
X0043900Y0013350D02*
X0043400D01*
X0043900Y0012850D02*
Y0013350D01*
X0043400Y0012850D02*
X0043900D01*
Y0013350D02*
X0043400Y0012850D01*
X0043900D02*
X0043400Y0013350D01*
X0011000Y0006250D02*
Y0005750D01*
X0011500Y0006250D02*
X0011000D01*
X0011500Y0005750D02*
Y0006250D01*
X0011000Y0005750D02*
X0011500D01*
Y0006250D02*
X0011000Y0005750D01*
X0011500D02*
X0011000Y0006250D01*
X0011400Y-0000650D02*
Y-0001150D01*
X0011900Y-0000650D02*
X0011400D01*
X0011900Y-0001150D02*
Y-0000650D01*
X0011400Y-0001150D02*
X0011900D01*
Y-0000650D02*
X0011400Y-0001150D01*
X0011900D02*
X0011400Y-0000650D01*
X0035050Y-0000500D02*
Y-0001000D01*
X0035550Y-0000500D02*
X0035050D01*
X0035550Y-0001000D02*
Y-0000500D01*
X0035050Y-0001000D02*
X0035550D01*
Y-0000500D02*
X0035050Y-0001000D01*
X0035550D02*
X0035050Y-0000500D01*
X0034950Y0006350D02*
Y0005850D01*
X0035450Y0006350D02*
X0034950D01*
X0035450Y0005850D02*
Y0006350D01*
X0034950Y0005850D02*
X0035450D01*
Y0006350D02*
X0034950Y0005850D01*
X0035450D02*
X0034950Y0006350D01*
X0039400Y0008000D02*
Y0007500D01*
X0039900Y0008000D02*
X0039400D01*
X0039900Y0007500D02*
Y0008000D01*
X0039400Y0007500D02*
X0039900D01*
Y0008000D02*
X0039400Y0007500D01*
X0039900D02*
X0039400Y0008000D01*
X0016600Y0005200D02*
Y0004700D01*
X0017100Y0005200D02*
X0016600D01*
X0017100Y0004700D02*
Y0005200D01*
X0016600Y0004700D02*
X0017100D01*
Y0005200D02*
X0016600Y0004700D01*
X0017100D02*
X0016600Y0005200D01*
Y0012700D02*
Y0012200D01*
X0017100Y0012700D02*
X0016600D01*
X0017100Y0012200D02*
Y0012700D01*
X0016600Y0012200D02*
X0017100D01*
Y0012700D02*
X0016600Y0012200D01*
X0017100D02*
X0016600Y0012700D01*
X0036850Y0012450D02*
Y0011950D01*
X0037350Y0012450D02*
X0036850D01*
X0037350Y0011950D02*
Y0012450D01*
X0036850Y0011950D02*
X0037350D01*
Y0012450D02*
X0036850Y0011950D01*
X0037350D02*
X0036850Y0012450D01*
X0038100Y0004650D02*
Y0004150D01*
X0038600Y0004650D02*
X0038100D01*
X0038600Y0004150D02*
Y0004650D01*
X0038100Y0004150D02*
X0038600D01*
Y0004650D02*
X0038100Y0004150D01*
X0038600D02*
X0038100Y0004650D01*
X0012550Y0007950D02*
Y0007450D01*
X0013050Y0007950D02*
X0012550D01*
X0013050Y0007450D02*
Y0007950D01*
X0012550Y0007450D02*
X0013050D01*
Y0007950D02*
X0012550Y0007450D01*
X0013050D02*
X0012550Y0007950D01*
X0012500Y0004050D02*
Y0003550D01*
X0013000Y0004050D02*
X0012500D01*
X0013000Y0003550D02*
Y0004050D01*
X0012500Y0003550D02*
X0013000D01*
Y0004050D02*
X0012500Y0003550D01*
X0013000D02*
X0012500Y0004050D01*
X0040800Y0002300D02*
Y0001800D01*
X0041300Y0002300D02*
X0040800D01*
X0041300Y0001800D02*
Y0002300D01*
X0040800Y0001800D02*
X0041300D01*
Y0002300D02*
X0040800Y0001800D01*
X0041300D02*
X0040800Y0002300D01*
X0004050Y0006900D02*
Y0006400D01*
X0004550Y0006900D02*
X0004050D01*
X0004550Y0006400D02*
Y0006900D01*
X0004050Y0006400D02*
X0004550D01*
Y0006900D02*
X0004050Y0006400D01*
X0004550D02*
X0004050Y0006900D01*
X0004200Y0009950D02*
Y0009450D01*
X0004700Y0009950D02*
X0004200D01*
X0004700Y0009450D02*
Y0009950D01*
X0004200Y0009450D02*
X0004700D01*
Y0009950D02*
X0004200Y0009450D01*
X0004700D02*
X0004200Y0009950D01*
X0008200Y0009800D02*
Y0009300D01*
X0008700Y0009800D02*
X0008200D01*
X0008700Y0009300D02*
Y0009800D01*
X0008200Y0009300D02*
X0008700D01*
Y0009800D02*
X0008200Y0009300D01*
X0008700D02*
X0008200Y0009800D01*
X0010050Y0009150D02*
Y0008650D01*
X0010550Y0009150D02*
X0010050D01*
X0010550Y0008650D02*
Y0009150D01*
X0010050Y0008650D02*
X0010550D01*
Y0009150D02*
X0010050Y0008650D01*
X0010550D02*
X0010050Y0009150D01*
X0013300Y0009300D02*
Y0008800D01*
X0013800Y0009300D02*
X0013300D01*
X0013800Y0008800D02*
Y0009300D01*
X0013300Y0008800D02*
X0013800D01*
Y0009300D02*
X0013300Y0008800D01*
X0013800D02*
X0013300Y0009300D01*
X0021450Y0009400D02*
Y0008900D01*
X0021950Y0009400D02*
X0021450D01*
X0021950Y0008900D02*
Y0009400D01*
X0021450Y0008900D02*
X0021950D01*
Y0009400D02*
X0021450Y0008900D01*
X0021950D02*
X0021450Y0009400D01*
X0021400Y0012600D02*
Y0012100D01*
X0021900Y0012600D02*
X0021400D01*
X0021900Y0012100D02*
Y0012600D01*
X0021400Y0012100D02*
X0021900D01*
Y0012600D02*
X0021400Y0012100D01*
X0021900D02*
X0021400Y0012600D01*
X0029000D02*
Y0012100D01*
X0029500Y0012600D02*
X0029000D01*
X0029500Y0012100D02*
Y0012600D01*
X0029000Y0012100D02*
X0029500D01*
Y0012600D02*
X0029000Y0012100D01*
X0029500D02*
X0029000Y0012600D01*
X0038000Y0003950D02*
Y0003450D01*
X0038500Y0003950D02*
X0038000D01*
X0038500Y0003450D02*
Y0003950D01*
X0038000Y0003450D02*
X0038500D01*
Y0003950D02*
X0038000Y0003450D01*
X0038500D02*
X0038000Y0003950D01*
X0037250Y0002900D02*
Y0002400D01*
X0037750Y0002900D02*
X0037250D01*
X0037750Y0002400D02*
Y0002900D01*
X0037250Y0002400D02*
X0037750D01*
Y0002900D02*
X0037250Y0002400D01*
X0037750D02*
X0037250Y0002900D01*
Y0004550D02*
Y0004050D01*
X0037750Y0004550D02*
X0037250D01*
X0037750Y0004050D02*
Y0004550D01*
X0037250Y0004050D02*
X0037750D01*
Y0004550D02*
X0037250Y0004050D01*
X0037750D02*
X0037250Y0004550D01*
X0009050Y0008800D02*
Y0008300D01*
X0009550Y0008800D02*
X0009050D01*
X0009550Y0008300D02*
Y0008800D01*
X0009050Y0008300D02*
X0009550D01*
Y0008800D02*
X0009050Y0008300D01*
X0009550D02*
X0009050Y0008800D01*
X0012950Y0008950D02*
Y0008450D01*
X0013450Y0008950D02*
X0012950D01*
X0013450Y0008450D02*
Y0008950D01*
X0012950Y0008450D02*
X0013450D01*
Y0008950D02*
X0012950Y0008450D01*
X0013450D02*
X0012950Y0008950D01*
X0020300Y0008900D02*
Y0008400D01*
X0020800Y0008900D02*
X0020300D01*
X0020800Y0008400D02*
Y0008900D01*
X0020300Y0008400D02*
X0020800D01*
Y0008900D02*
X0020300Y0008400D01*
X0020800D02*
X0020300Y0008900D01*
Y0006350D02*
Y0005850D01*
X0020800Y0006350D02*
X0020300D01*
X0020800Y0005850D02*
Y0006350D01*
X0020300Y0005850D02*
X0020800D01*
Y0006350D02*
X0020300Y0005850D01*
X0020800D02*
X0020300Y0006350D01*
X0028150Y0006000D02*
Y0005500D01*
X0028650Y0006000D02*
X0028150D01*
X0028650Y0005500D02*
Y0006000D01*
X0028150Y0005500D02*
X0028650D01*
Y0006000D02*
X0028150Y0005500D01*
X0028650D02*
X0028150Y0006000D01*
X0032700Y0007550D02*
Y0007050D01*
X0033200Y0007550D02*
X0032700D01*
X0033200Y0007050D02*
Y0007550D01*
X0032700Y0007050D02*
X0033200D01*
Y0007550D02*
X0032700Y0007050D01*
X0033200D02*
X0032700Y0007550D01*
X0036650Y0006750D02*
Y0006250D01*
X0037150Y0006750D02*
X0036650D01*
X0037150Y0006250D02*
Y0006750D01*
X0036650Y0006250D02*
X0037150D01*
Y0006750D02*
X0036650Y0006250D01*
X0037150D02*
X0036650Y0006750D01*
X0036750Y0003450D02*
Y0002950D01*
X0037250Y0003450D02*
X0036750D01*
X0037250Y0002950D02*
Y0003450D01*
X0036750Y0002950D02*
X0037250D01*
Y0003450D02*
X0036750Y0002950D01*
X0037250D02*
X0036750Y0003450D01*
X0043000Y0005600D02*
Y0005100D01*
X0043500Y0005600D02*
X0043000D01*
X0043500Y0005100D02*
Y0005600D01*
X0043000Y0005100D02*
X0043500D01*
Y0005600D02*
X0043000Y0005100D01*
X0043500D02*
X0043000Y0005600D01*
X0040400Y0006350D02*
Y0005850D01*
X0040900Y0006350D02*
X0040400D01*
X0040900Y0005850D02*
Y0006350D01*
X0040400Y0005850D02*
X0040900D01*
Y0006350D02*
X0040400Y0005850D01*
X0040900D02*
X0040400Y0006350D01*
X0037100Y0005650D02*
Y0005150D01*
X0037600Y0005650D02*
X0037100D01*
X0037600Y0005150D02*
Y0005650D01*
X0037100Y0005150D02*
X0037600D01*
Y0005650D02*
X0037100Y0005150D01*
X0037600D02*
X0037100Y0005650D01*
X0037150Y0006900D02*
Y0006400D01*
X0037650Y0006900D02*
X0037150D01*
X0037650Y0006400D02*
Y0006900D01*
X0037150Y0006400D02*
X0037650D01*
Y0006900D02*
X0037150Y0006400D01*
X0037650D02*
X0037150Y0006900D01*
X0030800Y0007550D02*
Y0007050D01*
X0031300Y0007550D02*
X0030800D01*
X0031300Y0007050D02*
Y0007550D01*
X0030800Y0007050D02*
X0031300D01*
Y0007550D02*
X0030800Y0007050D01*
X0031300D02*
X0030800Y0007550D01*
X0026400Y0011350D02*
Y0010850D01*
X0026900Y0011350D02*
X0026400D01*
X0026900Y0010850D02*
Y0011350D01*
X0026400Y0010850D02*
X0026900D01*
Y0011350D02*
X0026400Y0010850D01*
X0026900D02*
X0026400Y0011350D01*
X0003000Y0006700D02*
Y0006200D01*
X0003500Y0006700D02*
X0003000D01*
X0003500Y0006200D02*
Y0006700D01*
X0003000Y0006200D02*
X0003500D01*
Y0006700D02*
X0003000Y0006200D01*
X0003500D02*
X0003000Y0006700D01*
X0025000Y0002600D02*
Y0002100D01*
X0025500Y0002600D02*
X0025000D01*
X0025500Y0002100D02*
Y0002600D01*
X0025000Y0002100D02*
X0025500D01*
Y0002600D02*
X0025000Y0002100D01*
X0025500D02*
X0025000Y0002600D01*
X0036100Y0008500D02*
Y0008000D01*
X0036600Y0008500D02*
X0036100D01*
X0036600Y0008000D02*
Y0008500D01*
X0036100Y0008000D02*
X0036600D01*
Y0008500D02*
X0036100Y0008000D01*
X0036600D02*
X0036100Y0008500D01*
X0036500Y0009500D02*
Y0009000D01*
X0037000Y0009500D02*
X0036500D01*
X0037000Y0009000D02*
Y0009500D01*
X0036500Y0009000D02*
X0037000D01*
Y0009500D02*
X0036500Y0009000D01*
X0037000D02*
X0036500Y0009500D01*
X0038300Y0009200D02*
Y0008700D01*
X0038800Y0009200D02*
X0038300D01*
X0038800Y0008700D02*
Y0009200D01*
X0038300Y0008700D02*
X0038800D01*
Y0009200D02*
X0038300Y0008700D01*
X0038800D02*
X0038300Y0009200D01*
X0040300Y0009400D02*
Y0008900D01*
X0040800Y0009400D02*
X0040300D01*
X0040800Y0008900D02*
Y0009400D01*
X0040300Y0008900D02*
X0040800D01*
Y0009400D02*
X0040300Y0008900D01*
X0040800D02*
X0040300Y0009400D01*
X0002450Y0008450D02*
Y0007950D01*
X0002950Y0008450D02*
X0002450D01*
X0002950Y0007950D02*
Y0008450D01*
X0002450Y0007950D02*
X0002950D01*
Y0008450D02*
X0002450Y0007950D01*
X0002950D02*
X0002450Y0008450D01*
X0005200Y-0000900D02*
Y-0001400D01*
X0005700Y-0000900D02*
X0005200D01*
X0005700Y-0001400D02*
Y-0000900D01*
X0005200Y-0001400D02*
X0005700D01*
Y-0000900D02*
X0005200Y-0001400D01*
X0005700D02*
X0005200Y-0000900D01*
X0020050Y0000700D02*
Y0000200D01*
X0020550Y0000700D02*
X0020050D01*
X0020550Y0000200D02*
Y0000700D01*
X0020050Y0000200D02*
X0020550D01*
Y0000700D02*
X0020050Y0000200D01*
X0020550D02*
X0020050Y0000700D01*
X0026900Y0000250D02*
Y-0000250D01*
X0027400Y0000250D02*
X0026900D01*
X0027400Y-0000250D02*
Y0000250D01*
X0026900Y-0000250D02*
X0027400D01*
Y0000250D02*
X0026900Y-0000250D01*
X0027400D02*
X0026900Y0000250D01*
X0021300Y0003400D02*
Y0002900D01*
X0021800Y0003400D02*
X0021300D01*
X0021800Y0002900D02*
Y0003400D01*
X0021300Y0002900D02*
X0021800D01*
Y0003400D02*
X0021300Y0002900D01*
X0021800D02*
X0021300Y0003400D01*
X0005600Y0007150D02*
Y0006650D01*
X0006100Y0007150D02*
X0005600D01*
X0006100Y0006650D02*
Y0007150D01*
X0005600Y0006650D02*
X0006100D01*
Y0007150D02*
X0005600Y0006650D01*
X0006100D02*
X0005600Y0007150D01*
X0040300Y0009750D02*
Y0009250D01*
X0040800Y0009750D02*
X0040300D01*
X0040800Y0009250D02*
Y0009750D01*
X0040300Y0009250D02*
X0040800D01*
Y0009750D02*
X0040300Y0009250D01*
X0040800D02*
X0040300Y0009750D01*
X0032300Y0009850D02*
Y0009350D01*
X0032800Y0009850D02*
X0032300D01*
X0032800Y0009350D02*
Y0009850D01*
X0032300Y0009350D02*
X0032800D01*
Y0009850D02*
X0032300Y0009350D01*
X0032800D02*
X0032300Y0009850D01*
X0030800Y0008500D02*
Y0008000D01*
X0031300Y0008500D02*
X0030800D01*
X0031300Y0008000D02*
Y0008500D01*
X0030800Y0008000D02*
X0031300D01*
Y0008500D02*
X0030800Y0008000D01*
X0031300D02*
X0030800Y0008500D01*
X0024550Y0011030D02*
Y0010530D01*
X0025050Y0011030D02*
X0024550D01*
X0025050Y0010530D02*
Y0011030D01*
X0024550Y0010530D02*
X0025050D01*
Y0011030D02*
X0024550Y0010530D01*
X0025050D02*
X0024550Y0011030D01*
X0046650Y0001000D02*
Y0000500D01*
X0047150Y0001000D02*
X0046650D01*
X0047150Y0000500D02*
Y0001000D01*
X0046650Y0000500D02*
X0047150D01*
Y0001000D02*
X0046650Y0000500D01*
X0047150D02*
X0046650Y0001000D01*
X0049250Y0000950D02*
Y0000450D01*
X0049750Y0000950D02*
X0049250D01*
X0049750Y0000450D02*
Y0000950D01*
X0049250Y0000450D02*
X0049750D01*
Y0000950D02*
X0049250Y0000450D01*
X0049750D02*
X0049250Y0000950D01*
X-0000100Y0008050D02*
Y0007550D01*
X0000400Y0008050D02*
X-0000100D01*
X0000400Y0007550D02*
Y0008050D01*
X-0000100Y0007550D02*
X0000400D01*
Y0008050D02*
X-0000100Y0007550D01*
X0000400D02*
X-0000100Y0008050D01*
X0000950Y-0001050D02*
Y-0001550D01*
X0001450Y-0001050D02*
X0000950D01*
X0001450Y-0001550D02*
Y-0001050D01*
X0000950Y-0001550D02*
X0001450D01*
Y-0001050D02*
X0000950Y-0001550D01*
X0001450D02*
X0000950Y-0001050D01*
X0020000Y-0000150D02*
Y-0000650D01*
X0020500Y-0000150D02*
X0020000D01*
X0020500Y-0000650D02*
Y-0000150D01*
X0020000Y-0000650D02*
X0020500D01*
Y-0000150D02*
X0020000Y-0000650D01*
X0020500D02*
X0020000Y-0000150D01*
X0021300Y0001650D02*
Y0001150D01*
X0021800Y0001650D02*
X0021300D01*
X0021800Y0001150D02*
Y0001650D01*
X0021300Y0001150D02*
X0021800D01*
Y0001650D02*
X0021300Y0001150D01*
X0021800D02*
X0021300Y0001650D01*
X0025900Y0001600D02*
Y0001100D01*
X0026400Y0001600D02*
X0025900D01*
X0026400Y0001100D02*
Y0001600D01*
X0025900Y0001100D02*
X0026400D01*
Y0001600D02*
X0025900Y0001100D01*
X0026400D02*
X0025900Y0001600D01*
X0027150Y-0000350D02*
Y-0000850D01*
X0027650Y-0000350D02*
X0027150D01*
X0027650Y-0000850D02*
Y-0000350D01*
X0027150Y-0000850D02*
X0027650D01*
Y-0000350D02*
X0027150Y-0000850D01*
X0027650D02*
X0027150Y-0000350D01*
X0028750Y0002800D02*
Y0002300D01*
X0029250Y0002800D02*
X0028750D01*
X0029250Y0002300D02*
Y0002800D01*
X0028750Y0002300D02*
X0029250D01*
Y0002800D02*
X0028750Y0002300D01*
X0029250D02*
X0028750Y0002800D01*
X0028950Y0006550D02*
Y0006050D01*
X0029450Y0006550D02*
X0028950D01*
X0029450Y0006050D02*
Y0006550D01*
X0028950Y0006050D02*
X0029450D01*
Y0006550D02*
X0028950Y0006050D01*
X0029450D02*
X0028950Y0006550D01*
X0014650Y0008050D02*
Y0007550D01*
X0015150Y0008050D02*
X0014650D01*
X0015150Y0007550D02*
Y0008050D01*
X0014650Y0007550D02*
X0015150D01*
Y0008050D02*
X0014650Y0007550D01*
X0015150D02*
X0014650Y0008050D01*
X0014450Y0003200D02*
Y0002700D01*
X0014950Y0003200D02*
X0014450D01*
X0014950Y0002700D02*
Y0003200D01*
X0014450Y0002700D02*
X0014950D01*
Y0003200D02*
X0014450Y0002700D01*
X0014950D02*
X0014450Y0003200D01*
X0009250Y0005750D02*
Y0005250D01*
X0009750Y0005750D02*
X0009250D01*
X0009750Y0005250D02*
Y0005750D01*
X0009250Y0005250D02*
X0009750D01*
Y0005750D02*
X0009250Y0005250D01*
X0009750D02*
X0009250Y0005750D01*
Y0002200D02*
Y0001700D01*
X0009750Y0002200D02*
X0009250D01*
X0009750Y0001700D02*
Y0002200D01*
X0009250Y0001700D02*
X0009750D01*
Y0002200D02*
X0009250Y0001700D01*
X0009750D02*
X0009250Y0002200D01*
X0001750Y0002250D02*
Y0001750D01*
X0002250Y0002250D02*
X0001750D01*
X0002250Y0001750D02*
Y0002250D01*
X0001750Y0001750D02*
X0002250D01*
Y0002250D02*
X0001750Y0001750D01*
X0002250D02*
X0001750Y0002250D01*
X-0000750Y0005250D02*
Y0004750D01*
X-0000250Y0005250D02*
X-0000750D01*
X-0000250Y0004750D02*
Y0005250D01*
X-0000750Y0004750D02*
X-0000250D01*
Y0005250D02*
X-0000750Y0004750D01*
X-0000250D02*
X-0000750Y0005250D01*
X-0000250Y0006250D02*
Y0005750D01*
X0000250Y0006250D02*
X-0000250D01*
X0000250Y0005750D02*
Y0006250D01*
X-0000250Y0005750D02*
X0000250D01*
Y0006250D02*
X-0000250Y0005750D01*
X0000250D02*
X-0000250Y0006250D01*
X0016700Y0002470D02*
Y0001970D01*
X0017200Y0002470D02*
X0016700D01*
X0017200Y0001970D02*
Y0002470D01*
X0016700Y0001970D02*
X0017200D01*
Y0002470D02*
X0016700Y0001970D01*
X0017200D02*
X0016700Y0002470D01*
X0014600Y0002350D02*
Y0001850D01*
X0015100Y0002350D02*
X0014600D01*
X0015100Y0001850D02*
Y0002350D01*
X0014600Y0001850D02*
X0015100D01*
Y0002350D02*
X0014600Y0001850D01*
X0015100D02*
X0014600Y0002350D01*
X0029000Y0001950D02*
Y0001450D01*
X0029500Y0001950D02*
X0029000D01*
X0029500Y0001450D02*
Y0001950D01*
X0029000Y0001450D02*
X0029500D01*
Y0001950D02*
X0029000Y0001450D01*
X0029500D02*
X0029000Y0001950D01*
Y0005250D02*
Y0004750D01*
X0029500Y0005250D02*
X0029000D01*
X0029500Y0004750D02*
Y0005250D01*
X0029000Y0004750D02*
X0029500D01*
Y0005250D02*
X0029000Y0004750D01*
X0029500D02*
X0029000Y0005250D01*
X0036900Y0002170D02*
Y0001670D01*
X0037400Y0002170D02*
X0036900D01*
X0037400Y0001670D02*
Y0002170D01*
X0036900Y0001670D02*
X0037400D01*
Y0002170D02*
X0036900Y0001670D01*
X0037400D02*
X0036900Y0002170D01*
X0037000Y0000500D02*
Y0000000D01*
X0037500Y0000500D02*
X0037000D01*
X0037500Y0000000D02*
Y0000500D01*
X0037000Y0000000D02*
X0037500D01*
Y0000500D02*
X0037000Y0000000D01*
X0037500D02*
X0037000Y0000500D01*
X0001150Y0007100D02*
Y0006600D01*
X0001650Y0007100D02*
X0001150D01*
X0001650Y0006600D02*
Y0007100D01*
X0001150Y0006600D02*
X0001650D01*
Y0007100D02*
X0001150Y0006600D01*
X0001650D02*
X0001150Y0007100D01*
Y0011900D02*
Y0011400D01*
X0001650Y0011900D02*
X0001150D01*
X0001650Y0011400D02*
Y0011900D01*
X0001150Y0011400D02*
X0001650D01*
Y0011900D02*
X0001150Y0011400D01*
X0001650D02*
X0001150Y0011900D01*
X0015600Y0013100D02*
Y0012600D01*
X0016100Y0013100D02*
X0015600D01*
X0016100Y0012600D02*
Y0013100D01*
X0015600Y0012600D02*
X0016100D01*
Y0013100D02*
X0015600Y0012600D01*
X0016100D02*
X0015600Y0013100D01*
X0038650Y0005550D02*
Y0005050D01*
X0039150Y0005550D02*
X0038650D01*
X0039150Y0005050D02*
Y0005550D01*
X0038650Y0005050D02*
X0039150D01*
Y0005550D02*
X0038650Y0005050D01*
X0039150D02*
X0038650Y0005550D01*
X0010300Y0002050D02*
Y0001550D01*
X0010800Y0002050D02*
X0010300D01*
X0010800Y0001550D02*
Y0002050D01*
X0010300Y0001550D02*
X0010800D01*
Y0002050D02*
X0010300Y0001550D01*
X0010800D02*
X0010300Y0002050D01*
Y0003300D02*
Y0002800D01*
X0010800Y0003300D02*
X0010300D01*
X0010800Y0002800D02*
Y0003300D01*
X0010300Y0002800D02*
X0010800D01*
Y0003300D02*
X0010300Y0002800D01*
X0010800D02*
X0010300Y0003300D01*
X0037500Y0004300D02*
Y0003800D01*
X0038000Y0004300D02*
X0037500D01*
X0038000Y0003800D02*
Y0004300D01*
X0037500Y0003800D02*
X0038000D01*
Y0004300D02*
X0037500Y0003800D01*
X0038000D02*
X0037500Y0004300D01*
X0035500Y0006850D02*
Y0006350D01*
X0036000Y0006850D02*
X0035500D01*
X0036000Y0006350D02*
Y0006850D01*
X0035500Y0006350D02*
X0036000D01*
Y0006850D02*
X0035500Y0006350D01*
X0036000D02*
X0035500Y0006850D01*
X0025150Y0007450D02*
Y0006950D01*
X0025650Y0007450D02*
X0025150D01*
X0025650Y0006950D02*
Y0007450D01*
X0025150Y0006950D02*
X0025650D01*
Y0007450D02*
X0025150Y0006950D01*
X0025650D02*
X0025150Y0007450D01*
X0024400Y0006800D02*
Y0006300D01*
X0024900Y0006800D02*
X0024400D01*
X0024900Y0006300D02*
Y0006800D01*
X0024400Y0006300D02*
X0024900D01*
Y0006800D02*
X0024400Y0006300D01*
X0024900D02*
X0024400Y0006800D01*
X0022800Y0008600D02*
Y0008100D01*
X0023300Y0008600D02*
X0022800D01*
X0023300Y0008100D02*
Y0008600D01*
X0022800Y0008100D02*
X0023300D01*
Y0008600D02*
X0022800Y0008100D01*
X0023300D02*
X0022800Y0008600D01*
X0042600Y0006400D02*
Y0005900D01*
X0043100Y0006400D02*
X0042600D01*
X0043100Y0005900D02*
Y0006400D01*
X0042600Y0005900D02*
X0043100D01*
Y0006400D02*
X0042600Y0005900D01*
X0043100D02*
X0042600Y0006400D01*
X0045550Y0006200D02*
Y0005700D01*
X0046050Y0006200D02*
X0045550D01*
X0046050Y0005700D02*
Y0006200D01*
X0045550Y0005700D02*
X0046050D01*
Y0006200D02*
X0045550Y0005700D01*
X0046050D02*
X0045550Y0006200D01*
X0045300Y0010000D02*
Y0009500D01*
X0045800Y0010000D02*
X0045300D01*
X0045800Y0009500D02*
Y0010000D01*
X0045300Y0009500D02*
X0045800D01*
Y0010000D02*
X0045300Y0009500D01*
X0045800D02*
X0045300Y0010000D01*
X0003550Y0007250D02*
Y0006750D01*
X0004050Y0007250D02*
X0003550D01*
X0004050Y0006750D02*
Y0007250D01*
X0003550Y0006750D02*
X0004050D01*
Y0007250D02*
X0003550Y0006750D01*
X0004050D02*
X0003550Y0007250D01*
X0003800Y0003600D02*
Y0003100D01*
X0004300Y0003600D02*
X0003800D01*
X0004300Y0003100D02*
Y0003600D01*
X0003800Y0003100D02*
X0004300D01*
Y0003600D02*
X0003800Y0003100D01*
X0004300D02*
X0003800Y0003600D01*
X0024500Y0005650D02*
Y0005150D01*
X0025000Y0005650D02*
X0024500D01*
X0025000Y0005150D02*
Y0005650D01*
X0024500Y0005150D02*
X0025000D01*
Y0005650D02*
X0024500Y0005150D01*
X0025000D02*
X0024500Y0005650D01*
X0044100Y0005100D02*
Y0004600D01*
X0044600Y0005100D02*
X0044100D01*
X0044600Y0004600D02*
Y0005100D01*
X0044100Y0004600D02*
X0044600D01*
Y0005100D02*
X0044100Y0004600D01*
X0044600D02*
X0044100Y0005100D01*
Y0004600D02*
Y0004100D01*
X0044600Y0004600D02*
X0044100D01*
X0044600Y0004100D02*
Y0004600D01*
X0044100Y0004100D02*
X0044600D01*
Y0004600D02*
X0044100Y0004100D01*
X0044600D02*
X0044100Y0004600D01*
X0006000Y0005750D02*
Y0005250D01*
X0006500Y0005750D02*
X0006000D01*
X0006500Y0005250D02*
Y0005750D01*
X0006000Y0005250D02*
X0006500D01*
Y0005750D02*
X0006000Y0005250D01*
X0006500D02*
X0006000Y0005750D01*
X0005900Y0004750D02*
Y0004250D01*
X0006400Y0004750D02*
X0005900D01*
X0006400Y0004250D02*
Y0004750D01*
X0005900Y0004250D02*
X0006400D01*
Y0004750D02*
X0005900Y0004250D01*
X0006400D02*
X0005900Y0004750D01*
X0040050Y0006350D02*
Y0005850D01*
X0040550Y0006350D02*
X0040050D01*
X0040550Y0005850D02*
Y0006350D01*
X0040050Y0005850D02*
X0040550D01*
Y0006350D02*
X0040050Y0005850D01*
X0040550D02*
X0040050Y0006350D01*
X0044200Y0010200D02*
Y0009700D01*
X0044700Y0010200D02*
X0044200D01*
X0044700Y0009700D02*
Y0010200D01*
X0044200Y0009700D02*
X0044700D01*
Y0010200D02*
X0044200Y0009700D01*
X0044700D02*
X0044200Y0010200D01*
X0040850Y0000450D02*
Y-0000050D01*
X0041350Y0000450D02*
X0040850D01*
X0041350Y-0000050D02*
Y0000450D01*
X0040850Y-0000050D02*
X0041350D01*
Y0000450D02*
X0040850Y-0000050D01*
X0041350D02*
X0040850Y0000450D01*
X0040450Y0001500D02*
Y0001000D01*
X0040950Y0001500D02*
X0040450D01*
X0040950Y0001000D02*
Y0001500D01*
X0040450Y0001000D02*
X0040950D01*
Y0001500D02*
X0040450Y0001000D01*
X0040950D02*
X0040450Y0001500D01*
X0036850Y0001650D02*
Y0001150D01*
X0037350Y0001650D02*
X0036850D01*
X0037350Y0001150D02*
Y0001650D01*
X0036850Y0001150D02*
X0037350D01*
Y0001650D02*
X0036850Y0001150D01*
X0037350D02*
X0036850Y0001650D01*
X0036000Y-0000450D02*
Y-0000950D01*
X0036500Y-0000450D02*
X0036000D01*
X0036500Y-0000950D02*
Y-0000450D01*
X0036000Y-0000950D02*
X0036500D01*
Y-0000450D02*
X0036000Y-0000950D01*
X0036500D02*
X0036000Y-0000450D01*
X0022300Y0003400D02*
Y0002900D01*
X0022800Y0003400D02*
X0022300D01*
X0022800Y0002900D02*
Y0003400D01*
X0022300Y0002900D02*
X0022800D01*
Y0003400D02*
X0022300Y0002900D01*
X0022800D02*
X0022300Y0003400D01*
X0036500Y0000450D02*
Y-0000050D01*
X0037000Y0000450D02*
X0036500D01*
X0037000Y-0000050D02*
Y0000450D01*
X0036500Y-0000050D02*
X0037000D01*
Y0000450D02*
X0036500Y-0000050D01*
X0037000D02*
X0036500Y0000450D01*
X0036000Y0005300D02*
Y0004800D01*
X0036500Y0005300D02*
X0036000D01*
X0036500Y0004800D02*
Y0005300D01*
X0036000Y0004800D02*
X0036500D01*
Y0005300D02*
X0036000Y0004800D01*
X0036500D02*
X0036000Y0005300D01*
X0047300Y0010000D02*
Y0009500D01*
X0047800Y0010000D02*
X0047300D01*
X0047800Y0009500D02*
Y0010000D01*
X0047300Y0009500D02*
X0047800D01*
Y0010000D02*
X0047300Y0009500D01*
X0047800D02*
X0047300Y0010000D01*
Y0006800D02*
Y0006300D01*
X0047800Y0006800D02*
X0047300D01*
X0047800Y0006300D02*
Y0006800D01*
X0047300Y0006300D02*
X0047800D01*
Y0006800D02*
X0047300Y0006300D01*
X0047800D02*
X0047300Y0006800D01*
X0004150Y0007300D02*
Y0006800D01*
X0004650Y0007300D02*
X0004150D01*
X0004650Y0006800D02*
Y0007300D01*
X0004150Y0006800D02*
X0004650D01*
Y0007300D02*
X0004150Y0006800D01*
X0004650D02*
X0004150Y0007300D01*
X0001300Y0006400D02*
Y0005900D01*
X0001800Y0006400D02*
X0001300D01*
X0001800Y0005900D02*
Y0006400D01*
X0001300Y0005900D02*
X0001800D01*
Y0006400D02*
X0001300Y0005900D01*
X0001800D02*
X0001300Y0006400D01*
X0001500Y0008300D02*
Y0007800D01*
X0002000Y0008300D02*
X0001500D01*
X0002000Y0007800D02*
Y0008300D01*
X0001500Y0007800D02*
X0002000D01*
Y0008300D02*
X0001500Y0007800D01*
X0002000D02*
X0001500Y0008300D01*
X0012300Y0008200D02*
Y0007700D01*
X0012800Y0008200D02*
X0012300D01*
X0012800Y0007700D02*
Y0008200D01*
X0012300Y0007700D02*
X0012800D01*
Y0008200D02*
X0012300Y0007700D01*
X0012800D02*
X0012300Y0008200D01*
Y0005700D02*
Y0005200D01*
X0012800Y0005700D02*
X0012300D01*
X0012800Y0005200D02*
Y0005700D01*
X0012300Y0005200D02*
X0012800D01*
Y0005700D02*
X0012300Y0005200D01*
X0012800D02*
X0012300Y0005700D01*
X0023300Y0005800D02*
Y0005300D01*
X0023800Y0005800D02*
X0023300D01*
X0023800Y0005300D02*
Y0005800D01*
X0023300Y0005300D02*
X0023800D01*
Y0005800D02*
X0023300Y0005300D01*
X0023800D02*
X0023300Y0005800D01*
X0023550Y0000550D02*
Y0000050D01*
X0024050Y0000550D02*
X0023550D01*
X0024050Y0000050D02*
Y0000550D01*
X0023550Y0000050D02*
X0024050D01*
Y0000550D02*
X0023550Y0000050D01*
X0024050D02*
X0023550Y0000550D01*
X0029300Y0004000D02*
Y0003500D01*
X0029800Y0004000D02*
X0029300D01*
X0029800Y0003500D02*
Y0004000D01*
X0029300Y0003500D02*
X0029800D01*
Y0004000D02*
X0029300Y0003500D01*
X0029800D02*
X0029300Y0004000D01*
Y0004650D02*
Y0004150D01*
X0029800Y0004650D02*
X0029300D01*
X0029800Y0004150D02*
Y0004650D01*
X0029300Y0004150D02*
X0029800D01*
Y0004650D02*
X0029300Y0004150D01*
X0029800D02*
X0029300Y0004650D01*
X0002150Y0011600D02*
Y0011100D01*
X0002650Y0011600D02*
X0002150D01*
X0002650Y0011100D02*
Y0011600D01*
X0002150Y0011100D02*
X0002650D01*
Y0011600D02*
X0002150Y0011100D01*
X0002650D02*
X0002150Y0011600D01*
Y0005050D02*
Y0004550D01*
X0002650Y0005050D02*
X0002150D01*
X0002650Y0004550D02*
Y0005050D01*
X0002150Y0004550D02*
X0002650D01*
Y0005050D02*
X0002150Y0004550D01*
X0002650D02*
X0002150Y0005050D01*
X0027000Y0002500D02*
Y0002000D01*
X0027500Y0002500D02*
X0027000D01*
X0027500Y0002000D02*
Y0002500D01*
X0027000Y0002000D02*
X0027500D01*
Y0002500D02*
X0027000Y0002000D01*
X0027500D02*
X0027000Y0002500D01*
Y0004800D02*
Y0004300D01*
X0027500Y0004800D02*
X0027000D01*
X0027500Y0004300D02*
Y0004800D01*
X0027000Y0004300D02*
X0027500D01*
Y0004800D02*
X0027000Y0004300D01*
X0027500D02*
X0027000Y0004800D01*
X0019950Y0001500D02*
Y0001000D01*
X0020450Y0001500D02*
X0019950D01*
X0020450Y0001000D02*
Y0001500D01*
X0019950Y0001000D02*
X0020450D01*
Y0001500D02*
X0019950Y0001000D01*
X0020450D02*
X0019950Y0001500D01*
X0020050Y0008050D02*
Y0007550D01*
X0020550Y0008050D02*
X0020050D01*
X0020550Y0007550D02*
Y0008050D01*
X0020050Y0007550D02*
X0020550D01*
Y0008050D02*
X0020050Y0007550D01*
X0020550D02*
X0020050Y0008050D01*
X0040300Y0008250D02*
Y0007750D01*
X0040800Y0008250D02*
X0040300D01*
X0040800Y0007750D02*
Y0008250D01*
X0040300Y0007750D02*
X0040800D01*
Y0008250D02*
X0040300Y0007750D01*
X0040800D02*
X0040300Y0008250D01*
X0042300Y0008500D02*
Y0008000D01*
X0042800Y0008500D02*
X0042300D01*
X0042800Y0008000D02*
Y0008500D01*
X0042300Y0008000D02*
X0042800D01*
Y0008500D02*
X0042300Y0008000D01*
X0042800D02*
X0042300Y0008500D01*
X0007900Y0000400D02*
Y-0000100D01*
X0008400Y0000400D02*
X0007900D01*
X0008400Y-0000100D02*
Y0000400D01*
X0007900Y-0000100D02*
X0008400D01*
Y0000400D02*
X0007900Y-0000100D01*
X0008400D02*
X0007900Y0000400D01*
Y0007700D02*
Y0007200D01*
X0008400Y0007700D02*
X0007900D01*
X0008400Y0007200D02*
Y0007700D01*
X0007900Y0007200D02*
X0008400D01*
Y0007700D02*
X0007900Y0007200D01*
X0008400D02*
X0007900Y0007700D01*
X0044300Y0008250D02*
Y0007750D01*
X0044800Y0008250D02*
X0044300D01*
X0044800Y0007750D02*
Y0008250D01*
X0044300Y0007750D02*
X0044800D01*
Y0008250D02*
X0044300Y0007750D01*
X0044800D02*
X0044300Y0008250D01*
X0035300Y0006150D02*
Y0005650D01*
X0035800Y0006150D02*
X0035300D01*
X0035800Y0005650D02*
Y0006150D01*
X0035300Y0005650D02*
X0035800D01*
Y0006150D02*
X0035300Y0005650D01*
X0035800D02*
X0035300Y0006150D01*
X0034900Y0001900D02*
Y0001400D01*
X0035400Y0001900D02*
X0034900D01*
X0035400Y0001400D02*
Y0001900D01*
X0034900Y0001400D02*
X0035400D01*
Y0001900D02*
X0034900Y0001400D01*
X0035400D02*
X0034900Y0001900D01*
X0001450Y0006100D02*
Y0005600D01*
X0001950Y0006100D02*
X0001450D01*
X0001950Y0005600D02*
Y0006100D01*
X0001450Y0005600D02*
X0001950D01*
Y0006100D02*
X0001450Y0005600D01*
X0001950D02*
X0001450Y0006100D01*
X0015300Y0001450D02*
Y0000950D01*
X0015800Y0001450D02*
X0015300D01*
X0015800Y0000950D02*
Y0001450D01*
X0015300Y0000950D02*
X0015800D01*
Y0001450D02*
X0015300Y0000950D01*
X0015800D02*
X0015300Y0001450D01*
X0019250Y0001750D02*
Y0001250D01*
X0019750Y0001750D02*
X0019250D01*
X0019750Y0001250D02*
Y0001750D01*
X0019250Y0001250D02*
X0019750D01*
Y0001750D02*
X0019250Y0001250D01*
X0019750D02*
X0019250Y0001750D01*
X0039050Y0002550D02*
Y0002050D01*
X0039550Y0002550D02*
X0039050D01*
X0039550Y0002050D02*
Y0002550D01*
X0039050Y0002050D02*
X0039550D01*
Y0002550D02*
X0039050Y0002050D01*
X0039550D02*
X0039050Y0002550D01*
X0040300Y0000600D02*
Y0000100D01*
X0040800Y0000600D02*
X0040300D01*
X0040800Y0000100D02*
Y0000600D01*
X0040300Y0000100D02*
X0040800D01*
Y0000600D02*
X0040300Y0000100D01*
X0040800D02*
X0040300Y0000600D01*
X0034600Y0004600D02*
Y0004100D01*
X0035100Y0004600D02*
X0034600D01*
X0035100Y0004100D02*
Y0004600D01*
X0034600Y0004100D02*
X0035100D01*
Y0004600D02*
X0034600Y0004100D01*
X0035100D02*
X0034600Y0004600D01*
Y0005300D02*
Y0004800D01*
X0035100Y0005300D02*
X0034600D01*
X0035100Y0004800D02*
Y0005300D01*
X0034600Y0004800D02*
X0035100D01*
Y0005300D02*
X0034600Y0004800D01*
X0035100D02*
X0034600Y0005300D01*
X0030800Y0003300D02*
Y0002800D01*
X0031300Y0003300D02*
X0030800D01*
X0031300Y0002800D02*
Y0003300D01*
X0030800Y0002800D02*
X0031300D01*
Y0003300D02*
X0030800Y0002800D01*
X0031300D02*
X0030800Y0003300D01*
X0031850Y0003500D02*
Y0003000D01*
X0032350Y0003500D02*
X0031850D01*
X0032350Y0003000D02*
Y0003500D01*
X0031850Y0003000D02*
X0032350D01*
Y0003500D02*
X0031850Y0003000D01*
X0032350D02*
X0031850Y0003500D01*
X0014100Y0001850D02*
Y0001350D01*
X0014600Y0001850D02*
X0014100D01*
X0014600Y0001350D02*
Y0001850D01*
X0014100Y0001350D02*
X0014600D01*
Y0001850D02*
X0014100Y0001350D01*
X0014600D02*
X0014100Y0001850D01*
Y0003700D02*
Y0003200D01*
X0014600Y0003700D02*
X0014100D01*
X0014600Y0003200D02*
Y0003700D01*
X0014100Y0003200D02*
X0014600D01*
Y0003700D02*
X0014100Y0003200D01*
X0014600D02*
X0014100Y0003700D01*
X0006750Y0002250D02*
Y0001750D01*
X0007250Y0002250D02*
X0006750D01*
X0007250Y0001750D02*
Y0002250D01*
X0006750Y0001750D02*
X0007250D01*
Y0002250D02*
X0006750Y0001750D01*
X0007250D02*
X0006750Y0002250D01*
X0004400Y0007750D02*
Y0007250D01*
X0004900Y0007750D02*
X0004400D01*
X0004900Y0007250D02*
Y0007750D01*
X0004400Y0007250D02*
X0004900D01*
Y0007750D02*
X0004400Y0007250D01*
X0004900D02*
X0004400Y0007750D01*
X0045400Y0002050D02*
Y0001550D01*
X0045900Y0002050D02*
X0045400D01*
X0045900Y0001550D02*
Y0002050D01*
X0045400Y0001550D02*
X0045900D01*
Y0002050D02*
X0045400Y0001550D01*
X0045900D02*
X0045400Y0002050D01*
X0040450Y0002850D02*
Y0002350D01*
X0040950Y0002850D02*
X0040450D01*
X0040950Y0002350D02*
Y0002850D01*
X0040450Y0002350D02*
X0040950D01*
Y0002850D02*
X0040450Y0002350D01*
X0040950D02*
X0040450Y0002850D01*
X0020650Y0005400D02*
Y0004900D01*
X0021150Y0005400D02*
X0020650D01*
X0021150Y0004900D02*
Y0005400D01*
X0020650Y0004900D02*
X0021150D01*
Y0005400D02*
X0020650Y0004900D01*
X0021150D02*
X0020650Y0005400D01*
X0017100Y0007200D02*
Y0006700D01*
X0017600Y0007200D02*
X0017100D01*
X0017600Y0006700D02*
Y0007200D01*
X0017100Y0006700D02*
X0017600D01*
Y0007200D02*
X0017100Y0006700D01*
X0017600D02*
X0017100Y0007200D01*
X0007250Y0007250D02*
Y0006750D01*
X0007750Y0007250D02*
X0007250D01*
X0007750Y0006750D02*
Y0007250D01*
X0007250Y0006750D02*
X0007750D01*
Y0007250D02*
X0007250Y0006750D01*
X0007750D02*
X0007250Y0007250D01*
Y0004900D02*
Y0004400D01*
X0007750Y0004900D02*
X0007250D01*
X0007750Y0004400D02*
Y0004900D01*
X0007250Y0004400D02*
X0007750D01*
Y0004900D02*
X0007250Y0004400D01*
X0007750D02*
X0007250Y0004900D01*
X0049300Y0010000D02*
Y0009500D01*
X0049800Y0010000D02*
X0049300D01*
X0049800Y0009500D02*
Y0010000D01*
X0049300Y0009500D02*
X0049800D01*
Y0010000D02*
X0049300Y0009500D01*
X0049800D02*
X0049300Y0010000D01*
Y0006450D02*
Y0005950D01*
X0049800Y0006450D02*
X0049300D01*
X0049800Y0005950D02*
Y0006450D01*
X0049300Y0005950D02*
X0049800D01*
Y0006450D02*
X0049300Y0005950D01*
X0049800D02*
X0049300Y0006450D01*
X0038650Y0003950D02*
Y0003450D01*
X0039150Y0003950D02*
X0038650D01*
X0039150Y0003450D02*
Y0003950D01*
X0038650Y0003450D02*
X0039150D01*
Y0003950D02*
X0038650Y0003450D01*
X0039150D02*
X0038650Y0003950D01*
Y0005550D02*
Y0005050D01*
X0039150Y0005550D02*
X0038650D01*
X0039150Y0005050D02*
Y0005550D01*
X0038650Y0005050D02*
X0039150D01*
Y0005550D02*
X0038650Y0005050D01*
X0039150D02*
X0038650Y0005550D01*
X0026750Y0002700D02*
Y0002200D01*
X0027250Y0002700D02*
X0026750D01*
X0027250Y0002200D02*
Y0002700D01*
X0026750Y0002200D02*
X0027250D01*
Y0002700D02*
X0026750Y0002200D01*
X0027250D02*
X0026750Y0002700D01*
X0022150Y0000500D02*
Y0000000D01*
X0022650Y0000500D02*
X0022150D01*
X0022650Y0000000D02*
Y0000500D01*
X0022150Y0000000D02*
X0022650D01*
Y0000500D02*
X0022150Y0000000D01*
X0022650D02*
X0022150Y0000500D01*
X0045550Y0010500D02*
Y0010000D01*
X0046050Y0010500D02*
X0045550D01*
X0046050Y0010000D02*
Y0010500D01*
X0045550Y0010000D02*
X0046050D01*
Y0010500D02*
X0045550Y0010000D01*
X0046050D02*
X0045550Y0010500D01*
X0045300Y0006850D02*
Y0006350D01*
X0045800Y0006850D02*
X0045300D01*
X0045800Y0006350D02*
Y0006850D01*
X0045300Y0006350D02*
X0045800D01*
Y0006850D02*
X0045300Y0006350D01*
X0045800D02*
X0045300Y0006850D01*
X0040200Y0000100D02*
Y-0000400D01*
X0040700Y0000100D02*
X0040200D01*
X0040700Y-0000400D02*
Y0000100D01*
X0040200Y-0000400D02*
X0040700D01*
Y0000100D02*
X0040200Y-0000400D01*
X0040700D02*
X0040200Y0000100D01*
X0039000Y0000600D02*
Y0000100D01*
X0039500Y0000600D02*
X0039000D01*
X0039500Y0000100D02*
Y0000600D01*
X0039000Y0000100D02*
X0039500D01*
Y0000600D02*
X0039000Y0000100D01*
X0039500D02*
X0039000Y0000600D01*
X0027500Y0000150D02*
Y-0000350D01*
X0028000Y0000150D02*
X0027500D01*
X0028000Y-0000350D02*
Y0000150D01*
X0027500Y-0000350D02*
X0028000D01*
Y0000150D02*
X0027500Y-0000350D01*
X0028000D02*
X0027500Y0000150D01*
X0025650Y0001050D02*
Y0000550D01*
X0026150Y0001050D02*
X0025650D01*
X0026150Y0000550D02*
Y0001050D01*
X0025650Y0000550D02*
X0026150D01*
Y0001050D02*
X0025650Y0000550D01*
X0026150D02*
X0025650Y0001050D01*
X0010100Y-0000050D02*
Y-0000550D01*
X0010600Y-0000050D02*
X0010100D01*
X0010600Y-0000550D02*
Y-0000050D01*
X0010100Y-0000550D02*
X0010600D01*
Y-0000050D02*
X0010100Y-0000550D01*
X0010600D02*
X0010100Y-0000050D01*
X0009500Y-0000250D02*
Y-0000750D01*
X0010000Y-0000250D02*
X0009500D01*
X0010000Y-0000750D02*
Y-0000250D01*
X0009500Y-0000750D02*
X0010000D01*
Y-0000250D02*
X0009500Y-0000750D01*
X0010000D02*
X0009500Y-0000250D01*
X0006200Y0000000D02*
Y-0000500D01*
X0006700Y0000000D02*
X0006200D01*
X0006700Y-0000500D02*
Y0000000D01*
X0006200Y-0000500D02*
X0006700D01*
Y0000000D02*
X0006200Y-0000500D01*
X0006700D02*
X0006200Y0000000D01*
X0004050Y0006350D02*
Y0005850D01*
X0004550Y0006350D02*
X0004050D01*
X0004550Y0005850D02*
Y0006350D01*
X0004050Y0005850D02*
X0004550D01*
Y0006350D02*
X0004050Y0005850D01*
X0004550D02*
X0004050Y0006350D01*
X0024350Y0001500D02*
Y0001000D01*
X0024850Y0001500D02*
X0024350D01*
X0024850Y0001000D02*
Y0001500D01*
X0024350Y0001000D02*
X0024850D01*
Y0001500D02*
X0024350Y0001000D01*
X0024850D02*
X0024350Y0001500D01*
X0024400Y-0000500D02*
Y-0001000D01*
X0024900Y-0000500D02*
X0024400D01*
X0024900Y-0001000D02*
Y-0000500D01*
X0024400Y-0001000D02*
X0024900D01*
Y-0000500D02*
X0024400Y-0001000D01*
X0024900D02*
X0024400Y-0000500D01*
Y0000600D02*
Y0000100D01*
X0024900Y0000600D02*
X0024400D01*
X0024900Y0000100D02*
Y0000600D01*
X0024400Y0000100D02*
X0024900D01*
Y0000600D02*
X0024400Y0000100D01*
X0024900D02*
X0024400Y0000600D01*
X0024600Y0002600D02*
Y0002100D01*
X0025100Y0002600D02*
X0024600D01*
X0025100Y0002100D02*
Y0002600D01*
X0024600Y0002100D02*
X0025100D01*
Y0002600D02*
X0024600Y0002100D01*
X0025100D02*
X0024600Y0002600D01*
X0042300Y0004500D02*
Y0004000D01*
X0042800Y0004500D02*
X0042300D01*
X0042800Y0004000D02*
Y0004500D01*
X0042300Y0004000D02*
X0042800D01*
Y0004500D02*
X0042300Y0004000D01*
X0042800D02*
X0042300Y0004500D01*
X0042200Y0005500D02*
Y0005000D01*
X0042700Y0005500D02*
X0042200D01*
X0042700Y0005000D02*
Y0005500D01*
X0042200Y0005000D02*
X0042700D01*
Y0005500D02*
X0042200Y0005000D01*
X0042700D02*
X0042200Y0005500D01*
X0047550Y0006450D02*
Y0005950D01*
X0048050Y0006450D02*
X0047550D01*
X0048050Y0005950D02*
Y0006450D01*
X0047550Y0005950D02*
X0048050D01*
Y0006450D02*
X0047550Y0005950D01*
X0048050D02*
X0047550Y0006450D01*
X0047350Y0010350D02*
Y0009850D01*
X0047850Y0010350D02*
X0047350D01*
X0047850Y0009850D02*
Y0010350D01*
X0047350Y0009850D02*
X0047850D01*
Y0010350D02*
X0047350Y0009850D01*
X0047850D02*
X0047350Y0010350D01*
X0040600Y0004100D02*
Y0003600D01*
X0041100Y0004100D02*
X0040600D01*
X0041100Y0003600D02*
Y0004100D01*
X0040600Y0003600D02*
X0041100D01*
Y0004100D02*
X0040600Y0003600D01*
X0041100D02*
X0040600Y0004100D01*
Y0006100D02*
Y0005600D01*
X0041100Y0006100D02*
X0040600D01*
X0041100Y0005600D02*
Y0006100D01*
X0040600Y0005600D02*
X0041100D01*
Y0006100D02*
X0040600Y0005600D01*
X0041100D02*
X0040600Y0006100D01*
X0041850Y0004450D02*
Y0003950D01*
X0042350Y0004450D02*
X0041850D01*
X0042350Y0003950D02*
Y0004450D01*
X0041850Y0003950D02*
X0042350D01*
Y0004450D02*
X0041850Y0003950D01*
X0042350D02*
X0041850Y0004450D01*
X0041800Y0002500D02*
Y0002000D01*
X0042300Y0002500D02*
X0041800D01*
X0042300Y0002000D02*
Y0002500D01*
X0041800Y0002000D02*
X0042300D01*
Y0002500D02*
X0041800Y0002000D01*
X0042300D02*
X0041800Y0002500D01*
X0003900Y0005650D02*
Y0005150D01*
X0004400Y0005650D02*
X0003900D01*
X0004400Y0005150D02*
Y0005650D01*
X0003900Y0005150D02*
X0004400D01*
Y0005650D02*
X0003900Y0005150D01*
X0004400D02*
X0003900Y0005650D01*
X0005800Y-0001000D02*
Y-0001500D01*
X0006300Y-0001000D02*
X0005800D01*
X0006300Y-0001500D02*
Y-0001000D01*
X0005800Y-0001500D02*
X0006300D01*
Y-0001000D02*
X0005800Y-0001500D01*
X0006300D02*
X0005800Y-0001000D01*
X0026900Y-0001050D02*
Y-0001550D01*
X0027400Y-0001050D02*
X0026900D01*
X0027400Y-0001550D02*
Y-0001050D01*
X0026900Y-0001550D02*
X0027400D01*
Y-0001050D02*
X0026900Y-0001550D01*
X0027400D02*
X0026900Y-0001050D01*
X0026850Y-0000450D02*
Y-0000950D01*
X0027350Y-0000450D02*
X0026850D01*
X0027350Y-0000950D02*
Y-0000450D01*
X0026850Y-0000950D02*
X0027350D01*
Y-0000450D02*
X0026850Y-0000950D01*
X0027350D02*
X0026850Y-0000450D01*
X0034550Y-0000650D02*
Y-0001150D01*
X0035050Y-0000650D02*
X0034550D01*
X0035050Y-0001150D02*
Y-0000650D01*
X0034550Y-0001150D02*
X0035050D01*
Y-0000650D02*
X0034550Y-0001150D01*
X0035050D02*
X0034550Y-0000650D01*
X0040400Y-0000700D02*
Y-0001200D01*
X0040900Y-0000700D02*
X0040400D01*
X0040900Y-0001200D02*
Y-0000700D01*
X0040400Y-0001200D02*
X0040900D01*
Y-0000700D02*
X0040400Y-0001200D01*
X0040900D02*
X0040400Y-0000700D01*
X0000325Y-0016500D02*
Y-0017000D01*
X0000825Y-0016500D02*
X0000325D01*
X0000825Y-0017000D02*
Y-0016500D01*
X0000325Y-0017000D02*
X0000825D01*
Y-0016750D02*
X0000325D01*
X0000575Y-0016500D02*
Y-0017000D01*
Y-0015000D02*
X0000325Y-0015250D01*
X0000825D02*
X0000575Y-0015000D01*
Y-0015500D02*
X0000825Y-0015250D01*
X0000325D02*
X0000575Y-0015500D01*
X0000825Y-0013750D02*
X0000325D01*
X0000575Y-0013500D02*
Y-0014000D01*
X0000825Y-0012000D02*
X0000325Y-0012500D01*
X0000825D02*
X0000325Y-0012000D01*
Y-0010500D02*
Y-0011000D01*
X0000825Y-0010500D02*
X0000325D01*
X0000825Y-0011000D02*
Y-0010500D01*
X0000325Y-0011000D02*
X0000825D01*
Y-0010500D02*
X0000325Y-0011000D01*
X0000825D02*
X0000325Y-0010500D01*
X0036050Y-0019550D02*
X-0001300D01*
X0036000Y-0019500D02*
X-0001250D01*
X0036000Y-0017500D02*
X-0001250D01*
X0036000Y-0016000D02*
X-0001250D01*
X0036000Y-0014500D02*
X-0001250D01*
X0036000Y-0013000D02*
X-0001250D01*
X0036000Y-0011500D02*
X-0001250D01*
X0036000Y-0010000D02*
X-0001250D01*
X0036000Y-0009950D02*
X-0001250D01*
X0036000Y-0008000D02*
X-0001250D01*
X0036000Y-0007950D02*
X-0001250D01*
X0036000Y-0006000D02*
X-0001250D01*
X0036050Y-0005950D02*
X-0001300D01*
X0036050Y-0019500D02*
Y-0006000D01*
X0036000Y-0019500D02*
Y-0006000D01*
X0024458Y-0019500D02*
Y-0008000D01*
X0018908Y-0019500D02*
Y-0008000D01*
X0010842Y-0017500D02*
Y-0008000D01*
X0002450Y-0017500D02*
Y-0008000D01*
X0002400Y-0017500D02*
Y-0008000D01*
X-0001300Y-0019500D02*
Y-0006000D01*
X-0001250Y-0019500D02*
Y-0006000D01*
X-0001575Y0013386D02*
Y-0001575D01*
X0053543D01*
Y0013386D01*
X-0001575D01*
X0016500Y0010250D02*
X0016000Y0009750D01*
X0016500D02*
X0016000Y0010250D01*
X0017500D02*
X0017000Y0009750D01*
X0017500D02*
X0017000Y0010250D01*
X0019500D02*
X0019000Y0009750D01*
X0019500D02*
X0019000Y0010250D01*
X0021500D02*
X0021000Y0009750D01*
X0021500D02*
X0021000Y0010250D01*
X0021250Y0004250D02*
X0020750Y0003750D01*
X0021250D02*
X0020750Y0004250D01*
X0022250D02*
X0021750Y0003750D01*
X0022250D02*
X0021750Y0004250D01*
X0023250D02*
X0022750Y0003750D01*
X0023250D02*
X0022750Y0004250D01*
X0024250D02*
X0023750Y0003750D01*
X0024250D02*
X0023750Y0004250D01*
X0024250Y0007250D02*
X0023750Y0006750D01*
X0024250D02*
X0023750Y0007250D01*
X0023250D02*
X0022750Y0006750D01*
X0023250D02*
X0022750Y0007250D01*
X0022250D02*
X0021750Y0006750D01*
X0022250D02*
X0021750Y0007250D01*
X0021250D02*
X0020750Y0006750D01*
X0021250D02*
X0020750Y0007250D01*
X0023750Y0011000D02*
X0023250D01*
X0023500Y0011250D02*
Y0010750D01*
X0026750Y-0000500D02*
X0026250D01*
X0026500Y-0000250D02*
Y-0000750D01*
X0000250Y0008750D02*
X-0000250D01*
X0000000Y0009000D02*
Y0008500D01*
X0024250Y0010000D02*
X0023750D01*
X0024000Y0010250D02*
Y0009750D01*
X0019500Y0011250D02*
X0019000D01*
X0019250Y0011500D02*
Y0011000D01*
X0051250Y0009500D02*
X0050750D01*
X0051000Y0009750D02*
Y0009250D01*
X0049250Y-0000500D02*
X0048750D01*
X0049000Y-0000250D02*
Y-0000750D01*
X0030750Y0001000D02*
X0030250D01*
X0030500Y0001250D02*
Y0000750D01*
X0038000Y0008500D02*
X0037500D01*
X0037750Y0008750D02*
Y0008250D01*
X0005250Y0010750D02*
X0004750D01*
X0005000Y0011000D02*
Y0010500D01*
X-0000500D02*
X-0001000D01*
X-0000750Y0010750D02*
Y0010250D01*
X0005500Y0001250D02*
X0005250Y0001000D01*
X0005750D02*
X0005500Y0001250D01*
Y0000750D02*
X0005750Y0001000D01*
X0005250D02*
X0005500Y0000750D01*
X0004500Y0001250D02*
X0004250Y0001000D01*
X0004750D02*
X0004500Y0001250D01*
Y0000750D02*
X0004750Y0001000D01*
X0004250D02*
X0004500Y0000750D01*
X0003500Y0001250D02*
X0003250Y0001000D01*
X0003750D02*
X0003500Y0001250D01*
Y0000750D02*
X0003750Y0001000D01*
X0003250D02*
X0003500Y0000750D01*
Y0000250D02*
X0003250Y0000000D01*
X0003750D02*
X0003500Y0000250D01*
Y-0000250D02*
X0003750Y0000000D01*
X0003250D02*
X0003500Y-0000250D01*
X0004500Y0000250D02*
X0004250Y0000000D01*
X0004750D02*
X0004500Y0000250D01*
Y-0000250D02*
X0004750Y0000000D01*
X0004250D02*
X0004500Y-0000250D01*
X0005500Y0000250D02*
X0005250Y0000000D01*
X0005750D02*
X0005500Y0000250D01*
Y-0000250D02*
X0005750Y0000000D01*
X0005250D02*
X0005500Y-0000250D01*
X0038165Y0011258D02*
X0037915Y0011008D01*
X0038415D02*
X0038165Y0011258D01*
Y0010758D02*
X0038415Y0011008D01*
X0037915D02*
X0038165Y0010758D01*
Y0012258D02*
X0037915Y0012008D01*
X0038415D02*
X0038165Y0012258D01*
Y0011758D02*
X0038415Y0012008D01*
X0037915D02*
X0038165Y0011758D01*
X0039165Y0011258D02*
X0038915Y0011008D01*
X0039415D02*
X0039165Y0011258D01*
Y0010758D02*
X0039415Y0011008D01*
X0038915D02*
X0039165Y0010758D01*
Y0012258D02*
X0038915Y0012008D01*
X0039415D02*
X0039165Y0012258D01*
Y0011758D02*
X0039415Y0012008D01*
X0038915D02*
X0039165Y0011758D01*
X0040165Y0011258D02*
X0039915Y0011008D01*
X0040415D02*
X0040165Y0011258D01*
Y0010758D02*
X0040415Y0011008D01*
X0039915D02*
X0040165Y0010758D01*
Y0012258D02*
X0039915Y0012008D01*
X0040415D02*
X0040165Y0012258D01*
Y0011758D02*
X0040415Y0012008D01*
X0039915D02*
X0040165Y0011758D01*
X0041165Y0011258D02*
X0040915Y0011008D01*
X0041415D02*
X0041165Y0011258D01*
Y0010758D02*
X0041415Y0011008D01*
X0040915D02*
X0041165Y0010758D01*
Y0012258D02*
X0040915Y0012008D01*
X0041415D02*
X0041165Y0012258D01*
Y0011758D02*
X0041415Y0012008D01*
X0040915D02*
X0041165Y0011758D01*
X0042165Y0011258D02*
X0041915Y0011008D01*
X0042415D02*
X0042165Y0011258D01*
Y0010758D02*
X0042415Y0011008D01*
X0041915D02*
X0042165Y0010758D01*
Y0012258D02*
X0041915Y0012008D01*
X0042415D02*
X0042165Y0012258D01*
Y0011758D02*
X0042415Y0012008D01*
X0041915D02*
X0042165Y0011758D01*
X0043165Y0011258D02*
X0042915Y0011008D01*
X0043415D02*
X0043165Y0011258D01*
Y0010758D02*
X0043415Y0011008D01*
X0042915D02*
X0043165Y0010758D01*
Y0012258D02*
X0042915Y0012008D01*
X0043415D02*
X0043165Y0012258D01*
Y0011758D02*
X0043415Y0012008D01*
X0042915D02*
X0043165Y0011758D01*
X0044165Y0011258D02*
X0043915Y0011008D01*
X0044415D02*
X0044165Y0011258D01*
Y0010758D02*
X0044415Y0011008D01*
X0043915D02*
X0044165Y0010758D01*
Y0012258D02*
X0043915Y0012008D01*
X0044415D02*
X0044165Y0012258D01*
Y0011758D02*
X0044415Y0012008D01*
X0043915D02*
X0044165Y0011758D01*
X0045165Y0011258D02*
X0044915Y0011008D01*
X0045415D02*
X0045165Y0011258D01*
Y0010758D02*
X0045415Y0011008D01*
X0044915D02*
X0045165Y0010758D01*
Y0012258D02*
X0044915Y0012008D01*
X0045415D02*
X0045165Y0012258D01*
Y0011758D02*
X0045415Y0012008D01*
X0044915D02*
X0045165Y0011758D01*
X0046165Y0011258D02*
X0045915Y0011008D01*
X0046415D02*
X0046165Y0011258D01*
Y0010758D02*
X0046415Y0011008D01*
X0045915D02*
X0046165Y0010758D01*
Y0012258D02*
X0045915Y0012008D01*
X0046415D02*
X0046165Y0012258D01*
Y0011758D02*
X0046415Y0012008D01*
X0045915D02*
X0046165Y0011758D01*
X0047165Y0011258D02*
X0046915Y0011008D01*
X0047415D02*
X0047165Y0011258D01*
Y0010758D02*
X0047415Y0011008D01*
X0046915D02*
X0047165Y0010758D01*
Y0012258D02*
X0046915Y0012008D01*
X0047415D02*
X0047165Y0012258D01*
Y0011758D02*
X0047415Y0012008D01*
X0046915D02*
X0047165Y0011758D01*
X0048165Y0011258D02*
X0047915Y0011008D01*
X0048415D02*
X0048165Y0011258D01*
Y0010758D02*
X0048415Y0011008D01*
X0047915D02*
X0048165Y0010758D01*
Y0012258D02*
X0047915Y0012008D01*
X0048415D02*
X0048165Y0012258D01*
Y0011758D02*
X0048415Y0012008D01*
X0047915D02*
X0048165Y0011758D01*
X0049165Y0011258D02*
X0048915Y0011008D01*
X0049415D02*
X0049165Y0011258D01*
Y0010758D02*
X0049415Y0011008D01*
X0048915D02*
X0049165Y0010758D01*
Y0012258D02*
X0048915Y0012008D01*
X0049415D02*
X0049165Y0012258D01*
Y0011758D02*
X0049415Y0012008D01*
X0048915D02*
X0049165Y0011758D01*
X0050165Y0011258D02*
X0049915Y0011008D01*
X0050415D02*
X0050165Y0011258D01*
Y0010758D02*
X0050415Y0011008D01*
X0049915D02*
X0050165Y0010758D01*
Y0012258D02*
X0049915Y0012008D01*
X0050415D02*
X0050165Y0012258D01*
Y0011758D02*
X0050415Y0012008D01*
X0049915D02*
X0050165Y0011758D01*
X0051165Y0011258D02*
X0050915Y0011008D01*
X0051415D02*
X0051165Y0011258D01*
Y0010758D02*
X0051415Y0011008D01*
X0050915D02*
X0051165Y0010758D01*
Y0012258D02*
X0050915Y0012008D01*
X0051415D02*
X0051165Y0012258D01*
Y0011758D02*
X0051415Y0012008D01*
X0050915D02*
X0051165Y0011758D01*
X0052165Y0011258D02*
X0051915Y0011008D01*
X0052415D02*
X0052165Y0011258D01*
Y0010758D02*
X0052415Y0011008D01*
X0051915D02*
X0052165Y0010758D01*
Y0012258D02*
X0051915Y0012008D01*
X0052415D02*
X0052165Y0012258D01*
Y0011758D02*
X0052415Y0012008D01*
X0051915D02*
X0052165Y0011758D01*
X0051750Y0000250D02*
Y-0000250D01*
X0052250Y0000250D02*
X0051750D01*
X0052250Y-0000250D02*
Y0000250D01*
X0051750Y-0000250D02*
X0052250D01*
Y0000000D02*
X0051750D01*
X0052000Y0000250D02*
Y-0000250D01*
X-0000250Y0000250D02*
Y-0000250D01*
X0000250Y0000250D02*
X-0000250D01*
X0000250Y-0000250D02*
Y0000250D01*
X-0000250Y-0000250D02*
X0000250D01*
Y0000000D02*
X-0000250D01*
X0000000Y0000250D02*
Y-0000250D01*
M02*
