%
T1C0.0079F200S100
X-000550Y007750
X-000500Y005000
X000000Y006000
X000100Y006700
X000150Y007800
X000750Y003550
X000900Y009250
X001200Y-001300
X001200Y004235
X001400Y006850
X001400Y011650
X001450Y-000950
X001450Y005250
X001550Y006150
X001700Y005850
X001750Y008050
X002000Y002000
X002400Y004800
X002450Y003450
X002400Y011350
X002700Y008200
X002900Y010800
X002950Y003650
X003250Y006450
X003500Y005000
X003800Y007000
X003900Y007600
X004050Y003350
X004050Y005900
X004100Y002720
X004150Y005400
X004200Y004850
X004300Y006100
X004300Y006650
X004300Y007350
X004400Y007050
X004450Y009700
X004450Y010350
X004550Y007800
X004650Y006100
X004650Y007500
X004750Y005700
X004900Y003700
X004950Y009800
X005450Y-001150
X005850Y006900
X005950Y005600
X006000Y003650
X006050Y-001250
X006050Y006200
X006100Y008250
X006150Y004500
X006250Y005500
X006400Y007000
X006450Y-000250
X006500Y000550
X006750Y010000
X007000Y002000
X007100Y000050
X007200Y004000
X007200Y010500
X007250Y002700
X007250Y005000
X007450Y008800
X007500Y004650
X007500Y007000
X007700Y000550
X007750Y005500
X007750Y006250
X007800Y011950
X007900Y005150
X008150Y000150
X008150Y007450
X008400Y010000
X008450Y009550
X008500Y007300
X008650Y004300
X008500Y012100
X008950Y-000500
X008950Y003500
X009100Y009100
X009300Y008550
X009500Y001950
X009500Y005500
X009750Y-000500
X009820Y001030
X010300Y008900
X010350Y-000300
X010450Y-001000
X010550Y001800
X010550Y003050
X010750Y011800
X010980Y007280
X011250Y006000
X011400Y000470
X011650Y-000900
X011950Y002750
X012180Y002220
X012250Y000550
X012500Y008800
X012500Y011800
X012550Y005450
X012550Y007950
X012650Y009150
X012750Y003800
X012800Y007700
X012850Y008650
X013150Y010250
X013200Y008700
X013550Y009050
X013750Y007650
X013850Y009450
X013850Y012300
X013900Y000470
X014350Y001600
X014700Y002950
X014350Y003450
X014350Y006050
X014350Y013100
X014750Y000550
X014850Y002100
X014900Y007800
X015500Y012750
X015550Y000470
X015550Y001200
X015730Y002220
X015850Y012850
X016000Y007650
X016350Y004750
X016400Y004200
X016550Y001050
X016850Y004950
X016850Y012450
X016950Y002220
X017250Y002500
X017250Y007300
X017350Y006950
X017800Y002250
X017800Y004800
X017800Y009500
X017900Y001050
X018150Y000550
X018150Y011250
X018450Y-000700
X018700Y007550
X019500Y001500
X019800Y000300
X019850Y000900
X020200Y001250
X019850Y002850
X020250Y-000400
X020300Y000450
X020300Y007800
X020550Y006100
X020550Y008650
X020570Y000030
X020650Y009450
X020650Y012550
X020900Y005150
X021050Y-001150
X021550Y001400
X021550Y003150
X021650Y012350
X021700Y009150
X021950Y000850
X022000Y011000
X022300Y001750
X022400Y000250
X022550Y002050
X022550Y003150
X022700Y-000500
X023050Y008350
X023400Y002700
X023450Y006400
X023550Y001650
X023550Y005550
X023550Y008450
X023800Y000300
X024350Y004900
X024600Y001250
X024650Y-000750
X024650Y000350
X024650Y006550
X024700Y003550
X024700Y004550
X024750Y005400
X024800Y008250
X024800Y010780
X024800Y011750
X024850Y002350
X024950Y004150
X025250Y002350
X025400Y007200
X025900Y000800
X026050Y007250
X026050Y008650
X026150Y001350
X026250Y001750
X026450Y006150
X026650Y011100
X026750Y009850
X026850Y010450
X027000Y002450
X027000Y002950
X027100Y-000700
X027150Y-001300
X027150Y000000
X027250Y002250
X027250Y004550
X027250Y009150
X027400Y-000600
X027450Y007250
X027600Y003720
X027750Y-000100
X027850Y000800
X027750Y009500
X027850Y010450
X027850Y010850
X027850Y011450
X028050Y005750
X028400Y005750
X028650Y009150
X028750Y003050
X029000Y002550
X029150Y001350
X029200Y006300
X029250Y001700
X029250Y005000
X029250Y012350
X029350Y009750
X029550Y003050
X029550Y003750
X029550Y004400
X029550Y004750
X030230Y000030
X030500Y010000
X030800Y006250
X030820Y002470
X031050Y003050
X031100Y004750
X031050Y007300
X031050Y008250
X031350Y007400
X031500Y001650
X031650Y006050
X032000Y-000550
X032100Y003250
X032150Y002650
X032250Y002950
X032250Y009450
X032550Y009600
X032250Y010950
X032750Y004250
X032850Y004750
X032750Y006850
X032850Y008150
X032850Y009500
X032950Y007300
X033000Y003720
X033050Y004350
X033100Y005050
X033650Y001450
X034000Y002450
X034250Y003250
X034580Y008780
X034750Y003050
X034800Y-000900
X034800Y003750
X034850Y-000500
X035150Y001650
X034850Y002550
X034850Y004350
X034850Y005050
X035200Y006100
X035300Y-000750
X035550Y005900
X035650Y001600
X035750Y006600
X035800Y011450
X036250Y-000700
X036250Y005050
X036350Y005400
X036350Y008250
X036250Y008800
X036500Y001100
X036750Y000200
X036500Y003600
X036500Y004260
X036750Y009250
X036900Y006500
X037000Y003200
X037100Y001400
X037150Y001920
X037150Y009350
X037100Y012200
X037250Y000250
X037250Y005050
X037350Y005400
X037250Y007000
X037400Y006650
X037500Y-001300
X037500Y002650
X037500Y004300
X037600Y011750
X037700Y006550
X037750Y004050
X038030Y-000770
X038030Y000470
X037750Y012550
X038100Y001000
X038150Y007350
X038250Y003700
X038350Y004400
X038550Y008950
X038600Y005148
X038700Y006150
X038900Y001950
X038900Y003700
X038900Y005300
X038950Y-000050
X038950Y001350
X038950Y007750
X039150Y013100
X039250Y000350
X039300Y002300
X039300Y012600
X039320Y009370
X039430Y006920
X039650Y007750
X039750Y-000700
X039750Y001300
X040300Y006100
X040350Y006610
X040350Y008750
X040450Y-000150
X040550Y000350
X040550Y005300
X040550Y008000
X040550Y008500
X040550Y009150
X040550Y009500
X040650Y-000950
X040700Y001250
X040700Y002600
X040650Y003220
X040650Y006100
X040850Y003850
X040950Y002850
X040850Y005850
X041050Y002050
X041100Y000200
X041100Y004850
X041430Y006920
X041500Y-000700
X041500Y001300
X041500Y005300
X041500Y007450
X041950Y003800
X042000Y008450
X042050Y002250
X042100Y004200
X042150Y006450
X042450Y005250
X042550Y004250
X042850Y006150
X042550Y007150
X042550Y008250
X043250Y005350
X043550Y007500
X043650Y004850
X043850Y010250
X043650Y013100
X043950Y000030
X043950Y001950
X044250Y010200
X044300Y003850
X044350Y004350
X044350Y004850
X044450Y009950
X044550Y008000
X044600Y007150
X044750Y001300
X045150Y-000150
X045550Y006600
X045550Y009750
X045650Y001800
X045650Y003300
X045800Y005950
X045800Y010250
X045900Y005300
X046000Y003250
X046750Y003250
X046900Y000750
X047050Y-000200
X047300Y004600
X047550Y006550
X047550Y009750
X047600Y010100
X047650Y005300
X047800Y006200
X048250Y-000700
X049050Y003650
X048250Y006850
X049250Y003000
X049500Y000700
X049550Y005300
X049550Y006200
X049550Y009750
X050100Y002200
X051750Y009250
X052150Y004850
X052150Y008250
X052700Y003000
T3C0.0394F200S100
X-000750Y010500
X000000Y008750
X005000Y010750
X019250Y011250
X023500Y011000
X024000Y010000
X026500Y-000500
X030500Y001000
X037750Y008500
X049000Y-000500
X051000Y009500
T4C0.0433F200S100
X003500Y000000
X003500Y001000
X004500Y000000
X004500Y001000
X005500Y000000
X005500Y001000
X038165Y011008
X038165Y012008
X039165Y011008
X039165Y012008
X040165Y011008
X040165Y012008
X041165Y011008
X041165Y012008
X042165Y011008
X042165Y012008
X043165Y011008
X043165Y012008
X044165Y011008
X044165Y012008
X045165Y011008
X045165Y012008
X046165Y011008
X046165Y012008
X047165Y011008
X047165Y012008
X048165Y011008
X048165Y012008
X049165Y011008
X049165Y012008
X050165Y011008
X050165Y012008
X051165Y011008
X051165Y012008
X052165Y011008
X052165Y012008
T2C0.0315F200S100
X016250Y010000
X017250Y010000
X019250Y010000
X021000Y004000
X021000Y007000
X021250Y010000
X022000Y004000
X022000Y007000
X023000Y004000
X024000Y004000
X024000Y007000
X023000Y007000
M30
